%TF.GenerationSoftware,KiCad,Pcbnew,(6.0.1)*%
%TF.CreationDate,2022-01-21T22:17:13+01:00*%
%TF.ProjectId,bosch-kf163-control,626f7363-682d-46b6-9631-36332d636f6e,1*%
%TF.SameCoordinates,Original*%
%TF.FileFunction,Soldermask,Top*%
%TF.FilePolarity,Negative*%
%FSLAX46Y46*%
G04 Gerber Fmt 4.6, Leading zero omitted, Abs format (unit mm)*
G04 Created by KiCad (PCBNEW (6.0.1)) date 2022-01-21 22:17:13*
%MOMM*%
%LPD*%
G01*
G04 APERTURE LIST*
%ADD10R,1.200000X1.200000*%
%ADD11R,1.500000X1.600000*%
%ADD12R,1.700000X1.700000*%
%ADD13O,1.700000X1.700000*%
%ADD14R,2.400000X1.600000*%
%ADD15O,2.400000X1.600000*%
G04 APERTURE END LIST*
D10*
%TO.C,RV301*%
X111020000Y-107553000D03*
D11*
X107770000Y-106553000D03*
D10*
X111020000Y-105553000D03*
%TD*%
%TO.C,RV302*%
X126133000Y-107807000D03*
D11*
X122883000Y-106807000D03*
D10*
X126133000Y-105807000D03*
%TD*%
D12*
%TO.C,J102*%
X92145000Y-82560000D03*
D13*
X92145000Y-85100000D03*
X92145000Y-87640000D03*
X92145000Y-90180000D03*
%TD*%
D12*
%TO.C,J101*%
X94615000Y-95250000D03*
D13*
X97155000Y-95250000D03*
X94615000Y-97790000D03*
X97155000Y-97790000D03*
X94615000Y-100330000D03*
X97155000Y-100330000D03*
X94615000Y-102870000D03*
X97155000Y-102870000D03*
X94615000Y-105410000D03*
X97155000Y-105410000D03*
X94615000Y-107950000D03*
X97155000Y-107950000D03*
X94615000Y-110490000D03*
X97155000Y-110490000D03*
X94615000Y-113030000D03*
X97155000Y-113030000D03*
X94615000Y-115570000D03*
X97155000Y-115570000D03*
X94615000Y-118110000D03*
X97155000Y-118110000D03*
X94615000Y-120650000D03*
X97155000Y-120650000D03*
X94615000Y-123190000D03*
X97155000Y-123190000D03*
X94615000Y-125730000D03*
X97155000Y-125730000D03*
X94615000Y-128270000D03*
X97155000Y-128270000D03*
X94615000Y-130810000D03*
X97155000Y-130810000D03*
X94615000Y-133350000D03*
X97155000Y-133350000D03*
%TD*%
D14*
%TO.C,J201*%
X116840000Y-66040000D03*
D15*
X116840000Y-68580000D03*
X116840000Y-71120000D03*
X116840000Y-73660000D03*
X116840000Y-76200000D03*
X116840000Y-78740000D03*
X116840000Y-81280000D03*
X116840000Y-83820000D03*
X116840000Y-86360000D03*
X116840000Y-88900000D03*
X116840000Y-91440000D03*
X116840000Y-93980000D03*
X116840000Y-96520000D03*
X116840000Y-99060000D03*
X132080000Y-99060000D03*
X132080000Y-96520000D03*
X132080000Y-93980000D03*
X132080000Y-91440000D03*
X132080000Y-88900000D03*
X132080000Y-86360000D03*
X132080000Y-83820000D03*
X132080000Y-81280000D03*
X132080000Y-78740000D03*
X132080000Y-76200000D03*
X132080000Y-73660000D03*
X132080000Y-71120000D03*
X132080000Y-68580000D03*
X132080000Y-66040000D03*
%TD*%
M02*
