%FSLAX45Y45*%
G04 Gerber Fmt 4.5, Leading zero omitted, Abs format (unit mm)*
G04 Created by KiCad (PCBNEW (6.0.1)) date 2022-01-21 22:17:19*
%MOMM*%
%LPD*%
G01*
G04 APERTURE LIST*
%TA.AperFunction,Profile*%
%ADD10C,0.150000*%
%TD*%
%ADD11C,0.200000*%
%ADD12C,0.030000*%
%ADD13C,0.040000*%
%ADD14C,0.080000*%
%ADD15C,0.100000*%
G04 APERTURE END LIST*
D10*
X13500000Y-13500000D02*
X13500000Y-13600000D01*
X9200000Y-6400000D02*
X13400000Y-6400000D01*
X13500000Y-10400000D02*
X13500000Y-12500000D01*
X13500000Y-13600000D02*
X9200000Y-13600000D01*
X13500000Y-12500000D02*
X13500000Y-13500000D01*
X13500000Y-6400000D02*
X13500000Y-10400000D01*
X9200000Y-6400000D02*
X8900000Y-6400000D01*
X13400000Y-6400000D02*
X13500000Y-6400000D01*
X8900000Y-6400000D02*
X8900000Y-13600000D01*
X8900000Y-13600000D02*
X9200000Y-13600000D01*
D11*
D12*
X8999300Y-7083500D02*
X9029300Y-7113500D01*
X9029300Y-7083500D02*
X8999300Y-7113500D01*
X9021100Y-11408600D02*
X9051100Y-11438600D01*
X9051100Y-11408600D02*
X9021100Y-11438600D01*
X9021100Y-11662600D02*
X9051100Y-11692600D01*
X9051100Y-11662600D02*
X9021100Y-11692600D01*
X9021100Y-11929300D02*
X9051100Y-11959300D01*
X9051100Y-11929300D02*
X9021100Y-11959300D01*
X9021100Y-12939000D02*
X9051100Y-12969000D01*
X9051100Y-12939000D02*
X9021100Y-12969000D01*
X9021100Y-13199300D02*
X9051100Y-13229300D01*
X9051100Y-13199300D02*
X9021100Y-13229300D01*
X9027400Y-10653000D02*
X9057400Y-10683000D01*
X9057400Y-10653000D02*
X9027400Y-10683000D01*
X9037400Y-7172400D02*
X9067400Y-7202400D01*
X9067400Y-7172400D02*
X9037400Y-7202400D01*
X9051510Y-7820900D02*
X9081510Y-7850900D01*
X9081510Y-7820900D02*
X9051510Y-7850900D01*
X9103600Y-10411700D02*
X9133600Y-10441700D01*
X9133600Y-10411700D02*
X9103600Y-10441700D01*
X9130690Y-10145000D02*
X9160690Y-10175000D01*
X9160690Y-10145000D02*
X9130690Y-10175000D01*
X9141700Y-7820900D02*
X9171700Y-7850900D01*
X9171700Y-7820900D02*
X9141700Y-7850900D01*
X9179800Y-11669000D02*
X9209800Y-11699000D01*
X9209800Y-11669000D02*
X9179800Y-11699000D01*
X9179800Y-11923000D02*
X9209800Y-11953000D01*
X9209800Y-11923000D02*
X9179800Y-11953000D01*
X9221882Y-10146001D02*
X9251882Y-10176001D01*
X9251882Y-10146001D02*
X9221882Y-10176001D01*
X9243300Y-10907000D02*
X9273300Y-10937000D01*
X9273300Y-10907000D02*
X9243300Y-10937000D01*
X9253300Y-7540700D02*
X9283300Y-7570700D01*
X9283300Y-7540700D02*
X9253300Y-7570700D01*
X9344900Y-10907000D02*
X9374900Y-10937000D01*
X9374900Y-10907000D02*
X9344900Y-10937000D01*
X9418400Y-7553400D02*
X9448400Y-7583400D01*
X9448400Y-7553400D02*
X9418400Y-7583400D01*
X9535400Y-7554200D02*
X9565400Y-7584200D01*
X9565400Y-7554200D02*
X9535400Y-7584200D01*
X9573500Y-12431000D02*
X9603500Y-12461000D01*
X9603500Y-12431000D02*
X9573500Y-12461000D01*
X9836229Y-12333700D02*
X9866229Y-12363700D01*
X9866229Y-12333700D02*
X9836229Y-12363700D01*
X9852900Y-12126200D02*
X9882900Y-12156200D01*
X9882900Y-12126200D02*
X9852900Y-12156200D01*
X9852900Y-12240500D02*
X9882900Y-12270500D01*
X9882900Y-12240500D02*
X9852900Y-12270500D01*
X9852900Y-12621500D02*
X9882900Y-12651500D01*
X9882900Y-12621500D02*
X9852900Y-12651500D01*
X9865600Y-10411700D02*
X9895600Y-10441700D01*
X9895600Y-10411700D02*
X9865600Y-10441700D01*
X9865600Y-12481800D02*
X9895600Y-12511800D01*
X9895600Y-12481800D02*
X9865600Y-12511800D01*
X9865600Y-13193000D02*
X9895600Y-13223000D01*
X9895600Y-13193000D02*
X9865600Y-13223000D01*
X9865600Y-13294600D02*
X9895600Y-13324600D01*
X9895600Y-13294600D02*
X9865600Y-13324600D01*
X9967200Y-11948400D02*
X9997200Y-11978400D01*
X9997200Y-11948400D02*
X9967200Y-11978400D01*
X9979900Y-10538700D02*
X10009900Y-10568700D01*
X10009900Y-10538700D02*
X9979900Y-10568700D01*
X10030700Y-10246600D02*
X10060700Y-10276600D01*
X10060700Y-10246600D02*
X10030700Y-10276600D01*
X10043400Y-7554200D02*
X10073400Y-7584200D01*
X10073400Y-7554200D02*
X10043400Y-7584200D01*
X10056100Y-10462500D02*
X10086100Y-10492500D01*
X10086100Y-10462500D02*
X10056100Y-10492500D01*
X10132300Y-10386300D02*
X10162300Y-10416300D01*
X10162300Y-10386300D02*
X10132300Y-10416300D01*
X10132300Y-7859000D02*
X10162300Y-7889000D01*
X10162300Y-7859000D02*
X10132300Y-7889000D01*
X10145000Y-11326100D02*
X10175000Y-11356100D01*
X10175000Y-11326100D02*
X10145000Y-11356100D01*
X10145000Y-12418300D02*
X10175000Y-12448300D01*
X10175000Y-12418300D02*
X10145000Y-12448300D01*
X10145000Y-12545300D02*
X10175000Y-12575300D01*
X10175000Y-12545300D02*
X10145000Y-12575300D01*
X10145000Y-13510500D02*
X10175000Y-13540500D01*
X10175000Y-13510500D02*
X10145000Y-13540500D01*
X10170400Y-7351000D02*
X10200400Y-7381000D01*
X10200400Y-7351000D02*
X10170400Y-7381000D01*
X10208500Y-10310100D02*
X10238500Y-10340100D01*
X10238500Y-10310100D02*
X10208500Y-10340100D01*
X10221200Y-11415000D02*
X10251200Y-11445000D01*
X10251200Y-11415000D02*
X10221200Y-11445000D01*
X10221200Y-12621500D02*
X10251200Y-12651500D01*
X10251200Y-12621500D02*
X10221200Y-12651500D01*
X10221200Y-12723100D02*
X10251200Y-12753100D01*
X10251200Y-12723100D02*
X10221200Y-12753100D01*
X10233900Y-7859000D02*
X10263900Y-7889000D01*
X10263900Y-7859000D02*
X10233900Y-7889000D01*
X10246600Y-11313400D02*
X10276600Y-11343400D01*
X10276600Y-11313400D02*
X10246600Y-11343400D01*
X10259300Y-13243800D02*
X10289300Y-13273800D01*
X10289300Y-13243800D02*
X10259300Y-13273800D01*
X10272000Y-12964400D02*
X10302000Y-12994400D01*
X10302000Y-12964400D02*
X10272000Y-12994400D01*
X10284700Y-10233900D02*
X10314700Y-10263900D01*
X10314700Y-10233900D02*
X10284700Y-10263900D01*
X10297400Y-12864490D02*
X10327400Y-12894490D01*
X10327400Y-12864490D02*
X10297400Y-12894490D01*
X10310100Y-7376400D02*
X10340100Y-7406400D01*
X10340100Y-7376400D02*
X10310100Y-7406400D01*
X10310100Y-7478000D02*
X10340100Y-7508000D01*
X10340100Y-7478000D02*
X10310100Y-7508000D01*
X10310100Y-7579600D02*
X10340100Y-7609600D01*
X10340100Y-7579600D02*
X10310100Y-7609600D01*
X10335500Y-11694400D02*
X10365500Y-11724400D01*
X10365500Y-11694400D02*
X10335500Y-11724400D01*
X10358200Y-10512500D02*
X10388200Y-10542500D01*
X10388200Y-10512500D02*
X10358200Y-10542500D01*
X10360900Y-10310100D02*
X10390900Y-10340100D01*
X10390900Y-10310100D02*
X10360900Y-10340100D01*
X10360900Y-13240591D02*
X10390900Y-13270591D01*
X10390900Y-13240591D02*
X10360900Y-13270591D01*
X10373600Y-11605500D02*
X10403600Y-11635500D01*
X10403600Y-11605500D02*
X10373600Y-11635500D01*
X10373600Y-12939009D02*
X10403600Y-12969009D01*
X10403600Y-12939009D02*
X10373600Y-12969009D01*
X10386300Y-11846800D02*
X10416300Y-11876800D01*
X10416300Y-11846800D02*
X10386300Y-11876800D01*
X10411700Y-13383500D02*
X10441700Y-13413500D01*
X10441700Y-13383500D02*
X10411700Y-13413500D01*
X10411700Y-13485100D02*
X10441700Y-13515100D01*
X10441700Y-13485100D02*
X10411700Y-13515100D01*
X10564100Y-10538700D02*
X10594100Y-10568700D01*
X10594100Y-10538700D02*
X10564100Y-10568700D01*
X10564100Y-10640300D02*
X10594100Y-10670300D01*
X10594100Y-10640300D02*
X10564100Y-10670300D01*
X10564100Y-11237200D02*
X10594100Y-11267200D01*
X10594100Y-11237200D02*
X10564100Y-11267200D01*
X10602200Y-10360900D02*
X10632200Y-10390900D01*
X10632200Y-10360900D02*
X10602200Y-10390900D01*
X10614900Y-13447000D02*
X10644900Y-13477000D01*
X10644900Y-13447000D02*
X10614900Y-13477000D01*
X10665700Y-10792700D02*
X10695700Y-10822700D01*
X10695700Y-10792700D02*
X10665700Y-10822700D01*
X10703800Y-10881600D02*
X10733800Y-10911600D01*
X10733800Y-10881600D02*
X10703800Y-10911600D01*
X10716500Y-10379950D02*
X10746500Y-10409950D01*
X10746500Y-10379950D02*
X10716500Y-10409950D01*
X10729200Y-11897600D02*
X10759200Y-11927600D01*
X10759200Y-11897600D02*
X10729200Y-11927600D01*
X10729200Y-12164300D02*
X10759200Y-12194300D01*
X10759200Y-12164300D02*
X10729200Y-12194300D01*
X10741900Y-12265900D02*
X10771900Y-12295900D01*
X10771900Y-12265900D02*
X10741900Y-12295900D01*
X10780000Y-11821400D02*
X10810000Y-11851400D01*
X10810000Y-11821400D02*
X10780000Y-11851400D01*
X10868900Y-12824700D02*
X10898900Y-12854700D01*
X10898900Y-12824700D02*
X10868900Y-12854700D01*
X10881600Y-12011900D02*
X10911600Y-12041900D01*
X10911600Y-12011900D02*
X10881600Y-12041900D01*
X10919700Y-12189700D02*
X10949700Y-12219700D01*
X10949700Y-12189700D02*
X10919700Y-12219700D01*
X10919700Y-12304000D02*
X10949700Y-12334000D01*
X10949700Y-12304000D02*
X10919700Y-12334000D01*
X10932400Y-11935700D02*
X10962400Y-11965700D01*
X10962400Y-11935700D02*
X10932400Y-11965700D01*
X11049875Y-10300575D02*
X11079875Y-10330575D01*
X11079875Y-10300575D02*
X11049875Y-10330575D01*
X11084800Y-13434300D02*
X11114800Y-13464300D01*
X11114800Y-13434300D02*
X11084800Y-13464300D01*
X11199690Y-10576800D02*
X11229690Y-10606800D01*
X11229690Y-10576800D02*
X11199690Y-10606800D01*
X11211745Y-10779616D02*
X11241745Y-10809616D01*
X11241745Y-10779616D02*
X11211745Y-10809616D01*
X11211800Y-10297400D02*
X11241800Y-10327400D01*
X11241800Y-10297400D02*
X11211800Y-10327400D01*
X11224500Y-10868900D02*
X11254500Y-10898900D01*
X11254500Y-10868900D02*
X11224500Y-10898900D01*
X11237200Y-12189700D02*
X11267200Y-12219700D01*
X11267200Y-12189700D02*
X11237200Y-12219700D01*
X11237200Y-12316700D02*
X11267200Y-12346700D01*
X11267200Y-12316700D02*
X11237200Y-12346700D01*
X11237200Y-12824700D02*
X11267200Y-12854700D01*
X11267200Y-12824700D02*
X11237200Y-12854700D01*
X11237200Y-13205700D02*
X11267200Y-13235700D01*
X11267200Y-13205700D02*
X11237200Y-13235700D01*
X11249900Y-12621500D02*
X11279900Y-12651500D01*
X11279900Y-12621500D02*
X11249900Y-12651500D01*
X11288000Y-12900900D02*
X11318000Y-12930900D01*
X11318000Y-12900900D02*
X11288000Y-12930900D01*
X11300700Y-12480110D02*
X11330700Y-12510110D01*
X11330700Y-12480110D02*
X11300700Y-12510110D01*
X11326100Y-12113500D02*
X11356100Y-12143500D01*
X11356100Y-12113500D02*
X11326100Y-12143500D01*
X11351500Y-12329400D02*
X11381500Y-12359400D01*
X11381500Y-12329400D02*
X11351500Y-12359400D01*
X11364200Y-11745200D02*
X11394200Y-11775200D01*
X11394200Y-11745200D02*
X11364200Y-11775200D01*
X11364200Y-12621500D02*
X11394200Y-12651500D01*
X11394200Y-12621500D02*
X11364200Y-12651500D01*
X11364200Y-12975810D02*
X11394200Y-13005810D01*
X11394200Y-12975810D02*
X11364200Y-13005810D01*
X11364200Y-13066000D02*
X11394200Y-13096000D01*
X11394200Y-13066000D02*
X11364200Y-13096000D01*
X11402300Y-10995900D02*
X11432300Y-11025900D01*
X11432300Y-10995900D02*
X11402300Y-11025900D01*
X11453100Y-12545300D02*
X11483100Y-12575300D01*
X11483100Y-12545300D02*
X11453100Y-12575300D01*
X11503900Y-10995900D02*
X11533900Y-11025900D01*
X11533900Y-10995900D02*
X11503900Y-11025900D01*
X11516600Y-10602200D02*
X11546600Y-10632200D01*
X11546600Y-10602200D02*
X11516600Y-10632200D01*
X11529300Y-12621500D02*
X11559300Y-12651500D01*
X11559300Y-12621500D02*
X11529300Y-12651500D01*
X11580100Y-11338800D02*
X11610100Y-11368800D01*
X11610100Y-11338800D02*
X11580100Y-11368800D01*
X11694400Y-10283410D02*
X11724400Y-10313410D01*
X11724400Y-10283410D02*
X11694400Y-10313410D01*
X11694400Y-10373600D02*
X11724400Y-10403600D01*
X11724400Y-10373600D02*
X11694400Y-10403600D01*
X11783300Y-6728700D02*
X11813300Y-6758700D01*
X11813300Y-6728700D02*
X11783300Y-6758700D01*
X11834100Y-12278600D02*
X11864100Y-12308600D01*
X11864100Y-12278600D02*
X11834100Y-12308600D01*
X11834100Y-12900900D02*
X11864100Y-12930900D01*
X11864100Y-12900900D02*
X11834100Y-12930900D01*
X11859500Y-6817600D02*
X11889500Y-6847600D01*
X11889500Y-6817600D02*
X11859500Y-6847600D01*
X11859500Y-7605000D02*
X11889500Y-7635000D01*
X11889500Y-7605000D02*
X11859500Y-7635000D01*
X11884900Y-7719300D02*
X11914900Y-7749300D01*
X11914900Y-7719300D02*
X11884900Y-7749300D01*
X11910300Y-9446500D02*
X11940300Y-9476500D01*
X11940300Y-9446500D02*
X11910300Y-9476500D01*
X11923000Y-9586200D02*
X11953000Y-9616200D01*
X11953000Y-9586200D02*
X11923000Y-9616200D01*
X11935700Y-6957300D02*
X11965700Y-6987300D01*
X11965700Y-6957300D02*
X11935700Y-6987300D01*
X11935700Y-7427200D02*
X11965700Y-7457200D01*
X11965700Y-7427200D02*
X11935700Y-7457200D01*
X11948400Y-7554200D02*
X11978400Y-7584200D01*
X11978400Y-7554200D02*
X11948400Y-7584200D01*
X11948400Y-10919700D02*
X11978400Y-10949700D01*
X11978400Y-10919700D02*
X11948400Y-10949700D01*
X11949414Y-10740548D02*
X11979414Y-10770548D01*
X11979414Y-10740548D02*
X11949414Y-10770548D01*
X11986500Y-7719300D02*
X12016500Y-7749300D01*
X12016500Y-7719300D02*
X11986500Y-7749300D01*
X11986500Y-8925800D02*
X12016500Y-8955800D01*
X12016500Y-8925800D02*
X11986500Y-8955800D01*
X11986500Y-9027400D02*
X12016500Y-9057400D01*
X12016500Y-9027400D02*
X11986500Y-9057400D01*
X12011900Y-7035146D02*
X12041900Y-7065146D01*
X12041900Y-7035146D02*
X12011900Y-7065146D01*
X12024600Y-9179800D02*
X12054600Y-9209800D01*
X12054600Y-9179800D02*
X12024600Y-9209800D01*
X12062700Y-10373600D02*
X12092700Y-10403600D01*
X12092700Y-10373600D02*
X12062700Y-10403600D01*
X12099154Y-9232246D02*
X12129154Y-9262246D01*
X12129154Y-9232246D02*
X12099154Y-9262246D01*
X12115190Y-10907000D02*
X12145190Y-10937000D01*
X12145190Y-10907000D02*
X12115190Y-10937000D01*
X12121808Y-11013401D02*
X12151808Y-11043401D01*
X12151808Y-11013401D02*
X12121808Y-11043401D01*
X12126200Y-9827500D02*
X12156200Y-9857500D01*
X12156200Y-9827500D02*
X12126200Y-9857500D01*
X12126200Y-9941800D02*
X12156200Y-9971800D01*
X12156200Y-9941800D02*
X12126200Y-9971800D01*
X12126200Y-10043400D02*
X12156200Y-10073400D01*
X12156200Y-10043400D02*
X12126200Y-10073400D01*
X12138900Y-10665700D02*
X12168900Y-10695700D01*
X12168900Y-10665700D02*
X12138900Y-10695700D01*
X12138900Y-10792700D02*
X12168900Y-10822700D01*
X12168900Y-10792700D02*
X12138900Y-10822700D01*
X12138900Y-12583400D02*
X12168900Y-12613400D01*
X12168900Y-12583400D02*
X12138900Y-12613400D01*
X12189700Y-9484600D02*
X12219700Y-9514600D01*
X12219700Y-9484600D02*
X12189700Y-9514600D01*
X12227800Y-6550900D02*
X12257800Y-6580900D01*
X12257800Y-6550900D02*
X12227800Y-6580900D01*
X12237800Y-12735000D02*
X12267800Y-12765000D01*
X12267800Y-12735000D02*
X12237800Y-12765000D01*
X12265900Y-7630400D02*
X12295900Y-7660400D01*
X12295900Y-7630400D02*
X12265900Y-7660400D01*
X12291300Y-7846300D02*
X12321300Y-7876300D01*
X12321300Y-7846300D02*
X12291300Y-7876300D01*
X12291300Y-8087600D02*
X12321300Y-8117600D01*
X12321300Y-8087600D02*
X12291300Y-8117600D01*
X12304000Y-9129000D02*
X12334000Y-9159000D01*
X12334000Y-9129000D02*
X12304000Y-9159000D01*
X12339400Y-12735800D02*
X12369400Y-12765800D01*
X12369400Y-12735800D02*
X12339400Y-12765800D01*
X12342100Y-7478000D02*
X12372100Y-7508000D01*
X12372100Y-7478000D02*
X12342100Y-7508000D01*
X12366199Y-7669853D02*
X12396199Y-7699853D01*
X12396199Y-7669853D02*
X12366199Y-7699853D01*
X12367500Y-7566900D02*
X12397500Y-7596900D01*
X12397500Y-7566900D02*
X12367500Y-7596900D01*
X12367500Y-9827500D02*
X12397500Y-9857500D01*
X12397500Y-9827500D02*
X12367500Y-9857500D01*
X12367500Y-9929100D02*
X12397500Y-9959100D01*
X12397500Y-9929100D02*
X12367500Y-9959100D01*
X12380200Y-9725900D02*
X12410200Y-9755900D01*
X12410200Y-9725900D02*
X12380200Y-9755900D01*
X12405600Y-9129000D02*
X12435600Y-9159000D01*
X12435600Y-9129000D02*
X12405600Y-9159000D01*
X12431000Y-9649700D02*
X12461000Y-9679700D01*
X12461000Y-9649700D02*
X12431000Y-9679700D01*
X12432646Y-9546454D02*
X12462646Y-9576454D01*
X12462646Y-9546454D02*
X12432646Y-9576454D01*
X12521546Y-8784454D02*
X12551546Y-8814454D01*
X12551546Y-8784454D02*
X12521546Y-8814454D01*
X12532600Y-8405100D02*
X12562600Y-8435100D01*
X12562600Y-8405100D02*
X12532600Y-8435100D01*
X12532600Y-13143890D02*
X12562600Y-13173890D01*
X12562600Y-13143890D02*
X12532600Y-13173890D01*
X12538450Y-6772650D02*
X12568450Y-6802650D01*
X12568450Y-6772650D02*
X12538450Y-6802650D01*
X12570700Y-6550900D02*
X12600700Y-6580900D01*
X12600700Y-6550900D02*
X12570700Y-6580900D01*
X12621500Y-13078700D02*
X12651500Y-13108700D01*
X12651500Y-13078700D02*
X12621500Y-13108700D01*
X12621500Y-13205700D02*
X12651500Y-13235700D01*
X12651500Y-13205700D02*
X12621500Y-13235700D01*
X12621500Y-13332700D02*
X12651500Y-13362700D01*
X12651500Y-13332700D02*
X12621500Y-13362700D01*
X12634200Y-7592300D02*
X12664200Y-7622300D01*
X12664200Y-7592300D02*
X12634200Y-7622300D01*
X12634200Y-7833600D02*
X12664200Y-7863600D01*
X12664200Y-7833600D02*
X12634200Y-7863600D01*
X12634200Y-8379700D02*
X12664200Y-8409700D01*
X12664200Y-8379700D02*
X12634200Y-8409700D01*
X12646900Y-11338800D02*
X12676900Y-11368800D01*
X12676900Y-11338800D02*
X12646900Y-11368800D01*
X12710400Y-7655800D02*
X12740400Y-7685800D01*
X12740400Y-7655800D02*
X12710400Y-7685800D01*
X12735800Y-7820900D02*
X12765800Y-7850900D01*
X12765800Y-7820900D02*
X12735800Y-7850900D01*
X12748500Y-10513300D02*
X12778500Y-10543300D01*
X12778500Y-10513300D02*
X12748500Y-10543300D01*
X12748500Y-10767300D02*
X12778500Y-10797300D01*
X12778500Y-10767300D02*
X12748500Y-10797300D01*
X12761200Y-10640300D02*
X12791200Y-10670300D01*
X12791200Y-10640300D02*
X12761200Y-10670300D01*
X12873150Y-8060344D02*
X12903150Y-8090344D01*
X12903150Y-8060344D02*
X12873150Y-8090344D01*
X12880285Y-7036930D02*
X12910285Y-7066930D01*
X12910285Y-7036930D02*
X12880285Y-7066930D01*
X12880285Y-7290930D02*
X12910285Y-7320930D01*
X12910285Y-7290930D02*
X12880285Y-7320930D01*
X12880285Y-8306930D02*
X12910285Y-8336930D01*
X12910285Y-8306930D02*
X12880285Y-8336930D01*
X12880285Y-8560930D02*
X12910285Y-8590930D01*
X12910285Y-8560930D02*
X12880285Y-8590930D01*
X12887239Y-6523910D02*
X12917239Y-6553910D01*
X12917239Y-6523910D02*
X12887239Y-6553910D01*
X12887239Y-6777910D02*
X12917239Y-6807910D01*
X12917239Y-6777910D02*
X12887239Y-6807910D01*
X12887239Y-7539910D02*
X12917239Y-7569910D01*
X12917239Y-7539910D02*
X12887239Y-7569910D01*
X12888200Y-8786100D02*
X12918200Y-8816100D01*
X12918200Y-8786100D02*
X12888200Y-8816100D01*
X12888200Y-9040100D02*
X12918200Y-9070100D01*
X12918200Y-9040100D02*
X12888200Y-9070100D01*
X12888200Y-9294100D02*
X12918200Y-9324100D01*
X12918200Y-9294100D02*
X12888200Y-9324100D01*
X12888200Y-9560800D02*
X12918200Y-9590800D01*
X12918200Y-9560800D02*
X12888200Y-9590800D01*
X12888200Y-9814800D02*
X12918200Y-9844800D01*
X12918200Y-9814800D02*
X12888200Y-9844800D01*
X12888815Y-9713274D02*
X12918815Y-9743274D01*
X12918815Y-9713274D02*
X12888815Y-9743274D01*
X12898777Y-9967200D02*
X12928777Y-9997200D01*
X12928777Y-9967200D02*
X12898777Y-9997200D01*
X12938587Y-12633962D02*
X12968587Y-12663962D01*
X12968587Y-12633962D02*
X12938587Y-12663962D01*
X12951700Y-12773900D02*
X12981700Y-12803900D01*
X12981700Y-12773900D02*
X12951700Y-12803900D01*
X12964400Y-10043400D02*
X12994400Y-10073400D01*
X12994400Y-10043400D02*
X12964400Y-10073400D01*
X13027900Y-10157700D02*
X13057900Y-10187700D01*
X13057900Y-10157700D02*
X13027900Y-10187700D01*
X13053300Y-12812000D02*
X13083300Y-12842000D01*
X13083300Y-12812000D02*
X13053300Y-12842000D01*
X13104100Y-10221200D02*
X13134100Y-10251200D01*
X13134100Y-10221200D02*
X13104100Y-10251200D01*
X13104100Y-11859500D02*
X13134100Y-11889500D01*
X13134100Y-11859500D02*
X13104100Y-11889500D01*
X13104100Y-12011900D02*
X13134100Y-12041900D01*
X13134100Y-12011900D02*
X13104100Y-12041900D01*
X13104100Y-12164300D02*
X13134100Y-12194300D01*
X13134100Y-12164300D02*
X13104100Y-12194300D01*
X13104100Y-12316700D02*
X13134100Y-12346700D01*
X13134100Y-12316700D02*
X13104100Y-12346700D01*
X13104100Y-12469100D02*
X13134100Y-12499100D01*
X13134100Y-12469100D02*
X13104100Y-12499100D01*
X13104100Y-12621500D02*
X13134100Y-12651500D01*
X13134100Y-12621500D02*
X13104100Y-12651500D01*
X13154900Y-12812000D02*
X13184900Y-12842000D01*
X13184900Y-12812000D02*
X13154900Y-12842000D01*
X13281900Y-11935700D02*
X13311900Y-11965700D01*
X13311900Y-11935700D02*
X13281900Y-11965700D01*
X13281900Y-12088100D02*
X13311900Y-12118100D01*
X13311900Y-12088100D02*
X13281900Y-12118100D01*
X13281900Y-12240500D02*
X13311900Y-12270500D01*
X13311900Y-12240500D02*
X13281900Y-12270500D01*
X13281900Y-12392900D02*
X13311900Y-12422900D01*
X13311900Y-12392900D02*
X13281900Y-12422900D01*
X13281900Y-12545300D02*
X13311900Y-12575300D01*
X13311900Y-12545300D02*
X13281900Y-12575300D01*
X13281900Y-12697700D02*
X13311900Y-12727700D01*
X13311900Y-12697700D02*
X13281900Y-12727700D01*
D13*
X10243500Y-9385300D02*
G75*
G03*
X10243500Y-9385300I-20000J0D01*
G01*
X10357800Y-9499600D02*
G75*
G03*
X10357800Y-9499600I-20000J0D01*
G01*
X10357800Y-9740900D02*
G75*
G03*
X10357800Y-9740900I-20000J0D01*
G01*
X10370500Y-9182100D02*
G75*
G03*
X10370500Y-9182100I-20000J0D01*
G01*
X10370500Y-9282610D02*
G75*
G03*
X10370500Y-9282610I-20000J0D01*
G01*
X10383200Y-9842500D02*
G75*
G03*
X10383200Y-9842500I-20000J0D01*
G01*
X10472100Y-9283700D02*
G75*
G03*
X10472100Y-9283700I-20000J0D01*
G01*
X10484800Y-9842500D02*
G75*
G03*
X10484800Y-9842500I-20000J0D01*
G01*
X10586400Y-9842500D02*
G75*
G03*
X10586400Y-9842500I-20000J0D01*
G01*
X10751500Y-13182600D02*
G75*
G03*
X10751500Y-13182600I-20000J0D01*
G01*
X10903900Y-13182600D02*
G75*
G03*
X10903900Y-13182600I-20000J0D01*
G01*
X10942000Y-9525000D02*
G75*
G03*
X10942000Y-9525000I-20000J0D01*
G01*
X10942000Y-9702800D02*
G75*
G03*
X10942000Y-9702800I-20000J0D01*
G01*
X10992800Y-9613900D02*
G75*
G03*
X10992800Y-9613900I-20000J0D01*
G01*
X11043600Y-9525000D02*
G75*
G03*
X11043600Y-9525000I-20000J0D01*
G01*
X11043600Y-9702800D02*
G75*
G03*
X11043600Y-9702800I-20000J0D01*
G01*
X11094400Y-9613900D02*
G75*
G03*
X11094400Y-9613900I-20000J0D01*
G01*
X11145200Y-9525000D02*
G75*
G03*
X11145200Y-9525000I-20000J0D01*
G01*
X11145200Y-9702800D02*
G75*
G03*
X11145200Y-9702800I-20000J0D01*
G01*
X11196000Y-9613900D02*
G75*
G03*
X11196000Y-9613900I-20000J0D01*
G01*
X11208700Y-9334500D02*
G75*
G03*
X11208700Y-9334500I-20000J0D01*
G01*
X11208700Y-9893300D02*
G75*
G03*
X11208700Y-9893300I-20000J0D01*
G01*
X11310300Y-9334500D02*
G75*
G03*
X11310300Y-9334500I-20000J0D01*
G01*
X11310300Y-9893300D02*
G75*
G03*
X11310300Y-9893300I-20000J0D01*
G01*
X11411900Y-9334500D02*
G75*
G03*
X11411900Y-9334500I-20000J0D01*
G01*
X11411900Y-9893300D02*
G75*
G03*
X11411900Y-9893300I-20000J0D01*
G01*
X11513500Y-9563100D02*
G75*
G03*
X11513500Y-9563100I-20000J0D01*
G01*
X11513500Y-9664700D02*
G75*
G03*
X11513500Y-9664700I-20000J0D01*
G01*
D14*
X11684000Y-6564000D02*
X11684000Y-6644000D01*
X11644000Y-6604000D02*
X11724000Y-6604000D01*
X11684000Y-6818000D02*
X11684000Y-6898000D01*
X11644000Y-6858000D02*
X11724000Y-6858000D01*
X11684000Y-7072000D02*
X11684000Y-7152000D01*
X11644000Y-7112000D02*
X11724000Y-7112000D01*
X11684000Y-7326000D02*
X11684000Y-7406000D01*
X11644000Y-7366000D02*
X11724000Y-7366000D01*
X11684000Y-7580000D02*
X11684000Y-7660000D01*
X11644000Y-7620000D02*
X11724000Y-7620000D01*
X11684000Y-7834000D02*
X11684000Y-7914000D01*
X11644000Y-7874000D02*
X11724000Y-7874000D01*
X11684000Y-8088000D02*
X11684000Y-8168000D01*
X11644000Y-8128000D02*
X11724000Y-8128000D01*
X11684000Y-8342000D02*
X11684000Y-8422000D01*
X11644000Y-8382000D02*
X11724000Y-8382000D01*
X11684000Y-8596000D02*
X11684000Y-8676000D01*
X11644000Y-8636000D02*
X11724000Y-8636000D01*
X11684000Y-8850000D02*
X11684000Y-8930000D01*
X11644000Y-8890000D02*
X11724000Y-8890000D01*
X11684000Y-9104000D02*
X11684000Y-9184000D01*
X11644000Y-9144000D02*
X11724000Y-9144000D01*
X11684000Y-9358000D02*
X11684000Y-9438000D01*
X11644000Y-9398000D02*
X11724000Y-9398000D01*
X11684000Y-9612000D02*
X11684000Y-9692000D01*
X11644000Y-9652000D02*
X11724000Y-9652000D01*
X11684000Y-9866000D02*
X11684000Y-9946000D01*
X11644000Y-9906000D02*
X11724000Y-9906000D01*
X13208000Y-6564000D02*
X13208000Y-6644000D01*
X13168000Y-6604000D02*
X13248000Y-6604000D01*
X13208000Y-6818000D02*
X13208000Y-6898000D01*
X13168000Y-6858000D02*
X13248000Y-6858000D01*
X13208000Y-7072000D02*
X13208000Y-7152000D01*
X13168000Y-7112000D02*
X13248000Y-7112000D01*
X13208000Y-7326000D02*
X13208000Y-7406000D01*
X13168000Y-7366000D02*
X13248000Y-7366000D01*
X13208000Y-7580000D02*
X13208000Y-7660000D01*
X13168000Y-7620000D02*
X13248000Y-7620000D01*
X13208000Y-7834000D02*
X13208000Y-7914000D01*
X13168000Y-7874000D02*
X13248000Y-7874000D01*
X13208000Y-8088000D02*
X13208000Y-8168000D01*
X13168000Y-8128000D02*
X13248000Y-8128000D01*
X13208000Y-8342000D02*
X13208000Y-8422000D01*
X13168000Y-8382000D02*
X13248000Y-8382000D01*
X13208000Y-8596000D02*
X13208000Y-8676000D01*
X13168000Y-8636000D02*
X13248000Y-8636000D01*
X13208000Y-8850000D02*
X13208000Y-8930000D01*
X13168000Y-8890000D02*
X13248000Y-8890000D01*
X13208000Y-9104000D02*
X13208000Y-9184000D01*
X13168000Y-9144000D02*
X13248000Y-9144000D01*
X13208000Y-9358000D02*
X13208000Y-9438000D01*
X13168000Y-9398000D02*
X13248000Y-9398000D01*
X13208000Y-9612000D02*
X13208000Y-9692000D01*
X13168000Y-9652000D02*
X13248000Y-9652000D01*
X13208000Y-9866000D02*
X13208000Y-9946000D01*
X13168000Y-9906000D02*
X13248000Y-9906000D01*
D15*
X9249856Y-8291356D02*
X9249856Y-8220644D01*
X9179144Y-8220644D01*
X9179144Y-8291356D01*
X9249856Y-8291356D01*
X9249856Y-8545356D02*
X9249856Y-8474644D01*
X9179144Y-8474644D01*
X9179144Y-8545356D01*
X9249856Y-8545356D01*
X9249856Y-8799356D02*
X9249856Y-8728644D01*
X9179144Y-8728644D01*
X9179144Y-8799356D01*
X9249856Y-8799356D01*
X9249856Y-9053356D02*
X9249856Y-8982644D01*
X9179144Y-8982644D01*
X9179144Y-9053356D01*
X9249856Y-9053356D01*
X9496856Y-9560356D02*
X9496856Y-9489644D01*
X9426144Y-9489644D01*
X9426144Y-9560356D01*
X9496856Y-9560356D01*
X9496856Y-9814356D02*
X9496856Y-9743644D01*
X9426144Y-9743644D01*
X9426144Y-9814356D01*
X9496856Y-9814356D01*
X9496856Y-10068356D02*
X9496856Y-9997644D01*
X9426144Y-9997644D01*
X9426144Y-10068356D01*
X9496856Y-10068356D01*
X9496856Y-10322356D02*
X9496856Y-10251644D01*
X9426144Y-10251644D01*
X9426144Y-10322356D01*
X9496856Y-10322356D01*
X9496856Y-10576356D02*
X9496856Y-10505644D01*
X9426144Y-10505644D01*
X9426144Y-10576356D01*
X9496856Y-10576356D01*
X9496856Y-10830356D02*
X9496856Y-10759644D01*
X9426144Y-10759644D01*
X9426144Y-10830356D01*
X9496856Y-10830356D01*
X9496856Y-11084356D02*
X9496856Y-11013644D01*
X9426144Y-11013644D01*
X9426144Y-11084356D01*
X9496856Y-11084356D01*
X9496856Y-11338356D02*
X9496856Y-11267644D01*
X9426144Y-11267644D01*
X9426144Y-11338356D01*
X9496856Y-11338356D01*
X9496856Y-11592356D02*
X9496856Y-11521644D01*
X9426144Y-11521644D01*
X9426144Y-11592356D01*
X9496856Y-11592356D01*
X9496856Y-11846356D02*
X9496856Y-11775644D01*
X9426144Y-11775644D01*
X9426144Y-11846356D01*
X9496856Y-11846356D01*
X9496856Y-12100356D02*
X9496856Y-12029644D01*
X9426144Y-12029644D01*
X9426144Y-12100356D01*
X9496856Y-12100356D01*
X9496856Y-12354356D02*
X9496856Y-12283644D01*
X9426144Y-12283644D01*
X9426144Y-12354356D01*
X9496856Y-12354356D01*
X9496856Y-12608356D02*
X9496856Y-12537644D01*
X9426144Y-12537644D01*
X9426144Y-12608356D01*
X9496856Y-12608356D01*
X9496856Y-12862356D02*
X9496856Y-12791644D01*
X9426144Y-12791644D01*
X9426144Y-12862356D01*
X9496856Y-12862356D01*
X9496856Y-13116356D02*
X9496856Y-13045644D01*
X9426144Y-13045644D01*
X9426144Y-13116356D01*
X9496856Y-13116356D01*
X9496856Y-13370356D02*
X9496856Y-13299644D01*
X9426144Y-13299644D01*
X9426144Y-13370356D01*
X9496856Y-13370356D01*
X9750856Y-9560356D02*
X9750856Y-9489644D01*
X9680144Y-9489644D01*
X9680144Y-9560356D01*
X9750856Y-9560356D01*
X9750856Y-9814356D02*
X9750856Y-9743644D01*
X9680144Y-9743644D01*
X9680144Y-9814356D01*
X9750856Y-9814356D01*
X9750856Y-10068356D02*
X9750856Y-9997644D01*
X9680144Y-9997644D01*
X9680144Y-10068356D01*
X9750856Y-10068356D01*
X9750856Y-10322356D02*
X9750856Y-10251644D01*
X9680144Y-10251644D01*
X9680144Y-10322356D01*
X9750856Y-10322356D01*
X9750856Y-10576356D02*
X9750856Y-10505644D01*
X9680144Y-10505644D01*
X9680144Y-10576356D01*
X9750856Y-10576356D01*
X9750856Y-10830356D02*
X9750856Y-10759644D01*
X9680144Y-10759644D01*
X9680144Y-10830356D01*
X9750856Y-10830356D01*
X9750856Y-11084356D02*
X9750856Y-11013644D01*
X9680144Y-11013644D01*
X9680144Y-11084356D01*
X9750856Y-11084356D01*
X9750856Y-11338356D02*
X9750856Y-11267644D01*
X9680144Y-11267644D01*
X9680144Y-11338356D01*
X9750856Y-11338356D01*
X9750856Y-11592356D02*
X9750856Y-11521644D01*
X9680144Y-11521644D01*
X9680144Y-11592356D01*
X9750856Y-11592356D01*
X9750856Y-11846356D02*
X9750856Y-11775644D01*
X9680144Y-11775644D01*
X9680144Y-11846356D01*
X9750856Y-11846356D01*
X9750856Y-12100356D02*
X9750856Y-12029644D01*
X9680144Y-12029644D01*
X9680144Y-12100356D01*
X9750856Y-12100356D01*
X9750856Y-12354356D02*
X9750856Y-12283644D01*
X9680144Y-12283644D01*
X9680144Y-12354356D01*
X9750856Y-12354356D01*
X9750856Y-12608356D02*
X9750856Y-12537644D01*
X9680144Y-12537644D01*
X9680144Y-12608356D01*
X9750856Y-12608356D01*
X9750856Y-12862356D02*
X9750856Y-12791644D01*
X9680144Y-12791644D01*
X9680144Y-12862356D01*
X9750856Y-12862356D01*
X9750856Y-13116356D02*
X9750856Y-13045644D01*
X9680144Y-13045644D01*
X9680144Y-13116356D01*
X9750856Y-13116356D01*
X9750856Y-13370356D02*
X9750856Y-13299644D01*
X9680144Y-13299644D01*
X9680144Y-13370356D01*
X9750856Y-13370356D01*
D11*
X9150119Y-13917976D02*
X9150119Y-13717976D01*
X9197738Y-13717976D01*
X9226310Y-13727500D01*
X9245357Y-13746548D01*
X9254881Y-13765595D01*
X9264405Y-13803690D01*
X9264405Y-13832262D01*
X9254881Y-13870357D01*
X9245357Y-13889405D01*
X9226310Y-13908452D01*
X9197738Y-13917976D01*
X9150119Y-13917976D01*
X9350119Y-13917976D02*
X9350119Y-13784643D01*
X9350119Y-13822738D02*
X9359643Y-13803690D01*
X9369167Y-13794167D01*
X9388214Y-13784643D01*
X9407262Y-13784643D01*
X9473929Y-13917976D02*
X9473929Y-13784643D01*
X9473929Y-13717976D02*
X9464405Y-13727500D01*
X9473929Y-13737024D01*
X9483452Y-13727500D01*
X9473929Y-13717976D01*
X9473929Y-13737024D01*
X9597738Y-13917976D02*
X9578690Y-13908452D01*
X9569167Y-13889405D01*
X9569167Y-13717976D01*
X9702500Y-13917976D02*
X9683452Y-13908452D01*
X9673929Y-13889405D01*
X9673929Y-13717976D01*
X9931071Y-13917976D02*
X9931071Y-13717976D01*
X9997738Y-13860833D01*
X10064405Y-13717976D01*
X10064405Y-13917976D01*
X10245357Y-13917976D02*
X10245357Y-13813214D01*
X10235833Y-13794167D01*
X10216786Y-13784643D01*
X10178690Y-13784643D01*
X10159643Y-13794167D01*
X10245357Y-13908452D02*
X10226310Y-13917976D01*
X10178690Y-13917976D01*
X10159643Y-13908452D01*
X10150119Y-13889405D01*
X10150119Y-13870357D01*
X10159643Y-13851309D01*
X10178690Y-13841786D01*
X10226310Y-13841786D01*
X10245357Y-13832262D01*
X10340595Y-13784643D02*
X10340595Y-13984643D01*
X10340595Y-13794167D02*
X10359643Y-13784643D01*
X10397738Y-13784643D01*
X10416786Y-13794167D01*
X10426310Y-13803690D01*
X10435833Y-13822738D01*
X10435833Y-13879881D01*
X10426310Y-13898928D01*
X10416786Y-13908452D01*
X10397738Y-13917976D01*
X10359643Y-13917976D01*
X10340595Y-13908452D01*
X10521548Y-13898928D02*
X10531071Y-13908452D01*
X10521548Y-13917976D01*
X10512024Y-13908452D01*
X10521548Y-13898928D01*
X10521548Y-13917976D01*
X10521548Y-13794167D02*
X10531071Y-13803690D01*
X10521548Y-13813214D01*
X10512024Y-13803690D01*
X10521548Y-13794167D01*
X10521548Y-13813214D01*
D12*
X8862500Y-14232500D02*
X8892500Y-14262500D01*
X8892500Y-14232500D02*
X8862500Y-14262500D01*
D11*
X9188214Y-14137976D02*
X9207262Y-14137976D01*
X9226310Y-14147500D01*
X9235833Y-14157024D01*
X9245357Y-14176071D01*
X9254881Y-14214167D01*
X9254881Y-14261786D01*
X9245357Y-14299881D01*
X9235833Y-14318928D01*
X9226310Y-14328452D01*
X9207262Y-14337976D01*
X9188214Y-14337976D01*
X9169167Y-14328452D01*
X9159643Y-14318928D01*
X9150119Y-14299881D01*
X9140595Y-14261786D01*
X9140595Y-14214167D01*
X9150119Y-14176071D01*
X9159643Y-14157024D01*
X9169167Y-14147500D01*
X9188214Y-14137976D01*
X9340595Y-14318928D02*
X9350119Y-14328452D01*
X9340595Y-14337976D01*
X9331071Y-14328452D01*
X9340595Y-14318928D01*
X9340595Y-14337976D01*
X9416786Y-14137976D02*
X9540595Y-14137976D01*
X9473929Y-14214167D01*
X9502500Y-14214167D01*
X9521548Y-14223690D01*
X9531071Y-14233214D01*
X9540595Y-14252262D01*
X9540595Y-14299881D01*
X9531071Y-14318928D01*
X9521548Y-14328452D01*
X9502500Y-14337976D01*
X9445357Y-14337976D01*
X9426310Y-14328452D01*
X9416786Y-14318928D01*
X9664405Y-14137976D02*
X9683452Y-14137976D01*
X9702500Y-14147500D01*
X9712024Y-14157024D01*
X9721548Y-14176071D01*
X9731071Y-14214167D01*
X9731071Y-14261786D01*
X9721548Y-14299881D01*
X9712024Y-14318928D01*
X9702500Y-14328452D01*
X9683452Y-14337976D01*
X9664405Y-14337976D01*
X9645357Y-14328452D01*
X9635833Y-14318928D01*
X9626310Y-14299881D01*
X9616786Y-14261786D01*
X9616786Y-14214167D01*
X9626310Y-14176071D01*
X9635833Y-14157024D01*
X9645357Y-14147500D01*
X9664405Y-14137976D01*
X9854881Y-14137976D02*
X9873929Y-14137976D01*
X9892976Y-14147500D01*
X9902500Y-14157024D01*
X9912024Y-14176071D01*
X9921548Y-14214167D01*
X9921548Y-14261786D01*
X9912024Y-14299881D01*
X9902500Y-14318928D01*
X9892976Y-14328452D01*
X9873929Y-14337976D01*
X9854881Y-14337976D01*
X9835833Y-14328452D01*
X9826310Y-14318928D01*
X9816786Y-14299881D01*
X9807262Y-14261786D01*
X9807262Y-14214167D01*
X9816786Y-14176071D01*
X9826310Y-14157024D01*
X9835833Y-14147500D01*
X9854881Y-14137976D01*
X10007262Y-14337976D02*
X10007262Y-14204643D01*
X10007262Y-14223690D02*
X10016786Y-14214167D01*
X10035833Y-14204643D01*
X10064405Y-14204643D01*
X10083452Y-14214167D01*
X10092976Y-14233214D01*
X10092976Y-14337976D01*
X10092976Y-14233214D02*
X10102500Y-14214167D01*
X10121548Y-14204643D01*
X10150119Y-14204643D01*
X10169167Y-14214167D01*
X10178690Y-14233214D01*
X10178690Y-14337976D01*
X10273929Y-14337976D02*
X10273929Y-14204643D01*
X10273929Y-14223690D02*
X10283452Y-14214167D01*
X10302500Y-14204643D01*
X10331071Y-14204643D01*
X10350119Y-14214167D01*
X10359643Y-14233214D01*
X10359643Y-14337976D01*
X10359643Y-14233214D02*
X10369167Y-14214167D01*
X10388214Y-14204643D01*
X10416786Y-14204643D01*
X10435833Y-14214167D01*
X10445357Y-14233214D01*
X10445357Y-14337976D01*
X10835833Y-14128452D02*
X10664405Y-14385595D01*
X11092976Y-14137976D02*
X11112024Y-14137976D01*
X11131071Y-14147500D01*
X11140595Y-14157024D01*
X11150119Y-14176071D01*
X11159643Y-14214167D01*
X11159643Y-14261786D01*
X11150119Y-14299881D01*
X11140595Y-14318928D01*
X11131071Y-14328452D01*
X11112024Y-14337976D01*
X11092976Y-14337976D01*
X11073929Y-14328452D01*
X11064405Y-14318928D01*
X11054881Y-14299881D01*
X11045357Y-14261786D01*
X11045357Y-14214167D01*
X11054881Y-14176071D01*
X11064405Y-14157024D01*
X11073929Y-14147500D01*
X11092976Y-14137976D01*
X11245357Y-14318928D02*
X11254881Y-14328452D01*
X11245357Y-14337976D01*
X11235833Y-14328452D01*
X11245357Y-14318928D01*
X11245357Y-14337976D01*
X11378690Y-14137976D02*
X11397738Y-14137976D01*
X11416786Y-14147500D01*
X11426309Y-14157024D01*
X11435833Y-14176071D01*
X11445357Y-14214167D01*
X11445357Y-14261786D01*
X11435833Y-14299881D01*
X11426309Y-14318928D01*
X11416786Y-14328452D01*
X11397738Y-14337976D01*
X11378690Y-14337976D01*
X11359643Y-14328452D01*
X11350119Y-14318928D01*
X11340595Y-14299881D01*
X11331071Y-14261786D01*
X11331071Y-14214167D01*
X11340595Y-14176071D01*
X11350119Y-14157024D01*
X11359643Y-14147500D01*
X11378690Y-14137976D01*
X11635833Y-14337976D02*
X11521548Y-14337976D01*
X11578690Y-14337976D02*
X11578690Y-14137976D01*
X11559643Y-14166548D01*
X11540595Y-14185595D01*
X11521548Y-14195119D01*
X11826309Y-14337976D02*
X11712024Y-14337976D01*
X11769167Y-14337976D02*
X11769167Y-14137976D01*
X11750119Y-14166548D01*
X11731071Y-14185595D01*
X11712024Y-14195119D01*
X11940595Y-14223690D02*
X11921548Y-14214167D01*
X11912024Y-14204643D01*
X11902500Y-14185595D01*
X11902500Y-14176071D01*
X11912024Y-14157024D01*
X11921548Y-14147500D01*
X11940595Y-14137976D01*
X11978690Y-14137976D01*
X11997738Y-14147500D01*
X12007262Y-14157024D01*
X12016786Y-14176071D01*
X12016786Y-14185595D01*
X12007262Y-14204643D01*
X11997738Y-14214167D01*
X11978690Y-14223690D01*
X11940595Y-14223690D01*
X11921548Y-14233214D01*
X11912024Y-14242738D01*
X11902500Y-14261786D01*
X11902500Y-14299881D01*
X11912024Y-14318928D01*
X11921548Y-14328452D01*
X11940595Y-14337976D01*
X11978690Y-14337976D01*
X11997738Y-14328452D01*
X12007262Y-14318928D01*
X12016786Y-14299881D01*
X12016786Y-14261786D01*
X12007262Y-14242738D01*
X11997738Y-14233214D01*
X11978690Y-14223690D01*
X12092976Y-14137976D02*
X12092976Y-14176071D01*
X12169167Y-14137976D02*
X12169167Y-14176071D01*
X12464405Y-14414167D02*
X12454881Y-14404643D01*
X12435833Y-14376071D01*
X12426309Y-14357024D01*
X12416786Y-14328452D01*
X12407262Y-14280833D01*
X12407262Y-14242738D01*
X12416786Y-14195119D01*
X12426309Y-14166548D01*
X12435833Y-14147500D01*
X12454881Y-14118928D01*
X12464405Y-14109405D01*
X12531071Y-14157024D02*
X12540595Y-14147500D01*
X12559643Y-14137976D01*
X12607262Y-14137976D01*
X12626309Y-14147500D01*
X12635833Y-14157024D01*
X12645357Y-14176071D01*
X12645357Y-14195119D01*
X12635833Y-14223690D01*
X12521548Y-14337976D01*
X12645357Y-14337976D01*
X12769167Y-14137976D02*
X12788214Y-14137976D01*
X12807262Y-14147500D01*
X12816786Y-14157024D01*
X12826309Y-14176071D01*
X12835833Y-14214167D01*
X12835833Y-14261786D01*
X12826309Y-14299881D01*
X12816786Y-14318928D01*
X12807262Y-14328452D01*
X12788214Y-14337976D01*
X12769167Y-14337976D01*
X12750119Y-14328452D01*
X12740595Y-14318928D01*
X12731071Y-14299881D01*
X12721548Y-14261786D01*
X12721548Y-14214167D01*
X12731071Y-14176071D01*
X12740595Y-14157024D01*
X12750119Y-14147500D01*
X12769167Y-14137976D01*
X12902500Y-14137976D02*
X13026309Y-14137976D01*
X12959643Y-14214167D01*
X12988214Y-14214167D01*
X13007262Y-14223690D01*
X13016786Y-14233214D01*
X13026309Y-14252262D01*
X13026309Y-14299881D01*
X13016786Y-14318928D01*
X13007262Y-14328452D01*
X12988214Y-14337976D01*
X12931071Y-14337976D01*
X12912024Y-14328452D01*
X12902500Y-14318928D01*
X13264405Y-14337976D02*
X13264405Y-14137976D01*
X13350119Y-14337976D02*
X13350119Y-14233214D01*
X13340595Y-14214167D01*
X13321548Y-14204643D01*
X13292976Y-14204643D01*
X13273928Y-14214167D01*
X13264405Y-14223690D01*
X13473928Y-14337976D02*
X13454881Y-14328452D01*
X13445357Y-14318928D01*
X13435833Y-14299881D01*
X13435833Y-14242738D01*
X13445357Y-14223690D01*
X13454881Y-14214167D01*
X13473928Y-14204643D01*
X13502500Y-14204643D01*
X13521548Y-14214167D01*
X13531071Y-14223690D01*
X13540595Y-14242738D01*
X13540595Y-14299881D01*
X13531071Y-14318928D01*
X13521548Y-14328452D01*
X13502500Y-14337976D01*
X13473928Y-14337976D01*
X13654881Y-14337976D02*
X13635833Y-14328452D01*
X13626309Y-14309405D01*
X13626309Y-14137976D01*
X13807262Y-14328452D02*
X13788214Y-14337976D01*
X13750119Y-14337976D01*
X13731071Y-14328452D01*
X13721548Y-14309405D01*
X13721548Y-14233214D01*
X13731071Y-14214167D01*
X13750119Y-14204643D01*
X13788214Y-14204643D01*
X13807262Y-14214167D01*
X13816786Y-14233214D01*
X13816786Y-14252262D01*
X13721548Y-14271309D01*
X13892976Y-14328452D02*
X13912024Y-14337976D01*
X13950119Y-14337976D01*
X13969167Y-14328452D01*
X13978690Y-14309405D01*
X13978690Y-14299881D01*
X13969167Y-14280833D01*
X13950119Y-14271309D01*
X13921548Y-14271309D01*
X13902500Y-14261786D01*
X13892976Y-14242738D01*
X13892976Y-14233214D01*
X13902500Y-14214167D01*
X13921548Y-14204643D01*
X13950119Y-14204643D01*
X13969167Y-14214167D01*
X14045357Y-14414167D02*
X14054881Y-14404643D01*
X14073928Y-14376071D01*
X14083452Y-14357024D01*
X14092976Y-14328452D01*
X14102500Y-14280833D01*
X14102500Y-14242738D01*
X14092976Y-14195119D01*
X14083452Y-14166548D01*
X14073928Y-14147500D01*
X14054881Y-14118928D01*
X14045357Y-14109405D01*
D13*
X8892500Y-14511500D02*
G75*
G03*
X8892500Y-14511500I-20000J0D01*
G01*
D11*
X9188214Y-14401976D02*
X9207262Y-14401976D01*
X9226310Y-14411500D01*
X9235833Y-14421024D01*
X9245357Y-14440071D01*
X9254881Y-14478167D01*
X9254881Y-14525786D01*
X9245357Y-14563881D01*
X9235833Y-14582928D01*
X9226310Y-14592452D01*
X9207262Y-14601976D01*
X9188214Y-14601976D01*
X9169167Y-14592452D01*
X9159643Y-14582928D01*
X9150119Y-14563881D01*
X9140595Y-14525786D01*
X9140595Y-14478167D01*
X9150119Y-14440071D01*
X9159643Y-14421024D01*
X9169167Y-14411500D01*
X9188214Y-14401976D01*
X9340595Y-14582928D02*
X9350119Y-14592452D01*
X9340595Y-14601976D01*
X9331071Y-14592452D01*
X9340595Y-14582928D01*
X9340595Y-14601976D01*
X9521548Y-14468643D02*
X9521548Y-14601976D01*
X9473929Y-14392452D02*
X9426310Y-14535309D01*
X9550119Y-14535309D01*
X9664405Y-14401976D02*
X9683452Y-14401976D01*
X9702500Y-14411500D01*
X9712024Y-14421024D01*
X9721548Y-14440071D01*
X9731071Y-14478167D01*
X9731071Y-14525786D01*
X9721548Y-14563881D01*
X9712024Y-14582928D01*
X9702500Y-14592452D01*
X9683452Y-14601976D01*
X9664405Y-14601976D01*
X9645357Y-14592452D01*
X9635833Y-14582928D01*
X9626310Y-14563881D01*
X9616786Y-14525786D01*
X9616786Y-14478167D01*
X9626310Y-14440071D01*
X9635833Y-14421024D01*
X9645357Y-14411500D01*
X9664405Y-14401976D01*
X9854881Y-14401976D02*
X9873929Y-14401976D01*
X9892976Y-14411500D01*
X9902500Y-14421024D01*
X9912024Y-14440071D01*
X9921548Y-14478167D01*
X9921548Y-14525786D01*
X9912024Y-14563881D01*
X9902500Y-14582928D01*
X9892976Y-14592452D01*
X9873929Y-14601976D01*
X9854881Y-14601976D01*
X9835833Y-14592452D01*
X9826310Y-14582928D01*
X9816786Y-14563881D01*
X9807262Y-14525786D01*
X9807262Y-14478167D01*
X9816786Y-14440071D01*
X9826310Y-14421024D01*
X9835833Y-14411500D01*
X9854881Y-14401976D01*
X10007262Y-14601976D02*
X10007262Y-14468643D01*
X10007262Y-14487690D02*
X10016786Y-14478167D01*
X10035833Y-14468643D01*
X10064405Y-14468643D01*
X10083452Y-14478167D01*
X10092976Y-14497214D01*
X10092976Y-14601976D01*
X10092976Y-14497214D02*
X10102500Y-14478167D01*
X10121548Y-14468643D01*
X10150119Y-14468643D01*
X10169167Y-14478167D01*
X10178690Y-14497214D01*
X10178690Y-14601976D01*
X10273929Y-14601976D02*
X10273929Y-14468643D01*
X10273929Y-14487690D02*
X10283452Y-14478167D01*
X10302500Y-14468643D01*
X10331071Y-14468643D01*
X10350119Y-14478167D01*
X10359643Y-14497214D01*
X10359643Y-14601976D01*
X10359643Y-14497214D02*
X10369167Y-14478167D01*
X10388214Y-14468643D01*
X10416786Y-14468643D01*
X10435833Y-14478167D01*
X10445357Y-14497214D01*
X10445357Y-14601976D01*
X10835833Y-14392452D02*
X10664405Y-14649595D01*
X11092976Y-14401976D02*
X11112024Y-14401976D01*
X11131071Y-14411500D01*
X11140595Y-14421024D01*
X11150119Y-14440071D01*
X11159643Y-14478167D01*
X11159643Y-14525786D01*
X11150119Y-14563881D01*
X11140595Y-14582928D01*
X11131071Y-14592452D01*
X11112024Y-14601976D01*
X11092976Y-14601976D01*
X11073929Y-14592452D01*
X11064405Y-14582928D01*
X11054881Y-14563881D01*
X11045357Y-14525786D01*
X11045357Y-14478167D01*
X11054881Y-14440071D01*
X11064405Y-14421024D01*
X11073929Y-14411500D01*
X11092976Y-14401976D01*
X11245357Y-14582928D02*
X11254881Y-14592452D01*
X11245357Y-14601976D01*
X11235833Y-14592452D01*
X11245357Y-14582928D01*
X11245357Y-14601976D01*
X11378690Y-14401976D02*
X11397738Y-14401976D01*
X11416786Y-14411500D01*
X11426309Y-14421024D01*
X11435833Y-14440071D01*
X11445357Y-14478167D01*
X11445357Y-14525786D01*
X11435833Y-14563881D01*
X11426309Y-14582928D01*
X11416786Y-14592452D01*
X11397738Y-14601976D01*
X11378690Y-14601976D01*
X11359643Y-14592452D01*
X11350119Y-14582928D01*
X11340595Y-14563881D01*
X11331071Y-14525786D01*
X11331071Y-14478167D01*
X11340595Y-14440071D01*
X11350119Y-14421024D01*
X11359643Y-14411500D01*
X11378690Y-14401976D01*
X11635833Y-14601976D02*
X11521548Y-14601976D01*
X11578690Y-14601976D02*
X11578690Y-14401976D01*
X11559643Y-14430548D01*
X11540595Y-14449595D01*
X11521548Y-14459119D01*
X11816786Y-14401976D02*
X11721548Y-14401976D01*
X11712024Y-14497214D01*
X11721548Y-14487690D01*
X11740595Y-14478167D01*
X11788214Y-14478167D01*
X11807262Y-14487690D01*
X11816786Y-14497214D01*
X11826309Y-14516262D01*
X11826309Y-14563881D01*
X11816786Y-14582928D01*
X11807262Y-14592452D01*
X11788214Y-14601976D01*
X11740595Y-14601976D01*
X11721548Y-14592452D01*
X11712024Y-14582928D01*
X11892976Y-14401976D02*
X12026309Y-14401976D01*
X11940595Y-14601976D01*
X12092976Y-14401976D02*
X12092976Y-14440071D01*
X12169167Y-14401976D02*
X12169167Y-14440071D01*
X12464405Y-14678167D02*
X12454881Y-14668643D01*
X12435833Y-14640071D01*
X12426309Y-14621024D01*
X12416786Y-14592452D01*
X12407262Y-14544833D01*
X12407262Y-14506738D01*
X12416786Y-14459119D01*
X12426309Y-14430548D01*
X12435833Y-14411500D01*
X12454881Y-14382928D01*
X12464405Y-14373405D01*
X12531071Y-14421024D02*
X12540595Y-14411500D01*
X12559643Y-14401976D01*
X12607262Y-14401976D01*
X12626309Y-14411500D01*
X12635833Y-14421024D01*
X12645357Y-14440071D01*
X12645357Y-14459119D01*
X12635833Y-14487690D01*
X12521548Y-14601976D01*
X12645357Y-14601976D01*
X12759643Y-14487690D02*
X12740595Y-14478167D01*
X12731071Y-14468643D01*
X12721548Y-14449595D01*
X12721548Y-14440071D01*
X12731071Y-14421024D01*
X12740595Y-14411500D01*
X12759643Y-14401976D01*
X12797738Y-14401976D01*
X12816786Y-14411500D01*
X12826309Y-14421024D01*
X12835833Y-14440071D01*
X12835833Y-14449595D01*
X12826309Y-14468643D01*
X12816786Y-14478167D01*
X12797738Y-14487690D01*
X12759643Y-14487690D01*
X12740595Y-14497214D01*
X12731071Y-14506738D01*
X12721548Y-14525786D01*
X12721548Y-14563881D01*
X12731071Y-14582928D01*
X12740595Y-14592452D01*
X12759643Y-14601976D01*
X12797738Y-14601976D01*
X12816786Y-14592452D01*
X12826309Y-14582928D01*
X12835833Y-14563881D01*
X12835833Y-14525786D01*
X12826309Y-14506738D01*
X12816786Y-14497214D01*
X12797738Y-14487690D01*
X13073928Y-14601976D02*
X13073928Y-14401976D01*
X13159643Y-14601976D02*
X13159643Y-14497214D01*
X13150119Y-14478167D01*
X13131071Y-14468643D01*
X13102500Y-14468643D01*
X13083452Y-14478167D01*
X13073928Y-14487690D01*
X13283452Y-14601976D02*
X13264405Y-14592452D01*
X13254881Y-14582928D01*
X13245357Y-14563881D01*
X13245357Y-14506738D01*
X13254881Y-14487690D01*
X13264405Y-14478167D01*
X13283452Y-14468643D01*
X13312024Y-14468643D01*
X13331071Y-14478167D01*
X13340595Y-14487690D01*
X13350119Y-14506738D01*
X13350119Y-14563881D01*
X13340595Y-14582928D01*
X13331071Y-14592452D01*
X13312024Y-14601976D01*
X13283452Y-14601976D01*
X13464405Y-14601976D02*
X13445357Y-14592452D01*
X13435833Y-14573405D01*
X13435833Y-14401976D01*
X13616786Y-14592452D02*
X13597738Y-14601976D01*
X13559643Y-14601976D01*
X13540595Y-14592452D01*
X13531071Y-14573405D01*
X13531071Y-14497214D01*
X13540595Y-14478167D01*
X13559643Y-14468643D01*
X13597738Y-14468643D01*
X13616786Y-14478167D01*
X13626309Y-14497214D01*
X13626309Y-14516262D01*
X13531071Y-14535309D01*
X13702500Y-14592452D02*
X13721548Y-14601976D01*
X13759643Y-14601976D01*
X13778690Y-14592452D01*
X13788214Y-14573405D01*
X13788214Y-14563881D01*
X13778690Y-14544833D01*
X13759643Y-14535309D01*
X13731071Y-14535309D01*
X13712024Y-14525786D01*
X13702500Y-14506738D01*
X13702500Y-14497214D01*
X13712024Y-14478167D01*
X13731071Y-14468643D01*
X13759643Y-14468643D01*
X13778690Y-14478167D01*
X13854881Y-14678167D02*
X13864405Y-14668643D01*
X13883452Y-14640071D01*
X13892976Y-14621024D01*
X13902500Y-14592452D01*
X13912024Y-14544833D01*
X13912024Y-14506738D01*
X13902500Y-14459119D01*
X13892976Y-14430548D01*
X13883452Y-14411500D01*
X13864405Y-14382928D01*
X13854881Y-14373405D01*
D14*
X8852500Y-14735500D02*
X8852500Y-14815500D01*
X8812500Y-14775500D02*
X8892500Y-14775500D01*
D11*
X9188214Y-14665976D02*
X9207262Y-14665976D01*
X9226310Y-14675500D01*
X9235833Y-14685024D01*
X9245357Y-14704071D01*
X9254881Y-14742167D01*
X9254881Y-14789786D01*
X9245357Y-14827881D01*
X9235833Y-14846928D01*
X9226310Y-14856452D01*
X9207262Y-14865976D01*
X9188214Y-14865976D01*
X9169167Y-14856452D01*
X9159643Y-14846928D01*
X9150119Y-14827881D01*
X9140595Y-14789786D01*
X9140595Y-14742167D01*
X9150119Y-14704071D01*
X9159643Y-14685024D01*
X9169167Y-14675500D01*
X9188214Y-14665976D01*
X9340595Y-14846928D02*
X9350119Y-14856452D01*
X9340595Y-14865976D01*
X9331071Y-14856452D01*
X9340595Y-14846928D01*
X9340595Y-14865976D01*
X9464405Y-14751690D02*
X9445357Y-14742167D01*
X9435833Y-14732643D01*
X9426310Y-14713595D01*
X9426310Y-14704071D01*
X9435833Y-14685024D01*
X9445357Y-14675500D01*
X9464405Y-14665976D01*
X9502500Y-14665976D01*
X9521548Y-14675500D01*
X9531071Y-14685024D01*
X9540595Y-14704071D01*
X9540595Y-14713595D01*
X9531071Y-14732643D01*
X9521548Y-14742167D01*
X9502500Y-14751690D01*
X9464405Y-14751690D01*
X9445357Y-14761214D01*
X9435833Y-14770738D01*
X9426310Y-14789786D01*
X9426310Y-14827881D01*
X9435833Y-14846928D01*
X9445357Y-14856452D01*
X9464405Y-14865976D01*
X9502500Y-14865976D01*
X9521548Y-14856452D01*
X9531071Y-14846928D01*
X9540595Y-14827881D01*
X9540595Y-14789786D01*
X9531071Y-14770738D01*
X9521548Y-14761214D01*
X9502500Y-14751690D01*
X9664405Y-14665976D02*
X9683452Y-14665976D01*
X9702500Y-14675500D01*
X9712024Y-14685024D01*
X9721548Y-14704071D01*
X9731071Y-14742167D01*
X9731071Y-14789786D01*
X9721548Y-14827881D01*
X9712024Y-14846928D01*
X9702500Y-14856452D01*
X9683452Y-14865976D01*
X9664405Y-14865976D01*
X9645357Y-14856452D01*
X9635833Y-14846928D01*
X9626310Y-14827881D01*
X9616786Y-14789786D01*
X9616786Y-14742167D01*
X9626310Y-14704071D01*
X9635833Y-14685024D01*
X9645357Y-14675500D01*
X9664405Y-14665976D01*
X9854881Y-14665976D02*
X9873929Y-14665976D01*
X9892976Y-14675500D01*
X9902500Y-14685024D01*
X9912024Y-14704071D01*
X9921548Y-14742167D01*
X9921548Y-14789786D01*
X9912024Y-14827881D01*
X9902500Y-14846928D01*
X9892976Y-14856452D01*
X9873929Y-14865976D01*
X9854881Y-14865976D01*
X9835833Y-14856452D01*
X9826310Y-14846928D01*
X9816786Y-14827881D01*
X9807262Y-14789786D01*
X9807262Y-14742167D01*
X9816786Y-14704071D01*
X9826310Y-14685024D01*
X9835833Y-14675500D01*
X9854881Y-14665976D01*
X10007262Y-14865976D02*
X10007262Y-14732643D01*
X10007262Y-14751690D02*
X10016786Y-14742167D01*
X10035833Y-14732643D01*
X10064405Y-14732643D01*
X10083452Y-14742167D01*
X10092976Y-14761214D01*
X10092976Y-14865976D01*
X10092976Y-14761214D02*
X10102500Y-14742167D01*
X10121548Y-14732643D01*
X10150119Y-14732643D01*
X10169167Y-14742167D01*
X10178690Y-14761214D01*
X10178690Y-14865976D01*
X10273929Y-14865976D02*
X10273929Y-14732643D01*
X10273929Y-14751690D02*
X10283452Y-14742167D01*
X10302500Y-14732643D01*
X10331071Y-14732643D01*
X10350119Y-14742167D01*
X10359643Y-14761214D01*
X10359643Y-14865976D01*
X10359643Y-14761214D02*
X10369167Y-14742167D01*
X10388214Y-14732643D01*
X10416786Y-14732643D01*
X10435833Y-14742167D01*
X10445357Y-14761214D01*
X10445357Y-14865976D01*
X10835833Y-14656452D02*
X10664405Y-14913595D01*
X11092976Y-14665976D02*
X11112024Y-14665976D01*
X11131071Y-14675500D01*
X11140595Y-14685024D01*
X11150119Y-14704071D01*
X11159643Y-14742167D01*
X11159643Y-14789786D01*
X11150119Y-14827881D01*
X11140595Y-14846928D01*
X11131071Y-14856452D01*
X11112024Y-14865976D01*
X11092976Y-14865976D01*
X11073929Y-14856452D01*
X11064405Y-14846928D01*
X11054881Y-14827881D01*
X11045357Y-14789786D01*
X11045357Y-14742167D01*
X11054881Y-14704071D01*
X11064405Y-14685024D01*
X11073929Y-14675500D01*
X11092976Y-14665976D01*
X11245357Y-14846928D02*
X11254881Y-14856452D01*
X11245357Y-14865976D01*
X11235833Y-14856452D01*
X11245357Y-14846928D01*
X11245357Y-14865976D01*
X11378690Y-14665976D02*
X11397738Y-14665976D01*
X11416786Y-14675500D01*
X11426309Y-14685024D01*
X11435833Y-14704071D01*
X11445357Y-14742167D01*
X11445357Y-14789786D01*
X11435833Y-14827881D01*
X11426309Y-14846928D01*
X11416786Y-14856452D01*
X11397738Y-14865976D01*
X11378690Y-14865976D01*
X11359643Y-14856452D01*
X11350119Y-14846928D01*
X11340595Y-14827881D01*
X11331071Y-14789786D01*
X11331071Y-14742167D01*
X11340595Y-14704071D01*
X11350119Y-14685024D01*
X11359643Y-14675500D01*
X11378690Y-14665976D01*
X11512024Y-14665976D02*
X11635833Y-14665976D01*
X11569167Y-14742167D01*
X11597738Y-14742167D01*
X11616786Y-14751690D01*
X11626309Y-14761214D01*
X11635833Y-14780262D01*
X11635833Y-14827881D01*
X11626309Y-14846928D01*
X11616786Y-14856452D01*
X11597738Y-14865976D01*
X11540595Y-14865976D01*
X11521548Y-14856452D01*
X11512024Y-14846928D01*
X11826309Y-14865976D02*
X11712024Y-14865976D01*
X11769167Y-14865976D02*
X11769167Y-14665976D01*
X11750119Y-14694548D01*
X11731071Y-14713595D01*
X11712024Y-14723119D01*
X12007262Y-14665976D02*
X11912024Y-14665976D01*
X11902500Y-14761214D01*
X11912024Y-14751690D01*
X11931071Y-14742167D01*
X11978690Y-14742167D01*
X11997738Y-14751690D01*
X12007262Y-14761214D01*
X12016786Y-14780262D01*
X12016786Y-14827881D01*
X12007262Y-14846928D01*
X11997738Y-14856452D01*
X11978690Y-14865976D01*
X11931071Y-14865976D01*
X11912024Y-14856452D01*
X11902500Y-14846928D01*
X12092976Y-14665976D02*
X12092976Y-14704071D01*
X12169167Y-14665976D02*
X12169167Y-14704071D01*
X12464405Y-14942167D02*
X12454881Y-14932643D01*
X12435833Y-14904071D01*
X12426309Y-14885024D01*
X12416786Y-14856452D01*
X12407262Y-14808833D01*
X12407262Y-14770738D01*
X12416786Y-14723119D01*
X12426309Y-14694548D01*
X12435833Y-14675500D01*
X12454881Y-14646928D01*
X12464405Y-14637405D01*
X12531071Y-14685024D02*
X12540595Y-14675500D01*
X12559643Y-14665976D01*
X12607262Y-14665976D01*
X12626309Y-14675500D01*
X12635833Y-14685024D01*
X12645357Y-14704071D01*
X12645357Y-14723119D01*
X12635833Y-14751690D01*
X12521548Y-14865976D01*
X12645357Y-14865976D01*
X12759643Y-14751690D02*
X12740595Y-14742167D01*
X12731071Y-14732643D01*
X12721548Y-14713595D01*
X12721548Y-14704071D01*
X12731071Y-14685024D01*
X12740595Y-14675500D01*
X12759643Y-14665976D01*
X12797738Y-14665976D01*
X12816786Y-14675500D01*
X12826309Y-14685024D01*
X12835833Y-14704071D01*
X12835833Y-14713595D01*
X12826309Y-14732643D01*
X12816786Y-14742167D01*
X12797738Y-14751690D01*
X12759643Y-14751690D01*
X12740595Y-14761214D01*
X12731071Y-14770738D01*
X12721548Y-14789786D01*
X12721548Y-14827881D01*
X12731071Y-14846928D01*
X12740595Y-14856452D01*
X12759643Y-14865976D01*
X12797738Y-14865976D01*
X12816786Y-14856452D01*
X12826309Y-14846928D01*
X12835833Y-14827881D01*
X12835833Y-14789786D01*
X12826309Y-14770738D01*
X12816786Y-14761214D01*
X12797738Y-14751690D01*
X13073928Y-14865976D02*
X13073928Y-14665976D01*
X13159643Y-14865976D02*
X13159643Y-14761214D01*
X13150119Y-14742167D01*
X13131071Y-14732643D01*
X13102500Y-14732643D01*
X13083452Y-14742167D01*
X13073928Y-14751690D01*
X13283452Y-14865976D02*
X13264405Y-14856452D01*
X13254881Y-14846928D01*
X13245357Y-14827881D01*
X13245357Y-14770738D01*
X13254881Y-14751690D01*
X13264405Y-14742167D01*
X13283452Y-14732643D01*
X13312024Y-14732643D01*
X13331071Y-14742167D01*
X13340595Y-14751690D01*
X13350119Y-14770738D01*
X13350119Y-14827881D01*
X13340595Y-14846928D01*
X13331071Y-14856452D01*
X13312024Y-14865976D01*
X13283452Y-14865976D01*
X13464405Y-14865976D02*
X13445357Y-14856452D01*
X13435833Y-14837405D01*
X13435833Y-14665976D01*
X13616786Y-14856452D02*
X13597738Y-14865976D01*
X13559643Y-14865976D01*
X13540595Y-14856452D01*
X13531071Y-14837405D01*
X13531071Y-14761214D01*
X13540595Y-14742167D01*
X13559643Y-14732643D01*
X13597738Y-14732643D01*
X13616786Y-14742167D01*
X13626309Y-14761214D01*
X13626309Y-14780262D01*
X13531071Y-14799309D01*
X13702500Y-14856452D02*
X13721548Y-14865976D01*
X13759643Y-14865976D01*
X13778690Y-14856452D01*
X13788214Y-14837405D01*
X13788214Y-14827881D01*
X13778690Y-14808833D01*
X13759643Y-14799309D01*
X13731071Y-14799309D01*
X13712024Y-14789786D01*
X13702500Y-14770738D01*
X13702500Y-14761214D01*
X13712024Y-14742167D01*
X13731071Y-14732643D01*
X13759643Y-14732643D01*
X13778690Y-14742167D01*
X13854881Y-14942167D02*
X13864405Y-14932643D01*
X13883452Y-14904071D01*
X13892976Y-14885024D01*
X13902500Y-14856452D01*
X13912024Y-14808833D01*
X13912024Y-14770738D01*
X13902500Y-14723119D01*
X13892976Y-14694548D01*
X13883452Y-14675500D01*
X13864405Y-14646928D01*
X13854881Y-14637405D01*
D15*
X8877856Y-15074856D02*
X8877856Y-15004144D01*
X8807144Y-15004144D01*
X8807144Y-15074856D01*
X8877856Y-15074856D01*
D11*
X9254881Y-15129976D02*
X9140595Y-15129976D01*
X9197738Y-15129976D02*
X9197738Y-14929976D01*
X9178690Y-14958548D01*
X9159643Y-14977595D01*
X9140595Y-14987119D01*
X9340595Y-15110928D02*
X9350119Y-15120452D01*
X9340595Y-15129976D01*
X9331071Y-15120452D01*
X9340595Y-15110928D01*
X9340595Y-15129976D01*
X9473929Y-14929976D02*
X9492976Y-14929976D01*
X9512024Y-14939500D01*
X9521548Y-14949024D01*
X9531071Y-14968071D01*
X9540595Y-15006167D01*
X9540595Y-15053786D01*
X9531071Y-15091881D01*
X9521548Y-15110928D01*
X9512024Y-15120452D01*
X9492976Y-15129976D01*
X9473929Y-15129976D01*
X9454881Y-15120452D01*
X9445357Y-15110928D01*
X9435833Y-15091881D01*
X9426310Y-15053786D01*
X9426310Y-15006167D01*
X9435833Y-14968071D01*
X9445357Y-14949024D01*
X9454881Y-14939500D01*
X9473929Y-14929976D01*
X9664405Y-14929976D02*
X9683452Y-14929976D01*
X9702500Y-14939500D01*
X9712024Y-14949024D01*
X9721548Y-14968071D01*
X9731071Y-15006167D01*
X9731071Y-15053786D01*
X9721548Y-15091881D01*
X9712024Y-15110928D01*
X9702500Y-15120452D01*
X9683452Y-15129976D01*
X9664405Y-15129976D01*
X9645357Y-15120452D01*
X9635833Y-15110928D01*
X9626310Y-15091881D01*
X9616786Y-15053786D01*
X9616786Y-15006167D01*
X9626310Y-14968071D01*
X9635833Y-14949024D01*
X9645357Y-14939500D01*
X9664405Y-14929976D01*
X9854881Y-14929976D02*
X9873929Y-14929976D01*
X9892976Y-14939500D01*
X9902500Y-14949024D01*
X9912024Y-14968071D01*
X9921548Y-15006167D01*
X9921548Y-15053786D01*
X9912024Y-15091881D01*
X9902500Y-15110928D01*
X9892976Y-15120452D01*
X9873929Y-15129976D01*
X9854881Y-15129976D01*
X9835833Y-15120452D01*
X9826310Y-15110928D01*
X9816786Y-15091881D01*
X9807262Y-15053786D01*
X9807262Y-15006167D01*
X9816786Y-14968071D01*
X9826310Y-14949024D01*
X9835833Y-14939500D01*
X9854881Y-14929976D01*
X10007262Y-15129976D02*
X10007262Y-14996643D01*
X10007262Y-15015690D02*
X10016786Y-15006167D01*
X10035833Y-14996643D01*
X10064405Y-14996643D01*
X10083452Y-15006167D01*
X10092976Y-15025214D01*
X10092976Y-15129976D01*
X10092976Y-15025214D02*
X10102500Y-15006167D01*
X10121548Y-14996643D01*
X10150119Y-14996643D01*
X10169167Y-15006167D01*
X10178690Y-15025214D01*
X10178690Y-15129976D01*
X10273929Y-15129976D02*
X10273929Y-14996643D01*
X10273929Y-15015690D02*
X10283452Y-15006167D01*
X10302500Y-14996643D01*
X10331071Y-14996643D01*
X10350119Y-15006167D01*
X10359643Y-15025214D01*
X10359643Y-15129976D01*
X10359643Y-15025214D02*
X10369167Y-15006167D01*
X10388214Y-14996643D01*
X10416786Y-14996643D01*
X10435833Y-15006167D01*
X10445357Y-15025214D01*
X10445357Y-15129976D01*
X10835833Y-14920452D02*
X10664405Y-15177595D01*
X11092976Y-14929976D02*
X11112024Y-14929976D01*
X11131071Y-14939500D01*
X11140595Y-14949024D01*
X11150119Y-14968071D01*
X11159643Y-15006167D01*
X11159643Y-15053786D01*
X11150119Y-15091881D01*
X11140595Y-15110928D01*
X11131071Y-15120452D01*
X11112024Y-15129976D01*
X11092976Y-15129976D01*
X11073929Y-15120452D01*
X11064405Y-15110928D01*
X11054881Y-15091881D01*
X11045357Y-15053786D01*
X11045357Y-15006167D01*
X11054881Y-14968071D01*
X11064405Y-14949024D01*
X11073929Y-14939500D01*
X11092976Y-14929976D01*
X11245357Y-15110928D02*
X11254881Y-15120452D01*
X11245357Y-15129976D01*
X11235833Y-15120452D01*
X11245357Y-15110928D01*
X11245357Y-15129976D01*
X11378690Y-14929976D02*
X11397738Y-14929976D01*
X11416786Y-14939500D01*
X11426309Y-14949024D01*
X11435833Y-14968071D01*
X11445357Y-15006167D01*
X11445357Y-15053786D01*
X11435833Y-15091881D01*
X11426309Y-15110928D01*
X11416786Y-15120452D01*
X11397738Y-15129976D01*
X11378690Y-15129976D01*
X11359643Y-15120452D01*
X11350119Y-15110928D01*
X11340595Y-15091881D01*
X11331071Y-15053786D01*
X11331071Y-15006167D01*
X11340595Y-14968071D01*
X11350119Y-14949024D01*
X11359643Y-14939500D01*
X11378690Y-14929976D01*
X11512024Y-14929976D02*
X11635833Y-14929976D01*
X11569167Y-15006167D01*
X11597738Y-15006167D01*
X11616786Y-15015690D01*
X11626309Y-15025214D01*
X11635833Y-15044262D01*
X11635833Y-15091881D01*
X11626309Y-15110928D01*
X11616786Y-15120452D01*
X11597738Y-15129976D01*
X11540595Y-15129976D01*
X11521548Y-15120452D01*
X11512024Y-15110928D01*
X11731071Y-15129976D02*
X11769167Y-15129976D01*
X11788214Y-15120452D01*
X11797738Y-15110928D01*
X11816786Y-15082357D01*
X11826309Y-15044262D01*
X11826309Y-14968071D01*
X11816786Y-14949024D01*
X11807262Y-14939500D01*
X11788214Y-14929976D01*
X11750119Y-14929976D01*
X11731071Y-14939500D01*
X11721548Y-14949024D01*
X11712024Y-14968071D01*
X11712024Y-15015690D01*
X11721548Y-15034738D01*
X11731071Y-15044262D01*
X11750119Y-15053786D01*
X11788214Y-15053786D01*
X11807262Y-15044262D01*
X11816786Y-15034738D01*
X11826309Y-15015690D01*
X11997738Y-14996643D02*
X11997738Y-15129976D01*
X11950119Y-14920452D02*
X11902500Y-15063309D01*
X12026309Y-15063309D01*
X12092976Y-14929976D02*
X12092976Y-14968071D01*
X12169167Y-14929976D02*
X12169167Y-14968071D01*
X12464405Y-15206167D02*
X12454881Y-15196643D01*
X12435833Y-15168071D01*
X12426309Y-15149024D01*
X12416786Y-15120452D01*
X12407262Y-15072833D01*
X12407262Y-15034738D01*
X12416786Y-14987119D01*
X12426309Y-14958548D01*
X12435833Y-14939500D01*
X12454881Y-14910928D01*
X12464405Y-14901405D01*
X12521548Y-14929976D02*
X12645357Y-14929976D01*
X12578690Y-15006167D01*
X12607262Y-15006167D01*
X12626309Y-15015690D01*
X12635833Y-15025214D01*
X12645357Y-15044262D01*
X12645357Y-15091881D01*
X12635833Y-15110928D01*
X12626309Y-15120452D01*
X12607262Y-15129976D01*
X12550119Y-15129976D01*
X12531071Y-15120452D01*
X12521548Y-15110928D01*
X12816786Y-14929976D02*
X12778690Y-14929976D01*
X12759643Y-14939500D01*
X12750119Y-14949024D01*
X12731071Y-14977595D01*
X12721548Y-15015690D01*
X12721548Y-15091881D01*
X12731071Y-15110928D01*
X12740595Y-15120452D01*
X12759643Y-15129976D01*
X12797738Y-15129976D01*
X12816786Y-15120452D01*
X12826309Y-15110928D01*
X12835833Y-15091881D01*
X12835833Y-15044262D01*
X12826309Y-15025214D01*
X12816786Y-15015690D01*
X12797738Y-15006167D01*
X12759643Y-15006167D01*
X12740595Y-15015690D01*
X12731071Y-15025214D01*
X12721548Y-15044262D01*
X13073928Y-15129976D02*
X13073928Y-14929976D01*
X13159643Y-15129976D02*
X13159643Y-15025214D01*
X13150119Y-15006167D01*
X13131071Y-14996643D01*
X13102500Y-14996643D01*
X13083452Y-15006167D01*
X13073928Y-15015690D01*
X13283452Y-15129976D02*
X13264405Y-15120452D01*
X13254881Y-15110928D01*
X13245357Y-15091881D01*
X13245357Y-15034738D01*
X13254881Y-15015690D01*
X13264405Y-15006167D01*
X13283452Y-14996643D01*
X13312024Y-14996643D01*
X13331071Y-15006167D01*
X13340595Y-15015690D01*
X13350119Y-15034738D01*
X13350119Y-15091881D01*
X13340595Y-15110928D01*
X13331071Y-15120452D01*
X13312024Y-15129976D01*
X13283452Y-15129976D01*
X13464405Y-15129976D02*
X13445357Y-15120452D01*
X13435833Y-15101405D01*
X13435833Y-14929976D01*
X13616786Y-15120452D02*
X13597738Y-15129976D01*
X13559643Y-15129976D01*
X13540595Y-15120452D01*
X13531071Y-15101405D01*
X13531071Y-15025214D01*
X13540595Y-15006167D01*
X13559643Y-14996643D01*
X13597738Y-14996643D01*
X13616786Y-15006167D01*
X13626309Y-15025214D01*
X13626309Y-15044262D01*
X13531071Y-15063309D01*
X13702500Y-15120452D02*
X13721548Y-15129976D01*
X13759643Y-15129976D01*
X13778690Y-15120452D01*
X13788214Y-15101405D01*
X13788214Y-15091881D01*
X13778690Y-15072833D01*
X13759643Y-15063309D01*
X13731071Y-15063309D01*
X13712024Y-15053786D01*
X13702500Y-15034738D01*
X13702500Y-15025214D01*
X13712024Y-15006167D01*
X13731071Y-14996643D01*
X13759643Y-14996643D01*
X13778690Y-15006167D01*
X13854881Y-15206167D02*
X13864405Y-15196643D01*
X13883452Y-15168071D01*
X13892976Y-15149024D01*
X13902500Y-15120452D01*
X13912024Y-15072833D01*
X13912024Y-15034738D01*
X13902500Y-14987119D01*
X13892976Y-14958548D01*
X13883452Y-14939500D01*
X13864405Y-14910928D01*
X13854881Y-14901405D01*
M02*
