M48
; DRILL file {KiCad (6.0.1)} date Fri Jan 21 22:17:18 2022
; FORMAT={-:-/ absolute / metric / decimal}
; #@! TF.CreationDate,2022-01-21T22:17:18+01:00
; #@! TF.GenerationSoftware,Kicad,Pcbnew,(6.0.1)
; #@! TF.FileFunction,Plated,1,4,PTH
FMAT,2
METRIC
; #@! TA.AperFunction,Plated,PTH,ViaDrill
T1C0.300
; #@! TA.AperFunction,Plated,PTH,ViaDrill
T2C0.400
; #@! TA.AperFunction,Plated,PTH,ComponentDrill
T3C0.800
; #@! TA.AperFunction,Plated,PTH,ComponentDrill
T4C1.000
%
G90
G05
T1
X90.143Y-70.985
X90.361Y-114.236
X90.361Y-116.776
X90.361Y-119.443
X90.361Y-129.54
X90.361Y-132.143
X90.424Y-106.68
X90.524Y-71.874
X90.665Y-78.359
X91.186Y-104.267
X91.457Y-101.6
X91.567Y-78.359
X91.948Y-116.84
X91.948Y-119.38
X92.369Y-101.61
X92.583Y-109.22
X92.683Y-75.557
X93.599Y-109.22
X94.334Y-75.684
X95.504Y-75.692
X95.885Y-124.46
X98.512Y-123.487
X98.679Y-121.412
X98.679Y-122.555
X98.679Y-126.365
X98.806Y-104.267
X98.806Y-124.968
X98.806Y-132.08
X98.806Y-133.096
X99.822Y-119.634
X99.949Y-105.537
X100.457Y-102.616
X100.584Y-75.692
X100.711Y-104.775
X101.473Y-104.013
X101.473Y-78.74
X101.6Y-113.411
X101.6Y-124.333
X101.6Y-125.603
X101.6Y-135.255
X101.854Y-73.66
X102.235Y-103.251
X102.362Y-114.3
X102.362Y-126.365
X102.362Y-127.381
X102.489Y-78.74
X102.616Y-113.284
X102.743Y-132.588
X102.87Y-129.794
X102.997Y-102.489
X103.124Y-128.795
X103.251Y-73.914
X103.251Y-74.93
X103.251Y-75.946
X103.505Y-117.094
X103.732Y-105.275
X103.759Y-103.251
X103.759Y-132.556
X103.886Y-116.205
X103.886Y-129.54
X104.013Y-118.618
X104.267Y-133.985
X104.267Y-135.001
X105.791Y-105.537
X105.791Y-106.553
X105.791Y-112.522
X106.172Y-103.759
X106.299Y-134.62
X106.807Y-108.077
X107.188Y-108.966
X107.315Y-103.95
X107.442Y-119.126
X107.442Y-121.793
X107.569Y-122.809
X107.95Y-118.364
X108.839Y-128.397
X108.966Y-120.269
X109.347Y-122.047
X109.347Y-123.19
X109.474Y-119.507
X110.649Y-103.156
X110.998Y-134.493
X112.147Y-105.918
X112.267Y-107.946
X112.268Y-103.124
X112.395Y-108.839
X112.522Y-122.047
X112.522Y-123.317
X112.522Y-128.397
X112.522Y-132.207
X112.649Y-126.365
X113.03Y-129.159
X113.157Y-124.951
X113.411Y-121.285
X113.665Y-123.444
X113.792Y-117.602
X113.792Y-126.365
X113.792Y-129.908
X113.792Y-130.81
X114.173Y-110.109
X114.681Y-125.603
X115.189Y-110.109
X115.316Y-106.172
X115.443Y-126.365
X115.951Y-113.538
X117.094Y-102.984
X117.094Y-103.886
X117.983Y-67.437
X118.491Y-122.936
X118.491Y-129.159
X118.745Y-68.326
X118.745Y-76.2
X118.999Y-77.343
X119.253Y-94.615
X119.38Y-96.012
X119.507Y-69.723
X119.507Y-74.422
X119.634Y-75.692
X119.634Y-109.347
X119.644Y-107.555
X120.015Y-77.343
X120.015Y-89.408
X120.015Y-90.424
X120.269Y-70.501
X120.396Y-91.948
X120.777Y-103.886
X121.142Y-92.472
X121.302Y-109.22
X121.368Y-110.284
X121.412Y-98.425
X121.412Y-99.568
X121.412Y-100.584
X121.539Y-106.807
X121.539Y-108.077
X121.539Y-125.984
X122.047Y-94.996
X122.428Y-65.659
X122.528Y-127.5
X122.809Y-76.454
X123.063Y-78.613
X123.063Y-81.026
X123.19Y-91.44
X123.544Y-127.508
X123.571Y-74.93
X123.812Y-76.849
X123.825Y-75.819
X123.825Y-98.425
X123.825Y-99.441
X123.952Y-97.409
X124.206Y-91.44
X124.46Y-96.647
X124.476Y-95.615
X125.365Y-87.995
X125.476Y-84.201
X125.476Y-131.589
X125.534Y-67.876
X125.857Y-65.659
X126.365Y-130.937
X126.365Y-132.207
X126.365Y-133.477
X126.492Y-76.073
X126.492Y-78.486
X126.492Y-83.947
X126.619Y-113.538
X127.254Y-76.708
X127.508Y-78.359
X127.635Y-105.283
X127.635Y-107.823
X127.762Y-106.553
X128.881Y-80.753
X128.953Y-70.519
X128.953Y-73.059
X128.953Y-83.219
X128.953Y-85.759
X129.022Y-65.389
X129.022Y-67.929
X129.022Y-75.549
X129.032Y-88.011
X129.032Y-90.551
X129.032Y-93.091
X129.032Y-95.758
X129.032Y-98.298
X129.038Y-97.283
X129.138Y-99.822
X129.536Y-126.49
X129.667Y-127.889
X129.794Y-100.584
X130.429Y-101.727
X130.683Y-128.27
X131.191Y-102.362
X131.191Y-118.745
X131.191Y-120.269
X131.191Y-121.793
X131.191Y-123.317
X131.191Y-124.841
X131.191Y-126.365
X131.699Y-128.27
X132.969Y-119.507
X132.969Y-121.031
X132.969Y-122.555
X132.969Y-124.079
X132.969Y-125.603
X132.969Y-127.127
T2
X102.235Y-93.853
X103.378Y-94.996
X103.378Y-97.409
X103.505Y-91.821
X103.505Y-92.826
X103.632Y-98.425
X104.521Y-92.837
X104.648Y-98.425
X105.664Y-98.425
X107.315Y-131.826
X108.839Y-131.826
X109.22Y-95.25
X109.22Y-97.028
X109.728Y-96.139
X110.236Y-95.25
X110.236Y-97.028
X110.744Y-96.139
X111.252Y-95.25
X111.252Y-97.028
X111.76Y-96.139
X111.887Y-93.345
X111.887Y-98.933
X112.903Y-93.345
X112.903Y-98.933
X113.919Y-93.345
X113.919Y-98.933
X114.935Y-95.631
X114.935Y-96.647
T3
X116.84Y-66.04
X116.84Y-68.58
X116.84Y-71.12
X116.84Y-73.66
X116.84Y-76.2
X116.84Y-78.74
X116.84Y-81.28
X116.84Y-83.82
X116.84Y-86.36
X116.84Y-88.9
X116.84Y-91.44
X116.84Y-93.98
X116.84Y-96.52
X116.84Y-99.06
X132.08Y-66.04
X132.08Y-68.58
X132.08Y-71.12
X132.08Y-73.66
X132.08Y-76.2
X132.08Y-78.74
X132.08Y-81.28
X132.08Y-83.82
X132.08Y-86.36
X132.08Y-88.9
X132.08Y-91.44
X132.08Y-93.98
X132.08Y-96.52
X132.08Y-99.06
T4
X92.145Y-82.56
X92.145Y-85.1
X92.145Y-87.64
X92.145Y-90.18
X94.615Y-95.25
X94.615Y-97.79
X94.615Y-100.33
X94.615Y-102.87
X94.615Y-105.41
X94.615Y-107.95
X94.615Y-110.49
X94.615Y-113.03
X94.615Y-115.57
X94.615Y-118.11
X94.615Y-120.65
X94.615Y-123.19
X94.615Y-125.73
X94.615Y-128.27
X94.615Y-130.81
X94.615Y-133.35
X97.155Y-95.25
X97.155Y-97.79
X97.155Y-100.33
X97.155Y-102.87
X97.155Y-105.41
X97.155Y-107.95
X97.155Y-110.49
X97.155Y-113.03
X97.155Y-115.57
X97.155Y-118.11
X97.155Y-120.65
X97.155Y-123.19
X97.155Y-125.73
X97.155Y-128.27
X97.155Y-130.81
X97.155Y-133.35
T0
M30
