%TF.GenerationSoftware,KiCad,Pcbnew,(6.0.1)*%
%TF.CreationDate,2022-01-21T22:17:13+01:00*%
%TF.ProjectId,bosch-kf163-control,626f7363-682d-46b6-9631-36332d636f6e,1*%
%TF.SameCoordinates,Original*%
%TF.FileFunction,Copper,L4,Bot*%
%TF.FilePolarity,Positive*%
%FSLAX46Y46*%
G04 Gerber Fmt 4.6, Leading zero omitted, Abs format (unit mm)*
G04 Created by KiCad (PCBNEW (6.0.1)) date 2022-01-21 22:17:13*
%MOMM*%
%LPD*%
G01*
G04 APERTURE LIST*
G04 Aperture macros list*
%AMRoundRect*
0 Rectangle with rounded corners*
0 $1 Rounding radius*
0 $2 $3 $4 $5 $6 $7 $8 $9 X,Y pos of 4 corners*
0 Add a 4 corners polygon primitive as box body*
4,1,4,$2,$3,$4,$5,$6,$7,$8,$9,$2,$3,0*
0 Add four circle primitives for the rounded corners*
1,1,$1+$1,$2,$3*
1,1,$1+$1,$4,$5*
1,1,$1+$1,$6,$7*
1,1,$1+$1,$8,$9*
0 Add four rect primitives between the rounded corners*
20,1,$1+$1,$2,$3,$4,$5,0*
20,1,$1+$1,$4,$5,$6,$7,0*
20,1,$1+$1,$6,$7,$8,$9,0*
20,1,$1+$1,$8,$9,$2,$3,0*%
G04 Aperture macros list end*
%TA.AperFunction,ComponentPad*%
%ADD10R,1.700000X1.700000*%
%TD*%
%TA.AperFunction,ComponentPad*%
%ADD11O,1.700000X1.700000*%
%TD*%
%TA.AperFunction,SMDPad,CuDef*%
%ADD12RoundRect,0.225000X-0.250000X0.225000X-0.250000X-0.225000X0.250000X-0.225000X0.250000X0.225000X0*%
%TD*%
%TA.AperFunction,SMDPad,CuDef*%
%ADD13RoundRect,0.200000X0.275000X-0.200000X0.275000X0.200000X-0.275000X0.200000X-0.275000X-0.200000X0*%
%TD*%
%TA.AperFunction,SMDPad,CuDef*%
%ADD14RoundRect,0.200000X0.200000X0.275000X-0.200000X0.275000X-0.200000X-0.275000X0.200000X-0.275000X0*%
%TD*%
%TA.AperFunction,SMDPad,CuDef*%
%ADD15R,0.510000X0.400000*%
%TD*%
%TA.AperFunction,SMDPad,CuDef*%
%ADD16R,0.450000X0.600000*%
%TD*%
%TA.AperFunction,SMDPad,CuDef*%
%ADD17RoundRect,0.200000X-0.200000X-0.275000X0.200000X-0.275000X0.200000X0.275000X-0.200000X0.275000X0*%
%TD*%
%TA.AperFunction,SMDPad,CuDef*%
%ADD18RoundRect,0.200000X-0.275000X0.200000X-0.275000X-0.200000X0.275000X-0.200000X0.275000X0.200000X0*%
%TD*%
%TA.AperFunction,SMDPad,CuDef*%
%ADD19RoundRect,0.225000X0.250000X-0.225000X0.250000X0.225000X-0.250000X0.225000X-0.250000X-0.225000X0*%
%TD*%
%TA.AperFunction,SMDPad,CuDef*%
%ADD20R,2.000000X1.500000*%
%TD*%
%TA.AperFunction,SMDPad,CuDef*%
%ADD21R,2.000000X3.800000*%
%TD*%
%TA.AperFunction,SMDPad,CuDef*%
%ADD22R,0.400000X0.510000*%
%TD*%
%TA.AperFunction,SMDPad,CuDef*%
%ADD23RoundRect,0.225000X0.225000X0.250000X-0.225000X0.250000X-0.225000X-0.250000X0.225000X-0.250000X0*%
%TD*%
%TA.AperFunction,ComponentPad*%
%ADD24R,2.400000X1.600000*%
%TD*%
%TA.AperFunction,ComponentPad*%
%ADD25O,2.400000X1.600000*%
%TD*%
%TA.AperFunction,SMDPad,CuDef*%
%ADD26R,0.600000X0.450000*%
%TD*%
%TA.AperFunction,SMDPad,CuDef*%
%ADD27RoundRect,0.150000X-0.150000X0.825000X-0.150000X-0.825000X0.150000X-0.825000X0.150000X0.825000X0*%
%TD*%
%TA.AperFunction,SMDPad,CuDef*%
%ADD28RoundRect,0.225000X-0.225000X-0.250000X0.225000X-0.250000X0.225000X0.250000X-0.225000X0.250000X0*%
%TD*%
%TA.AperFunction,SMDPad,CuDef*%
%ADD29RoundRect,0.150000X0.825000X0.150000X-0.825000X0.150000X-0.825000X-0.150000X0.825000X-0.150000X0*%
%TD*%
%TA.AperFunction,SMDPad,CuDef*%
%ADD30R,2.000000X0.900000*%
%TD*%
%TA.AperFunction,SMDPad,CuDef*%
%ADD31R,0.900000X2.000000*%
%TD*%
%TA.AperFunction,SMDPad,CuDef*%
%ADD32R,5.000000X5.000000*%
%TD*%
%TA.AperFunction,SMDPad,CuDef*%
%ADD33RoundRect,0.100000X-0.100000X0.637500X-0.100000X-0.637500X0.100000X-0.637500X0.100000X0.637500X0*%
%TD*%
%TA.AperFunction,ViaPad*%
%ADD34C,0.750000*%
%TD*%
%TA.AperFunction,ViaPad*%
%ADD35C,0.800000*%
%TD*%
%TA.AperFunction,Conductor*%
%ADD36C,0.500000*%
%TD*%
%TA.AperFunction,Conductor*%
%ADD37C,0.250000*%
%TD*%
G04 APERTURE END LIST*
D10*
%TO.P,J102,1,Pin_1*%
%TO.N,GND*%
X92145000Y-82560000D03*
D11*
%TO.P,J102,2,Pin_2*%
%TO.N,BOOT*%
X92145000Y-85100000D03*
%TO.P,J102,3,Pin_3*%
%TO.N,RXD*%
X92145000Y-87640000D03*
%TO.P,J102,4,Pin_4*%
%TO.N,TXD*%
X92145000Y-90180000D03*
%TD*%
D12*
%TO.P,C304,1*%
%TO.N,Net-(C304-Pad1)*%
X106807000Y-110985000D03*
%TO.P,C304,2*%
%TO.N,GND*%
X106807000Y-112535000D03*
%TD*%
D13*
%TO.P,R307,1*%
%TO.N,Net-(C307-Pad1)*%
X117475000Y-112585000D03*
%TO.P,R307,2*%
%TO.N,Net-(C308-Pad1)*%
X117475000Y-110935000D03*
%TD*%
D14*
%TO.P,R212,1*%
%TO.N,Net-(D203-Pad1)*%
X132016000Y-121031000D03*
%TO.P,R212,2*%
%TO.N,DigX_D2*%
X130366000Y-121031000D03*
%TD*%
D15*
%TO.P,Q206,1,B*%
%TO.N,A11*%
X128260000Y-79240000D03*
%TO.P,Q206,2,E*%
%TO.N,GND*%
X128260000Y-78240000D03*
%TO.P,Q206,3,C*%
%TO.N,B11*%
X129550000Y-78740000D03*
%TD*%
D10*
%TO.P,J101,1,Pin_1*%
%TO.N,MIC*%
X94615000Y-95250000D03*
D11*
%TO.P,J101,2,Pin_2*%
%TO.N,/SQUELCH*%
X97155000Y-95250000D03*
%TO.P,J101,3,Pin_3*%
%TO.N,Net-(J101-Pad3)*%
X94615000Y-97790000D03*
%TO.P,J101,4,Pin_4*%
%TO.N,SQL_SENSE*%
X97155000Y-97790000D03*
%TO.P,J101,5,Pin_5*%
%TO.N,Net-(J101-Pad5)*%
X94615000Y-100330000D03*
%TO.P,J101,6,Pin_6*%
%TO.N,unconnected-(J101-Pad6)*%
X97155000Y-100330000D03*
%TO.P,J101,7,Pin_7*%
%TO.N,Net-(J101-Pad7)*%
X94615000Y-102870000D03*
%TO.P,J101,8,Pin_8*%
%TO.N,ONOFF*%
X97155000Y-102870000D03*
%TO.P,J101,9,Pin_9*%
%TO.N,+8V*%
X94615000Y-105410000D03*
%TO.P,J101,10,Pin_10*%
%TO.N,TX_FLAT*%
X97155000Y-105410000D03*
%TO.P,J101,11,Pin_11*%
%TO.N,/HUP*%
X94615000Y-107950000D03*
%TO.P,J101,12,Pin_12*%
%TO.N,TX_FLAT*%
X97155000Y-107950000D03*
%TO.P,J101,13,Pin_13*%
%TO.N,St2*%
X94615000Y-110490000D03*
%TO.P,J101,14,Pin_14*%
%TO.N,RX_FLAT*%
X97155000Y-110490000D03*
%TO.P,J101,15,Pin_15*%
%TO.N,/D*%
X94615000Y-113030000D03*
%TO.P,J101,16,Pin_16*%
%TO.N,RX_FLAT*%
X97155000Y-113030000D03*
%TO.P,J101,17,Pin_17*%
%TO.N,/C*%
X94615000Y-115570000D03*
%TO.P,J101,18,Pin_18*%
%TO.N,+8V*%
X97155000Y-115570000D03*
%TO.P,J101,19,Pin_19*%
%TO.N,/B*%
X94615000Y-118110000D03*
%TO.P,J101,20,Pin_20*%
%TO.N,Net-(D101-Pad1)*%
X97155000Y-118110000D03*
%TO.P,J101,21,Pin_21*%
%TO.N,/A*%
X94615000Y-120650000D03*
%TO.P,J101,22,Pin_22*%
%TO.N,GND*%
X97155000Y-120650000D03*
%TO.P,J101,23,Pin_23*%
%TO.N,St1*%
X94615000Y-123190000D03*
%TO.P,J101,24,Pin_24*%
%TO.N,TX_NF*%
X97155000Y-123190000D03*
%TO.P,J101,25,Pin_25*%
%TO.N,/LED_GN*%
X94615000Y-125730000D03*
%TO.P,J101,26,Pin_26*%
%TO.N,TX_NF*%
X97155000Y-125730000D03*
%TO.P,J101,27,Pin_27*%
%TO.N,/DEL*%
X94615000Y-128270000D03*
%TO.P,J101,28,Pin_28*%
%TO.N,VDC*%
X97155000Y-128270000D03*
%TO.P,J101,29,Pin_29*%
%TO.N,/CALL2*%
X94615000Y-130810000D03*
%TO.P,J101,30,Pin_30*%
%TO.N,RX_NF*%
X97155000Y-130810000D03*
%TO.P,J101,31,Pin_31*%
%TO.N,/CALL1*%
X94615000Y-133350000D03*
%TO.P,J101,32,Pin_32*%
%TO.N,Net-(J101-Pad32)*%
X97155000Y-133350000D03*
%TD*%
D15*
%TO.P,Q203,1,B*%
%TO.N,A02*%
X120660000Y-99576000D03*
%TO.P,Q203,2,E*%
%TO.N,GND*%
X120660000Y-100576000D03*
%TO.P,Q203,3,C*%
%TO.N,B02*%
X119370000Y-100076000D03*
%TD*%
%TO.P,Q210,1,B*%
%TO.N,A13*%
X128260000Y-74160000D03*
%TO.P,Q210,2,E*%
%TO.N,GND*%
X128260000Y-73160000D03*
%TO.P,Q210,3,C*%
%TO.N,B13*%
X129550000Y-73660000D03*
%TD*%
%TO.P,Q215,1,B*%
%TO.N,A08*%
X128260000Y-86860000D03*
%TO.P,Q215,2,E*%
%TO.N,GND*%
X128260000Y-85860000D03*
%TO.P,Q215,3,C*%
%TO.N,B08*%
X129550000Y-86360000D03*
%TD*%
D16*
%TO.P,D209,1,K*%
%TO.N,Net-(D209-Pad1)*%
X97409000Y-81314000D03*
%TO.P,D209,2,A*%
%TO.N,Net-(D201-Pad2)*%
X97409000Y-79214000D03*
%TD*%
D14*
%TO.P,R209,1*%
%TO.N,Net-(D212-Pad1)*%
X132016000Y-125603000D03*
%TO.P,R209,2*%
%TO.N,DigX_MA0*%
X130366000Y-125603000D03*
%TD*%
D16*
%TO.P,D206,1,K*%
%TO.N,Net-(D206-Pad1)*%
X94234000Y-68038000D03*
%TO.P,D206,2,A*%
%TO.N,Net-(D206-Pad2)*%
X94234000Y-70138000D03*
%TD*%
D17*
%TO.P,R107,1*%
%TO.N,+3V3*%
X90361000Y-120650000D03*
%TO.P,R107,2*%
%TO.N,/A*%
X92011000Y-120650000D03*
%TD*%
%TO.P,R104,1*%
%TO.N,+3V3*%
X90361000Y-113030000D03*
%TO.P,R104,2*%
%TO.N,/D*%
X92011000Y-113030000D03*
%TD*%
%TO.P,R105,1*%
%TO.N,+3V3*%
X90361000Y-115570000D03*
%TO.P,R105,2*%
%TO.N,/C*%
X92011000Y-115570000D03*
%TD*%
D14*
%TO.P,R202,1*%
%TO.N,+3V3*%
X122110000Y-83439000D03*
%TO.P,R202,2*%
%TO.N,Net-(D202-Pad2)*%
X120460000Y-83439000D03*
%TD*%
D18*
%TO.P,R305,1*%
%TO.N,Net-(R305-Pad1)*%
X122047000Y-110935000D03*
%TO.P,R305,2*%
%TO.N,Net-(C306-Pad1)*%
X122047000Y-112585000D03*
%TD*%
D14*
%TO.P,R217,1*%
%TO.N,B05*%
X126936000Y-95631000D03*
%TO.P,R217,2*%
%TO.N,GND*%
X125286000Y-95631000D03*
%TD*%
D15*
%TO.P,Q204,1,B*%
%TO.N,A10*%
X128260000Y-81780000D03*
%TO.P,Q204,2,E*%
%TO.N,GND*%
X128260000Y-80780000D03*
%TO.P,Q204,3,C*%
%TO.N,B10*%
X129550000Y-81280000D03*
%TD*%
D19*
%TO.P,C306,1*%
%TO.N,Net-(C306-Pad1)*%
X123571000Y-112535000D03*
%TO.P,C306,2*%
%TO.N,GND*%
X123571000Y-110985000D03*
%TD*%
D16*
%TO.P,D205,1,K*%
%TO.N,Net-(D205-Pad1)*%
X96520000Y-68038000D03*
%TO.P,D205,2,A*%
%TO.N,Net-(D205-Pad2)*%
X96520000Y-70138000D03*
%TD*%
%TO.P,D204,1,K*%
%TO.N,Net-(D204-Pad1)*%
X100330000Y-68038000D03*
%TO.P,D204,2,A*%
%TO.N,Net-(D204-Pad2)*%
X100330000Y-70138000D03*
%TD*%
D14*
%TO.P,R214,1*%
%TO.N,Net-(D202-Pad1)*%
X132016000Y-124079000D03*
%TO.P,R214,2*%
%TO.N,DigX_DIV*%
X130366000Y-124079000D03*
%TD*%
D19*
%TO.P,C302,1*%
%TO.N,Net-(C302-Pad1)*%
X114427000Y-112535000D03*
%TO.P,C302,2*%
%TO.N,GND*%
X114427000Y-110985000D03*
%TD*%
D20*
%TO.P,U102,1,GND*%
%TO.N,GND*%
X107086000Y-98439000D03*
%TO.P,U102,2,VO*%
%TO.N,+3V3*%
X107086000Y-96139000D03*
D21*
X113386000Y-96139000D03*
D20*
%TO.P,U102,3,VI*%
%TO.N,+8V*%
X107086000Y-93839000D03*
%TD*%
D17*
%TO.P,R109,1*%
%TO.N,+3V3*%
X90361000Y-130810000D03*
%TO.P,R109,2*%
%TO.N,/CALL2*%
X92011000Y-130810000D03*
%TD*%
D15*
%TO.P,Q208,1,B*%
%TO.N,A12*%
X128260000Y-76700000D03*
%TO.P,Q208,2,E*%
%TO.N,GND*%
X128260000Y-75700000D03*
%TO.P,Q208,3,C*%
%TO.N,B12*%
X129550000Y-76200000D03*
%TD*%
D13*
%TO.P,R313,1*%
%TO.N,GND*%
X126619000Y-112585000D03*
%TO.P,R313,2*%
%TO.N,Net-(C314-Pad1)*%
X126619000Y-110935000D03*
%TD*%
D15*
%TO.P,Q102,1,B*%
%TO.N,MUTE*%
X103261000Y-133993000D03*
%TO.P,Q102,2,E*%
%TO.N,GND*%
X103261000Y-134993000D03*
%TO.P,Q102,3,C*%
%TO.N,Net-(J101-Pad32)*%
X101971000Y-134493000D03*
%TD*%
D12*
%TO.P,C101,1*%
%TO.N,GND*%
X99822000Y-120637000D03*
%TO.P,C101,2*%
%TO.N,+3V3*%
X99822000Y-122187000D03*
%TD*%
%TO.P,C301,1*%
%TO.N,+3V3*%
X106807000Y-105524000D03*
%TO.P,C301,2*%
%TO.N,GND*%
X106807000Y-107074000D03*
%TD*%
D22*
%TO.P,Q103,1,B*%
%TO.N,SQL_OUT*%
X105529000Y-116715000D03*
%TO.P,Q103,2,E*%
%TO.N,GND*%
X104529000Y-116715000D03*
%TO.P,Q103,3,C*%
%TO.N,/SQUELCH*%
X105029000Y-115425000D03*
%TD*%
D13*
%TO.P,R310,1*%
%TO.N,Net-(C314-Pad1)*%
X126619000Y-109537000D03*
%TO.P,R310,2*%
%TO.N,+3V3*%
X126619000Y-107887000D03*
%TD*%
D23*
%TO.P,C203,1*%
%TO.N,GND*%
X122060000Y-75692000D03*
%TO.P,C203,2*%
%TO.N,+3V3*%
X120510000Y-75692000D03*
%TD*%
%TO.P,C311,1*%
%TO.N,Net-(C310-Pad1)*%
X101613000Y-107696000D03*
%TO.P,C311,2*%
%TO.N,TX_NF*%
X100063000Y-107696000D03*
%TD*%
D13*
%TO.P,R114,1*%
%TO.N,+3V3*%
X107315000Y-130873000D03*
%TO.P,R114,2*%
%TO.N,Net-(C106-Pad1)*%
X107315000Y-129223000D03*
%TD*%
D24*
%TO.P,J201,1,Pin_1*%
%TO.N,GND*%
X116840000Y-66040000D03*
D25*
%TO.P,J201,2,Pin_2*%
%TO.N,Net-(D206-Pad1)*%
X116840000Y-68580000D03*
%TO.P,J201,3,Pin_3*%
%TO.N,Net-(D205-Pad1)*%
X116840000Y-71120000D03*
%TO.P,J201,4,Pin_4*%
%TO.N,Net-(D212-Pad1)*%
X116840000Y-73660000D03*
%TO.P,J201,5,Pin_5*%
%TO.N,Net-(D204-Pad1)*%
X116840000Y-76200000D03*
%TO.P,J201,6,Pin_6*%
%TO.N,Net-(D211-Pad1)*%
X116840000Y-78740000D03*
%TO.P,J201,7,Pin_7*%
%TO.N,Net-(D203-Pad1)*%
X116840000Y-81280000D03*
%TO.P,J201,8,Pin_8*%
%TO.N,Net-(D210-Pad1)*%
X116840000Y-83820000D03*
%TO.P,J201,9,Pin_9*%
%TO.N,Net-(D202-Pad1)*%
X116840000Y-86360000D03*
%TO.P,J201,10,Pin_10*%
%TO.N,Net-(D209-Pad1)*%
X116840000Y-88900000D03*
%TO.P,J201,11,Pin_11*%
%TO.N,Net-(D201-Pad1)*%
X116840000Y-91440000D03*
%TO.P,J201,12,Pin_12*%
%TO.N,unconnected-(J201-Pad12)*%
X116840000Y-93980000D03*
%TO.P,J201,13,Pin_13*%
%TO.N,B01*%
X116840000Y-96520000D03*
%TO.P,J201,14,Pin_14*%
%TO.N,B02*%
X116840000Y-99060000D03*
%TO.P,J201,15,Pin_15*%
%TO.N,B03*%
X132080000Y-99060000D03*
%TO.P,J201,16,Pin_16*%
%TO.N,B04*%
X132080000Y-96520000D03*
%TO.P,J201,17,Pin_17*%
%TO.N,B05*%
X132080000Y-93980000D03*
%TO.P,J201,18,Pin_18*%
%TO.N,B06*%
X132080000Y-91440000D03*
%TO.P,J201,19,Pin_19*%
%TO.N,B07*%
X132080000Y-88900000D03*
%TO.P,J201,20,Pin_20*%
%TO.N,B08*%
X132080000Y-86360000D03*
%TO.P,J201,21,Pin_21*%
%TO.N,B09*%
X132080000Y-83820000D03*
%TO.P,J201,22,Pin_22*%
%TO.N,B10*%
X132080000Y-81280000D03*
%TO.P,J201,23,Pin_23*%
%TO.N,B11*%
X132080000Y-78740000D03*
%TO.P,J201,24,Pin_24*%
%TO.N,B12*%
X132080000Y-76200000D03*
%TO.P,J201,25,Pin_25*%
%TO.N,B13*%
X132080000Y-73660000D03*
%TO.P,J201,26,Pin_26*%
%TO.N,B14*%
X132080000Y-71120000D03*
%TO.P,J201,27,Pin_27*%
%TO.N,B15*%
X132080000Y-68580000D03*
%TO.P,J201,28,Pin_28*%
%TO.N,B16*%
X132080000Y-66040000D03*
%TD*%
D17*
%TO.P,R108,1*%
%TO.N,+3V3*%
X90361000Y-128270000D03*
%TO.P,R108,2*%
%TO.N,/DEL*%
X92011000Y-128270000D03*
%TD*%
D26*
%TO.P,D214,1,K*%
%TO.N,B09*%
X126272000Y-84836000D03*
%TO.P,D214,2,A*%
%TO.N,Net-(D201-Pad2)*%
X124172000Y-84836000D03*
%TD*%
D19*
%TO.P,C303,1*%
%TO.N,Net-(C303-Pad1)*%
X109855000Y-112535000D03*
%TO.P,C303,2*%
%TO.N,Net-(C303-Pad2)*%
X109855000Y-110985000D03*
%TD*%
D14*
%TO.P,R117,1*%
%TO.N,Net-(J101-Pad3)*%
X92011000Y-97790000D03*
%TO.P,R117,2*%
%TO.N,RXD*%
X90361000Y-97790000D03*
%TD*%
D26*
%TO.P,D202,1,K*%
%TO.N,Net-(D202-Pad1)*%
X101380000Y-85344000D03*
%TO.P,D202,2,A*%
%TO.N,Net-(D202-Pad2)*%
X99280000Y-85344000D03*
%TD*%
D14*
%TO.P,R213,1*%
%TO.N,Net-(D210-Pad1)*%
X132016000Y-122555000D03*
%TO.P,R213,2*%
%TO.N,DigX_D3*%
X130366000Y-122555000D03*
%TD*%
D27*
%TO.P,U202,1,~{PL}*%
%TO.N,LATCH*%
X92964000Y-72201000D03*
%TO.P,U202,2,CP*%
%TO.N,CLK*%
X94234000Y-72201000D03*
%TO.P,U202,3,D4*%
%TO.N,Net-(D206-Pad2)*%
X95504000Y-72201000D03*
%TO.P,U202,4,D5*%
%TO.N,Net-(D205-Pad2)*%
X96774000Y-72201000D03*
%TO.P,U202,5,D6*%
%TO.N,Net-(D212-Pad2)*%
X98044000Y-72201000D03*
%TO.P,U202,6,D7*%
%TO.N,Net-(D204-Pad2)*%
X99314000Y-72201000D03*
%TO.P,U202,7,~{Q7}*%
%TO.N,unconnected-(U202-Pad7)*%
X100584000Y-72201000D03*
%TO.P,U202,8,GND*%
%TO.N,GND*%
X101854000Y-72201000D03*
%TO.P,U202,9,Q7*%
%TO.N,MISO_PLL*%
X101854000Y-77151000D03*
%TO.P,U202,10,DS*%
%TO.N,GND*%
X100584000Y-77151000D03*
%TO.P,U202,11,D0*%
%TO.N,Net-(D203-Pad2)*%
X99314000Y-77151000D03*
%TO.P,U202,12,D1*%
%TO.N,Net-(D202-Pad2)*%
X98044000Y-77151000D03*
%TO.P,U202,13,D2*%
%TO.N,Net-(D201-Pad2)*%
X96774000Y-77151000D03*
%TO.P,U202,14,D3*%
%TO.N,GND*%
X95504000Y-77151000D03*
%TO.P,U202,15,~{CE}*%
X94234000Y-77151000D03*
%TO.P,U202,16,VCC*%
%TO.N,+3V3*%
X92964000Y-77151000D03*
%TD*%
D28*
%TO.P,C305,1*%
%TO.N,+3V3*%
X118097000Y-103886000D03*
%TO.P,C305,2*%
%TO.N,GND*%
X119647000Y-103886000D03*
%TD*%
D19*
%TO.P,C309,1*%
%TO.N,Net-(C303-Pad2)*%
X111379000Y-103962500D03*
%TO.P,C309,2*%
%TO.N,Net-(C309-Pad2)*%
X111379000Y-102412500D03*
%TD*%
%TO.P,C307,1*%
%TO.N,Net-(C307-Pad1)*%
X118999000Y-112535000D03*
%TO.P,C307,2*%
%TO.N,ADC1*%
X118999000Y-110985000D03*
%TD*%
D26*
%TO.P,D207,1,K*%
%TO.N,B12*%
X126272000Y-77597000D03*
%TO.P,D207,2,A*%
%TO.N,Net-(D204-Pad2)*%
X124172000Y-77597000D03*
%TD*%
D15*
%TO.P,Q201,1,B*%
%TO.N,A01*%
X120660000Y-97417000D03*
%TO.P,Q201,2,E*%
%TO.N,GND*%
X120660000Y-98417000D03*
%TO.P,Q201,3,C*%
%TO.N,B01*%
X119370000Y-97917000D03*
%TD*%
D13*
%TO.P,R309,1*%
%TO.N,GND*%
X108331000Y-104012500D03*
%TO.P,R309,2*%
%TO.N,Net-(C310-Pad1)*%
X108331000Y-102362500D03*
%TD*%
D12*
%TO.P,C201,1*%
%TO.N,GND*%
X91413000Y-75806000D03*
%TO.P,C201,2*%
%TO.N,+3V3*%
X91413000Y-77356000D03*
%TD*%
D14*
%TO.P,R203,1*%
%TO.N,+3V3*%
X122110000Y-81026000D03*
%TO.P,R203,2*%
%TO.N,Net-(D203-Pad2)*%
X120460000Y-81026000D03*
%TD*%
D15*
%TO.P,Q209,1,B*%
%TO.N,A05*%
X128260000Y-94480000D03*
%TO.P,Q209,2,E*%
%TO.N,GND*%
X128260000Y-93480000D03*
%TO.P,Q209,3,C*%
%TO.N,B05*%
X129550000Y-93980000D03*
%TD*%
D17*
%TO.P,R215,1*%
%TO.N,Net-(D205-Pad1)*%
X119952000Y-65659000D03*
%TO.P,R215,2*%
%TO.N,GND*%
X121602000Y-65659000D03*
%TD*%
D26*
%TO.P,D203,1,K*%
%TO.N,Net-(D203-Pad1)*%
X101380000Y-81534000D03*
%TO.P,D203,2,A*%
%TO.N,Net-(D203-Pad2)*%
X99280000Y-81534000D03*
%TD*%
D14*
%TO.P,R208,1*%
%TO.N,Net-(D205-Pad1)*%
X132016000Y-127127000D03*
%TO.P,R208,2*%
%TO.N,DigX_MA1*%
X130366000Y-127127000D03*
%TD*%
D19*
%TO.P,C106,1*%
%TO.N,Net-(C106-Pad1)*%
X108839000Y-130823000D03*
%TO.P,C106,2*%
%TO.N,GND*%
X108839000Y-129273000D03*
%TD*%
D23*
%TO.P,C310,1*%
%TO.N,Net-(C310-Pad1)*%
X101613000Y-109220000D03*
%TO.P,C310,2*%
%TO.N,TX_FLAT*%
X100063000Y-109220000D03*
%TD*%
%TO.P,C202,1*%
%TO.N,GND*%
X121806000Y-96012000D03*
%TO.P,C202,2*%
%TO.N,+3V3*%
X120256000Y-96012000D03*
%TD*%
D12*
%TO.P,C102,1*%
%TO.N,+3V3*%
X107315000Y-132702000D03*
%TO.P,C102,2*%
%TO.N,GND*%
X107315000Y-134252000D03*
%TD*%
D23*
%TO.P,C315,1*%
%TO.N,Net-(C315-Pad1)*%
X123584000Y-103378000D03*
%TO.P,C315,2*%
%TO.N,GND*%
X122034000Y-103378000D03*
%TD*%
D14*
%TO.P,R115,1*%
%TO.N,Net-(J101-Pad7)*%
X92011000Y-102870000D03*
%TO.P,R115,2*%
%TO.N,BOOT*%
X90361000Y-102870000D03*
%TD*%
D13*
%TO.P,R304,1*%
%TO.N,GND*%
X115951000Y-109537000D03*
%TO.P,R304,2*%
%TO.N,DAC1*%
X115951000Y-107887000D03*
%TD*%
D17*
%TO.P,R206,1*%
%TO.N,+3V3*%
X90869000Y-70104000D03*
%TO.P,R206,2*%
%TO.N,Net-(D206-Pad2)*%
X92519000Y-70104000D03*
%TD*%
D15*
%TO.P,Q212,1,B*%
%TO.N,A14*%
X128260000Y-71620000D03*
%TO.P,Q212,2,E*%
%TO.N,GND*%
X128260000Y-70620000D03*
%TO.P,Q212,3,C*%
%TO.N,B14*%
X129550000Y-71120000D03*
%TD*%
D13*
%TO.P,R314,1*%
%TO.N,Net-(R314-Pad1)*%
X125095000Y-106489000D03*
%TO.P,R314,2*%
%TO.N,Net-(R305-Pad1)*%
X125095000Y-104839000D03*
%TD*%
D17*
%TO.P,R216,1*%
%TO.N,Net-(D212-Pad1)*%
X123381000Y-65659000D03*
%TO.P,R216,2*%
%TO.N,GND*%
X125031000Y-65659000D03*
%TD*%
D23*
%TO.P,C105,1*%
%TO.N,+3V3*%
X104915000Y-96139000D03*
%TO.P,C105,2*%
%TO.N,GND*%
X103365000Y-96139000D03*
%TD*%
D28*
%TO.P,C312,1*%
%TO.N,RX_FLAT*%
X100063000Y-112268000D03*
%TO.P,C312,2*%
%TO.N,Net-(C312-Pad2)*%
X101613000Y-112268000D03*
%TD*%
D14*
%TO.P,R116,1*%
%TO.N,Net-(J101-Pad5)*%
X92011000Y-100330000D03*
%TO.P,R116,2*%
%TO.N,TXD*%
X90361000Y-100330000D03*
%TD*%
D29*
%TO.P,U302,1*%
%TO.N,Net-(R305-Pad1)*%
X122998000Y-105537000D03*
%TO.P,U302,2,-*%
%TO.N,Net-(R314-Pad1)*%
X122998000Y-106807000D03*
%TO.P,U302,3,+*%
%TO.N,Net-(C312-Pad2)*%
X122998000Y-108077000D03*
%TO.P,U302,4,V-*%
%TO.N,GND*%
X122998000Y-109347000D03*
%TO.P,U302,5,+*%
%TO.N,Net-(C308-Pad1)*%
X118048000Y-109347000D03*
%TO.P,U302,6,-*%
%TO.N,ADC1*%
X118048000Y-108077000D03*
%TO.P,U302,7*%
X118048000Y-106807000D03*
%TO.P,U302,8,V+*%
%TO.N,+3V3*%
X118048000Y-105537000D03*
%TD*%
D30*
%TO.P,U103,1,GND*%
%TO.N,GND*%
X110991000Y-133484000D03*
%TO.P,U103,2,VDD*%
%TO.N,+3V3*%
X110991000Y-132214000D03*
%TO.P,U103,3,EN*%
%TO.N,Net-(C106-Pad1)*%
X110991000Y-130944000D03*
%TO.P,U103,4,SENSOR_VP*%
%TO.N,DigX_MA1*%
X110991000Y-129674000D03*
%TO.P,U103,5,SENSOR_VN*%
%TO.N,DigX_MA0*%
X110991000Y-128404000D03*
%TO.P,U103,6,IO34*%
%TO.N,MISO*%
X110991000Y-127134000D03*
%TO.P,U103,7,IO35*%
%TO.N,PTT_SENSE*%
X110991000Y-125864000D03*
%TO.P,U103,8,IO32*%
%TO.N,CLK*%
X110991000Y-124594000D03*
%TO.P,U103,9,IO33*%
%TO.N,ADC1*%
X110991000Y-123324000D03*
%TO.P,U103,10,IO25*%
%TO.N,DAC1*%
X110991000Y-122054000D03*
%TO.P,U103,11,IO26*%
%TO.N,LATCH*%
X110991000Y-120784000D03*
%TO.P,U103,12,IO27*%
%TO.N,PTT_OUT*%
X110991000Y-119514000D03*
%TO.P,U103,13,IO14*%
%TO.N,Net-(D102-Pad1)*%
X110991000Y-118244000D03*
%TO.P,U103,14,IO12*%
%TO.N,SQL_OUT*%
X110991000Y-116974000D03*
D31*
%TO.P,U103,15,GND*%
%TO.N,GND*%
X113776000Y-115974000D03*
%TO.P,U103,16,IO13*%
%TO.N,SQL_SENSE*%
X115046000Y-115974000D03*
%TO.P,U103,17,SHD/SD2*%
%TO.N,unconnected-(U103-Pad17)*%
X116316000Y-115974000D03*
%TO.P,U103,18,SWP/SD3*%
%TO.N,unconnected-(U103-Pad18)*%
X117586000Y-115974000D03*
%TO.P,U103,19,SCS/CMD*%
%TO.N,unconnected-(U103-Pad19)*%
X118856000Y-115974000D03*
%TO.P,U103,20,SCK/CLK*%
%TO.N,unconnected-(U103-Pad20)*%
X120126000Y-115974000D03*
%TO.P,U103,21,SDO/SD0*%
%TO.N,unconnected-(U103-Pad21)*%
X121396000Y-115974000D03*
%TO.P,U103,22,SDI/SD1*%
%TO.N,unconnected-(U103-Pad22)*%
X122666000Y-115974000D03*
%TO.P,U103,23,IO15*%
%TO.N,unconnected-(U103-Pad23)*%
X123936000Y-115974000D03*
%TO.P,U103,24,IO2*%
%TO.N,MOSI*%
X125206000Y-115974000D03*
D30*
%TO.P,U103,25,IO0*%
%TO.N,BOOT*%
X127991000Y-116974000D03*
%TO.P,U103,26,IO4*%
%TO.N,DigX_D0*%
X127991000Y-118244000D03*
%TO.P,U103,27,IO16*%
%TO.N,DigX_D1*%
X127991000Y-119514000D03*
%TO.P,U103,28,IO17*%
%TO.N,DigX_D2*%
X127991000Y-120784000D03*
%TO.P,U103,29,IO5*%
%TO.N,DigX_D3*%
X127991000Y-122054000D03*
%TO.P,U103,30,IO18*%
%TO.N,DigX_DIV*%
X127991000Y-123324000D03*
%TO.P,U103,31,IO19*%
%TO.N,Net-(D103-Pad1)*%
X127991000Y-124594000D03*
%TO.P,U103,32,NC*%
%TO.N,unconnected-(U103-Pad32)*%
X127991000Y-125864000D03*
%TO.P,U103,33,IO21*%
%TO.N,unconnected-(U103-Pad33)*%
X127991000Y-127134000D03*
%TO.P,U103,34,RXD0/IO3*%
%TO.N,RXD*%
X127991000Y-128404000D03*
%TO.P,U103,35,TXD0/IO1*%
%TO.N,TXD*%
X127991000Y-129674000D03*
%TO.P,U103,36,IO22*%
%TO.N,LED*%
X127991000Y-130944000D03*
%TO.P,U103,37,IO23*%
%TO.N,MUTE*%
X127991000Y-132214000D03*
%TO.P,U103,38,GND*%
%TO.N,GND*%
X127991000Y-133484000D03*
D32*
%TO.P,U103,39,GND*%
X118491000Y-125984000D03*
%TD*%
D17*
%TO.P,R204,1*%
%TO.N,+3V3*%
X90869000Y-67056000D03*
%TO.P,R204,2*%
%TO.N,Net-(D212-Pad2)*%
X92519000Y-67056000D03*
%TD*%
D12*
%TO.P,C314,1*%
%TO.N,Net-(C314-Pad1)*%
X125095000Y-110985000D03*
%TO.P,C314,2*%
%TO.N,GND*%
X125095000Y-112535000D03*
%TD*%
D15*
%TO.P,Q202,1,B*%
%TO.N,A09*%
X128260000Y-84320000D03*
%TO.P,Q202,2,E*%
%TO.N,GND*%
X128260000Y-83320000D03*
%TO.P,Q202,3,C*%
%TO.N,B09*%
X129550000Y-83820000D03*
%TD*%
D26*
%TO.P,D211,1,K*%
%TO.N,Net-(D211-Pad1)*%
X101380000Y-79629000D03*
%TO.P,D211,2,A*%
%TO.N,Net-(D203-Pad2)*%
X99280000Y-79629000D03*
%TD*%
D15*
%TO.P,Q104,1,B*%
%TO.N,LED*%
X100848000Y-133993000D03*
%TO.P,Q104,2,E*%
%TO.N,GND*%
X100848000Y-134993000D03*
%TO.P,Q104,3,C*%
%TO.N,/LED_GN*%
X99558000Y-134493000D03*
%TD*%
D26*
%TO.P,D101,1,K*%
%TO.N,Net-(D101-Pad1)*%
X100042000Y-118491000D03*
%TO.P,D101,2,A*%
%TO.N,PTT_SENSE*%
X102142000Y-118491000D03*
%TD*%
D17*
%TO.P,R106,1*%
%TO.N,+3V3*%
X90361000Y-118110000D03*
%TO.P,R106,2*%
%TO.N,/B*%
X92011000Y-118110000D03*
%TD*%
D16*
%TO.P,D201,1,K*%
%TO.N,Net-(D201-Pad1)*%
X95504000Y-81314000D03*
%TO.P,D201,2,A*%
%TO.N,Net-(D201-Pad2)*%
X95504000Y-79214000D03*
%TD*%
D13*
%TO.P,R303,1*%
%TO.N,Net-(C303-Pad1)*%
X108331000Y-112585000D03*
%TO.P,R303,2*%
%TO.N,Net-(C304-Pad1)*%
X108331000Y-110935000D03*
%TD*%
D17*
%TO.P,R110,1*%
%TO.N,+3V3*%
X90361000Y-133350000D03*
%TO.P,R110,2*%
%TO.N,/CALL1*%
X92011000Y-133350000D03*
%TD*%
D14*
%TO.P,R211,1*%
%TO.N,Net-(D211-Pad1)*%
X132016000Y-119507000D03*
%TO.P,R211,2*%
%TO.N,DigX_D1*%
X130366000Y-119507000D03*
%TD*%
D26*
%TO.P,D208,1,K*%
%TO.N,B10*%
X126272000Y-82550000D03*
%TO.P,D208,2,A*%
%TO.N,Net-(D202-Pad2)*%
X124172000Y-82550000D03*
%TD*%
D17*
%TO.P,R205,1*%
%TO.N,+3V3*%
X90869000Y-68580000D03*
%TO.P,R205,2*%
%TO.N,Net-(D205-Pad2)*%
X92519000Y-68580000D03*
%TD*%
D15*
%TO.P,Q213,1,B*%
%TO.N,A07*%
X128260000Y-89400000D03*
%TO.P,Q213,2,E*%
%TO.N,GND*%
X128260000Y-88400000D03*
%TO.P,Q213,3,C*%
%TO.N,B07*%
X129550000Y-88900000D03*
%TD*%
D13*
%TO.P,R111,1*%
%TO.N,+3V3*%
X101346000Y-122237000D03*
%TO.P,R111,2*%
%TO.N,PTT_SENSE*%
X101346000Y-120587000D03*
%TD*%
D15*
%TO.P,Q216,1,B*%
%TO.N,A16*%
X128260000Y-66540000D03*
%TO.P,Q216,2,E*%
%TO.N,GND*%
X128260000Y-65540000D03*
%TO.P,Q216,3,C*%
%TO.N,B16*%
X129550000Y-66040000D03*
%TD*%
D22*
%TO.P,Q101,1,B*%
%TO.N,PTT_OUT*%
X105529000Y-119136000D03*
%TO.P,Q101,2,E*%
%TO.N,GND*%
X104529000Y-119136000D03*
%TO.P,Q101,3,C*%
%TO.N,Net-(D101-Pad1)*%
X105029000Y-117846000D03*
%TD*%
D23*
%TO.P,C104,1*%
%TO.N,+8V*%
X104915000Y-93853000D03*
%TO.P,C104,2*%
%TO.N,GND*%
X103365000Y-93853000D03*
%TD*%
D18*
%TO.P,R306,1*%
%TO.N,Net-(C306-Pad1)*%
X120523000Y-110935000D03*
%TO.P,R306,2*%
%TO.N,Net-(C307-Pad1)*%
X120523000Y-112585000D03*
%TD*%
D17*
%TO.P,R102,1*%
%TO.N,+8V*%
X90361000Y-110490000D03*
%TO.P,R102,2*%
%TO.N,St2*%
X92011000Y-110490000D03*
%TD*%
D12*
%TO.P,C103,1*%
%TO.N,+3V3*%
X108839000Y-132702000D03*
%TO.P,C103,2*%
%TO.N,GND*%
X108839000Y-134252000D03*
%TD*%
D26*
%TO.P,D210,1,K*%
%TO.N,Net-(D210-Pad1)*%
X101380000Y-83439000D03*
%TO.P,D210,2,A*%
%TO.N,Net-(D202-Pad2)*%
X99280000Y-83439000D03*
%TD*%
D29*
%TO.P,U301,1*%
%TO.N,Net-(R301-Pad1)*%
X113854000Y-105537000D03*
%TO.P,U301,2,-*%
X113854000Y-106807000D03*
%TO.P,U301,3,+*%
%TO.N,DAC1*%
X113854000Y-108077000D03*
%TO.P,U301,4,V-*%
%TO.N,GND*%
X113854000Y-109347000D03*
%TO.P,U301,5,+*%
%TO.N,Net-(C304-Pad1)*%
X108904000Y-109347000D03*
%TO.P,U301,6,-*%
%TO.N,Net-(C303-Pad2)*%
X108904000Y-108077000D03*
%TO.P,U301,7*%
X108904000Y-106807000D03*
%TO.P,U301,8,V+*%
%TO.N,+3V3*%
X108904000Y-105537000D03*
%TD*%
D17*
%TO.P,R312,1*%
%TO.N,Net-(C315-Pad1)*%
X125032000Y-103378000D03*
%TO.P,R312,2*%
%TO.N,Net-(R312-Pad2)*%
X126682000Y-103378000D03*
%TD*%
D12*
%TO.P,C308,1*%
%TO.N,Net-(C308-Pad1)*%
X115951000Y-110985000D03*
%TO.P,C308,2*%
%TO.N,GND*%
X115951000Y-112535000D03*
%TD*%
D28*
%TO.P,C313,1*%
%TO.N,RX_NF*%
X100063000Y-110744000D03*
%TO.P,C313,2*%
%TO.N,Net-(C312-Pad2)*%
X101613000Y-110744000D03*
%TD*%
D33*
%TO.P,U203,1,QB*%
%TO.N,A10*%
X120280000Y-67876500D03*
%TO.P,U203,2,QC*%
%TO.N,A11*%
X120930000Y-67876500D03*
%TO.P,U203,3,QD*%
%TO.N,A12*%
X121580000Y-67876500D03*
%TO.P,U203,4,QE*%
%TO.N,A13*%
X122230000Y-67876500D03*
%TO.P,U203,5,QF*%
%TO.N,A14*%
X122880000Y-67876500D03*
%TO.P,U203,6,QG*%
%TO.N,A15*%
X123530000Y-67876500D03*
%TO.P,U203,7,QH*%
%TO.N,A16*%
X124180000Y-67876500D03*
%TO.P,U203,8,GND*%
%TO.N,GND*%
X124830000Y-67876500D03*
%TO.P,U203,9,QH'*%
%TO.N,unconnected-(U203-Pad9)*%
X124830000Y-73601500D03*
%TO.P,U203,10,~{SRCLR}*%
%TO.N,+3V3*%
X124180000Y-73601500D03*
%TO.P,U203,11,SRCLK*%
%TO.N,CLK*%
X123530000Y-73601500D03*
%TO.P,U203,12,RCLK*%
%TO.N,LATCH*%
X122880000Y-73601500D03*
%TO.P,U203,13,~{OE}*%
%TO.N,GND*%
X122230000Y-73601500D03*
%TO.P,U203,14,SER*%
%TO.N,Net-(U201-Pad9)*%
X121580000Y-73601500D03*
%TO.P,U203,15,QA*%
%TO.N,A09*%
X120930000Y-73601500D03*
%TO.P,U203,16,VCC*%
%TO.N,+3V3*%
X120280000Y-73601500D03*
%TD*%
D17*
%TO.P,R101,1*%
%TO.N,+8V*%
X90361000Y-123190000D03*
%TO.P,R101,2*%
%TO.N,St1*%
X92011000Y-123190000D03*
%TD*%
D14*
%TO.P,R210,1*%
%TO.N,Net-(D204-Pad1)*%
X132016000Y-117983000D03*
%TO.P,R210,2*%
%TO.N,DigX_D0*%
X130366000Y-117983000D03*
%TD*%
D18*
%TO.P,R308,1*%
%TO.N,Net-(C310-Pad1)*%
X109855000Y-102362500D03*
%TO.P,R308,2*%
%TO.N,Net-(C309-Pad2)*%
X109855000Y-104012500D03*
%TD*%
D16*
%TO.P,D212,1,K*%
%TO.N,Net-(D212-Pad1)*%
X98425000Y-68038000D03*
%TO.P,D212,2,A*%
%TO.N,Net-(D212-Pad2)*%
X98425000Y-70138000D03*
%TD*%
D29*
%TO.P,U101,1,~{PL}*%
%TO.N,LATCH*%
X105218000Y-123698000D03*
%TO.P,U101,2,CP*%
%TO.N,CLK*%
X105218000Y-124968000D03*
%TO.P,U101,3,D4*%
%TO.N,/B*%
X105218000Y-126238000D03*
%TO.P,U101,4,D5*%
%TO.N,/C*%
X105218000Y-127508000D03*
%TO.P,U101,5,D6*%
%TO.N,/D*%
X105218000Y-128778000D03*
%TO.P,U101,6,D7*%
%TO.N,/HUP*%
X105218000Y-130048000D03*
%TO.P,U101,7,~{Q7}*%
%TO.N,unconnected-(U101-Pad7)*%
X105218000Y-131318000D03*
%TO.P,U101,8,GND*%
%TO.N,GND*%
X105218000Y-132588000D03*
%TO.P,U101,9,Q7*%
%TO.N,MISO*%
X100268000Y-132588000D03*
%TO.P,U101,10,DS*%
%TO.N,MISO_PLL*%
X100268000Y-131318000D03*
%TO.P,U101,11,D0*%
%TO.N,/CALL1*%
X100268000Y-130048000D03*
%TO.P,U101,12,D1*%
%TO.N,/CALL2*%
X100268000Y-128778000D03*
%TO.P,U101,13,D2*%
%TO.N,/DEL*%
X100268000Y-127508000D03*
%TO.P,U101,14,D3*%
%TO.N,/A*%
X100268000Y-126238000D03*
%TO.P,U101,15,~{CE}*%
%TO.N,GND*%
X100268000Y-124968000D03*
%TO.P,U101,16,VCC*%
%TO.N,+3V3*%
X100268000Y-123698000D03*
%TD*%
D26*
%TO.P,D102,1,K*%
%TO.N,Net-(D102-Pad1)*%
X105063000Y-121412000D03*
%TO.P,D102,2,A*%
%TO.N,St1*%
X102963000Y-121412000D03*
%TD*%
D15*
%TO.P,Q211,1,B*%
%TO.N,A06*%
X128260000Y-91940000D03*
%TO.P,Q211,2,E*%
%TO.N,GND*%
X128260000Y-90940000D03*
%TO.P,Q211,3,C*%
%TO.N,B06*%
X129550000Y-91440000D03*
%TD*%
D18*
%TO.P,R301,1*%
%TO.N,Net-(R301-Pad1)*%
X112903000Y-110935000D03*
%TO.P,R301,2*%
%TO.N,Net-(C302-Pad1)*%
X112903000Y-112585000D03*
%TD*%
D26*
%TO.P,D103,1,K*%
%TO.N,Net-(D103-Pad1)*%
X102142000Y-116205000D03*
%TO.P,D103,2,A*%
%TO.N,St2*%
X100042000Y-116205000D03*
%TD*%
D33*
%TO.P,U201,1,QB*%
%TO.N,A02*%
X120127000Y-88069500D03*
%TO.P,U201,2,QC*%
%TO.N,A03*%
X120777000Y-88069500D03*
%TO.P,U201,3,QD*%
%TO.N,A04*%
X121427000Y-88069500D03*
%TO.P,U201,4,QE*%
%TO.N,A05*%
X122077000Y-88069500D03*
%TO.P,U201,5,QF*%
%TO.N,A06*%
X122727000Y-88069500D03*
%TO.P,U201,6,QG*%
%TO.N,A07*%
X123377000Y-88069500D03*
%TO.P,U201,7,QH*%
%TO.N,A08*%
X124027000Y-88069500D03*
%TO.P,U201,8,GND*%
%TO.N,GND*%
X124677000Y-88069500D03*
%TO.P,U201,9,QH'*%
%TO.N,Net-(U201-Pad9)*%
X124677000Y-93794500D03*
%TO.P,U201,10,~{SRCLR}*%
%TO.N,+3V3*%
X124027000Y-93794500D03*
%TO.P,U201,11,SRCLK*%
%TO.N,CLK*%
X123377000Y-93794500D03*
%TO.P,U201,12,RCLK*%
%TO.N,LATCH*%
X122727000Y-93794500D03*
%TO.P,U201,13,~{OE}*%
%TO.N,GND*%
X122077000Y-93794500D03*
%TO.P,U201,14,SER*%
%TO.N,MOSI*%
X121427000Y-93794500D03*
%TO.P,U201,15,QA*%
%TO.N,A01*%
X120777000Y-93794500D03*
%TO.P,U201,16,VCC*%
%TO.N,+3V3*%
X120127000Y-93794500D03*
%TD*%
D18*
%TO.P,R302,1*%
%TO.N,Net-(C302-Pad1)*%
X111379000Y-110935000D03*
%TO.P,R302,2*%
%TO.N,Net-(C303-Pad1)*%
X111379000Y-112585000D03*
%TD*%
D15*
%TO.P,Q205,1,B*%
%TO.N,A03*%
X128260000Y-99560000D03*
%TO.P,Q205,2,E*%
%TO.N,GND*%
X128260000Y-98560000D03*
%TO.P,Q205,3,C*%
%TO.N,B03*%
X129550000Y-99060000D03*
%TD*%
D14*
%TO.P,R207,1*%
%TO.N,+3V3*%
X122110000Y-78613000D03*
%TO.P,R207,2*%
%TO.N,Net-(D204-Pad2)*%
X120460000Y-78613000D03*
%TD*%
D17*
%TO.P,R103,1*%
%TO.N,+3V3*%
X90361000Y-107950000D03*
%TO.P,R103,2*%
%TO.N,/HUP*%
X92011000Y-107950000D03*
%TD*%
D15*
%TO.P,Q214,1,B*%
%TO.N,A15*%
X128260000Y-69080000D03*
%TO.P,Q214,2,E*%
%TO.N,GND*%
X128260000Y-68080000D03*
%TO.P,Q214,3,C*%
%TO.N,B15*%
X129550000Y-68580000D03*
%TD*%
D18*
%TO.P,R315,1*%
%TO.N,Net-(R312-Pad2)*%
X126619000Y-104839000D03*
%TO.P,R315,2*%
%TO.N,Net-(R314-Pad1)*%
X126619000Y-106489000D03*
%TD*%
D26*
%TO.P,D213,1,K*%
%TO.N,B11*%
X126272000Y-80010000D03*
%TO.P,D213,2,A*%
%TO.N,Net-(D203-Pad2)*%
X124172000Y-80010000D03*
%TD*%
D17*
%TO.P,R112,1*%
%TO.N,+3V3*%
X90361000Y-105410000D03*
%TO.P,R112,2*%
%TO.N,SQL_SENSE*%
X92011000Y-105410000D03*
%TD*%
D14*
%TO.P,R201,1*%
%TO.N,+3V3*%
X122110000Y-85852000D03*
%TO.P,R201,2*%
%TO.N,Net-(D201-Pad2)*%
X120460000Y-85852000D03*
%TD*%
D15*
%TO.P,Q207,1,B*%
%TO.N,A04*%
X128260000Y-97020000D03*
%TO.P,Q207,2,E*%
%TO.N,GND*%
X128260000Y-96020000D03*
%TO.P,Q207,3,C*%
%TO.N,B04*%
X129550000Y-96520000D03*
%TD*%
D13*
%TO.P,R311,1*%
%TO.N,Net-(C314-Pad1)*%
X125095000Y-109537000D03*
%TO.P,R311,2*%
%TO.N,Net-(C312-Pad2)*%
X125095000Y-107887000D03*
%TD*%
D34*
%TO.N,GND*%
X90143000Y-70985000D03*
X103251000Y-75946000D03*
X125857000Y-65659000D03*
X129032000Y-98298000D03*
X101600000Y-125603000D03*
X121412000Y-100584000D03*
D35*
X103632000Y-98425000D03*
D34*
X129022389Y-65389103D03*
X114173000Y-110109000D03*
X112146902Y-105918000D03*
X118999000Y-77343000D03*
X129022389Y-75549103D03*
X131191000Y-121793000D03*
X128952847Y-70519304D03*
X120396000Y-91948000D03*
X107315000Y-103949500D03*
D35*
X104648000Y-98425000D03*
D34*
X123544000Y-127508000D03*
X113792000Y-117602000D03*
X121539000Y-125984000D03*
X126619000Y-113538000D03*
X115316000Y-106172000D03*
X112268000Y-103124000D03*
X129032000Y-93091000D03*
X118491000Y-129159000D03*
X90665097Y-78359000D03*
X120269000Y-70501464D03*
X108839000Y-128397000D03*
X99822000Y-119634000D03*
X103732000Y-105275000D03*
X106299000Y-134620000D03*
X122809000Y-76454000D03*
X122428000Y-65659000D03*
X127508000Y-78359000D03*
D35*
X103505000Y-91821000D03*
D34*
X129032000Y-95758000D03*
X113665000Y-123444000D03*
X113411000Y-121285000D03*
X126365000Y-133477000D03*
X95504000Y-75692000D03*
D35*
X111887000Y-98933000D03*
D34*
X112267452Y-107946162D03*
X117983000Y-67437000D03*
X131191000Y-124841000D03*
X128952847Y-85759304D03*
X102870000Y-129794000D03*
X109347000Y-122047000D03*
D35*
X111887000Y-93345000D03*
D34*
X115951000Y-113538000D03*
X102362000Y-127381000D03*
X91948000Y-119380000D03*
X121412000Y-98425000D03*
X124206000Y-91440000D03*
X119644140Y-107555480D03*
X121301900Y-109220000D03*
X101600000Y-135255000D03*
X127762000Y-106553000D03*
X103886000Y-116205000D03*
X115189000Y-110109000D03*
X107950000Y-118364000D03*
X102616000Y-113284000D03*
X131191000Y-120269000D03*
X104267000Y-135001000D03*
X129032000Y-90551000D03*
X100584000Y-75692000D03*
X98806000Y-124968000D03*
X113792000Y-126365000D03*
X112522000Y-132207000D03*
X131191000Y-123317000D03*
X119507000Y-74422000D03*
X131699000Y-128270000D03*
D35*
X105664000Y-98425000D03*
D34*
X98512293Y-123486997D03*
X113030000Y-129159000D03*
X94334000Y-75684000D03*
X129022389Y-67929103D03*
X98806000Y-104267000D03*
X122047000Y-94996000D03*
X123825000Y-98425000D03*
D35*
X102235000Y-93853000D03*
D34*
X95885000Y-124460000D03*
X115443000Y-126365000D03*
X117094000Y-102984097D03*
X120777000Y-103886000D03*
X113792000Y-130810000D03*
X106807000Y-108077000D03*
D35*
X103378000Y-94996000D03*
D34*
X120015000Y-90424000D03*
X105791000Y-106553000D03*
X104013000Y-118618000D03*
X110998000Y-134493000D03*
X91186000Y-104267000D03*
X128881498Y-80753440D03*
X125365464Y-87994536D03*
X119253000Y-94615000D03*
X128952847Y-73059304D03*
X127254000Y-76708000D03*
X103759000Y-103251000D03*
X125534500Y-67876500D03*
X102489000Y-78740000D03*
X100457000Y-102616000D03*
X107442000Y-121793000D03*
X108966000Y-120269000D03*
X125476000Y-131588900D03*
X129794000Y-100584000D03*
X92683000Y-75557000D03*
X105791000Y-112522000D03*
X92368815Y-101610012D03*
X128952847Y-83219304D03*
X92583000Y-109220000D03*
X131191000Y-126365000D03*
X131191000Y-118745000D03*
X131191000Y-102362000D03*
X118745000Y-76200000D03*
X126492000Y-83947000D03*
X103759000Y-132555911D03*
X98806000Y-133096000D03*
X129032000Y-88011000D03*
X118491000Y-122936000D03*
X109347000Y-123190000D03*
D35*
X103378000Y-97409000D03*
D34*
X91948000Y-116840000D03*
X124476464Y-95614536D03*
X101854000Y-73660000D03*
%TO.N,+3V3*%
X91567000Y-78359000D03*
X123063000Y-81026000D03*
D35*
X109220000Y-95250000D03*
X113919000Y-98933000D03*
X114935000Y-96647000D03*
X111760000Y-96139000D03*
D34*
X90424000Y-106680000D03*
D35*
X114935000Y-95631000D03*
X111252000Y-97028000D03*
D34*
X90524000Y-71874000D03*
D35*
X111252000Y-95250000D03*
D34*
X98679000Y-122555000D03*
D35*
X109728000Y-96139000D03*
D34*
X123063000Y-78613000D03*
X90361000Y-116776000D03*
D35*
X112903000Y-98933000D03*
X109220000Y-97028000D03*
D34*
X123811992Y-76848527D03*
X90361000Y-119443000D03*
D35*
X110236000Y-95250000D03*
X110744000Y-96139000D03*
D34*
X90361000Y-132143000D03*
X127635000Y-107823000D03*
X121141536Y-92472464D03*
X119634000Y-75692000D03*
X90361000Y-114236000D03*
D35*
X107315000Y-131826000D03*
D34*
X117094000Y-103886000D03*
X119380000Y-96012000D03*
X90361000Y-129540000D03*
D35*
X113919000Y-93345000D03*
X112903000Y-93345000D03*
X110236000Y-97028000D03*
D34*
X105791000Y-105537000D03*
D35*
X108839000Y-131826000D03*
D34*
%TO.N,PTT_OUT*%
X107442000Y-119126000D03*
X109474000Y-119507000D03*
%TO.N,MUTE*%
X104267000Y-133985000D03*
X126365000Y-132207000D03*
%TO.N,/SQUELCH*%
X101600000Y-113411000D03*
X100711000Y-104775000D03*
%TO.N,LED*%
X126365000Y-130937000D03*
X102743000Y-132588000D03*
%TO.N,LATCH*%
X107569000Y-122809000D03*
X129137773Y-99822000D03*
X103251000Y-74930000D03*
X123825000Y-75819000D03*
X123825000Y-99441000D03*
%TO.N,CLK*%
X129038153Y-97282738D03*
X103251000Y-73914000D03*
X113157000Y-124951100D03*
X123571000Y-74930000D03*
X124460000Y-96647000D03*
%TO.N,/B*%
X101600000Y-124333000D03*
%TO.N,/C*%
X102362000Y-126365000D03*
%TO.N,/D*%
X103124000Y-128794900D03*
%TO.N,/HUP*%
X103886000Y-129540087D03*
%TO.N,/A*%
X98679000Y-126365000D03*
%TO.N,DigX_MA1*%
X129667000Y-127889000D03*
X113792000Y-129908097D03*
%TO.N,DigX_MA0*%
X112522000Y-128397000D03*
X129535867Y-126489623D03*
%TO.N,SQL_SENSE*%
X99949000Y-105537000D03*
X102362000Y-114300000D03*
%TO.N,ADC1*%
X119634000Y-109347000D03*
X112522000Y-123317000D03*
%TO.N,DAC1*%
X112522000Y-122047000D03*
X112395000Y-108839000D03*
%TO.N,BOOT*%
X102997000Y-102489000D03*
X91456900Y-101600000D03*
X114681000Y-125603000D03*
%TO.N,RXD*%
X102235000Y-103251000D03*
X112649000Y-126365000D03*
%TO.N,TXD*%
X101473000Y-104013000D03*
X130683000Y-128270000D03*
%TO.N,Net-(R305-Pad1)*%
X121368081Y-110284010D03*
%TO.N,Net-(C309-Pad2)*%
X110648750Y-103155750D03*
%TO.N,Net-(C310-Pad1)*%
X106172000Y-103759000D03*
%TO.N,Net-(C312-Pad2)*%
X121539000Y-108077000D03*
X107188000Y-108966000D03*
%TO.N,Net-(D202-Pad1)*%
X132969000Y-124079000D03*
%TO.N,Net-(D203-Pad1)*%
X132969000Y-121031000D03*
%TO.N,Net-(D205-Pad1)*%
X132969000Y-127127000D03*
X118745000Y-68326000D03*
%TO.N,RX_NF*%
X93599000Y-109220000D03*
D35*
%TO.N,+8V*%
X103505000Y-92826100D03*
X104521000Y-92837000D03*
D34*
%TO.N,Net-(D103-Pad1)*%
X103505000Y-117094000D03*
X122528000Y-127500000D03*
%TO.N,St1*%
X98679000Y-121412000D03*
%TO.N,Net-(D204-Pad1)*%
X130429000Y-101727000D03*
%TO.N,MISO_PLL*%
X98806000Y-132080000D03*
X101473002Y-78740000D03*
%TO.N,Net-(U201-Pad9)*%
X125476000Y-84201000D03*
X120015000Y-77343000D03*
%TO.N,A11*%
X126492000Y-78486000D03*
X126491999Y-76072999D03*
%TO.N,A03*%
X123190000Y-91440000D03*
X123952000Y-97409000D03*
%TO.N,A02*%
X121412000Y-99568000D03*
X120015000Y-89408000D03*
%TO.N,Net-(D212-Pad1)*%
X119507000Y-69723000D03*
X132969000Y-125603000D03*
%TO.N,Net-(D211-Pad1)*%
X132969000Y-119507000D03*
%TO.N,Net-(D210-Pad1)*%
X132969000Y-122555000D03*
%TO.N,Net-(R312-Pad2)*%
X127635000Y-105283000D03*
%TO.N,Net-(R314-Pad1)*%
X121539000Y-106807000D03*
%TD*%
D36*
%TO.N,GND*%
X105678000Y-98439000D02*
X105664000Y-98425000D01*
D37*
X128770000Y-96020000D02*
X129032000Y-95758000D01*
X104267000Y-135001000D02*
X104259000Y-134993000D01*
X115951000Y-112535000D02*
X115951000Y-113538000D01*
X128260000Y-78240000D02*
X127627000Y-78240000D01*
X125095000Y-112535000D02*
X125095000Y-112509000D01*
X118491000Y-125984000D02*
X115824000Y-125984000D01*
D36*
X104648000Y-98425000D02*
X103632000Y-98425000D01*
X103378000Y-98171000D02*
X103632000Y-98425000D01*
D37*
X128854938Y-80780000D02*
X128881498Y-80753440D01*
X128852151Y-70620000D02*
X128952847Y-70519304D01*
X128260000Y-73160000D02*
X128852151Y-73160000D01*
X128260000Y-96020000D02*
X128770000Y-96020000D01*
X104013000Y-118620000D02*
X104013000Y-118618000D01*
X128260000Y-70620000D02*
X128852151Y-70620000D01*
X103791089Y-132588000D02*
X103759000Y-132555911D01*
D36*
X107315000Y-134252000D02*
X107937000Y-134252000D01*
D37*
X128260000Y-85860000D02*
X128852151Y-85860000D01*
X124830000Y-67876500D02*
X125534500Y-67876500D01*
X113854000Y-109790000D02*
X114173000Y-110109000D01*
X95496000Y-75684000D02*
X95504000Y-75692000D01*
X126619000Y-112585000D02*
X126619000Y-113538000D01*
X105804000Y-112535000D02*
X105791000Y-112522000D01*
X103886000Y-116205000D02*
X104019000Y-116205000D01*
X119647000Y-103886000D02*
X120777000Y-103886000D01*
X108331000Y-104012500D02*
X107378000Y-104012500D01*
X128260000Y-68080000D02*
X128871492Y-68080000D01*
X126619000Y-112585000D02*
X125145000Y-112585000D01*
X122060000Y-75692000D02*
X122060000Y-75705000D01*
D36*
X103632000Y-98425000D02*
X103505000Y-98425000D01*
D37*
X124492928Y-95631000D02*
X124476464Y-95614536D01*
X128260000Y-93480000D02*
X128643000Y-93480000D01*
D36*
X103365000Y-93853000D02*
X102235000Y-93853000D01*
X113776000Y-117586000D02*
X113792000Y-117602000D01*
D37*
X93572000Y-75684000D02*
X94334000Y-75684000D01*
X101110000Y-135255000D02*
X100848000Y-134993000D01*
X128643000Y-88400000D02*
X129032000Y-88011000D01*
X122230000Y-73601500D02*
X122230000Y-75522000D01*
X125286000Y-95631000D02*
X124492928Y-95631000D01*
X128260000Y-98560000D02*
X128770000Y-98560000D01*
X127627000Y-78240000D02*
X127508000Y-78359000D01*
X128770000Y-98560000D02*
X129032000Y-98298000D01*
X106807000Y-107074000D02*
X106807000Y-108077000D01*
X101600000Y-135255000D02*
X101110000Y-135255000D01*
X106807000Y-112535000D02*
X105804000Y-112535000D01*
X104529000Y-119136000D02*
X104013000Y-118620000D01*
X105318000Y-132588000D02*
X103791089Y-132588000D01*
D36*
X103378000Y-96126000D02*
X103365000Y-96139000D01*
D37*
X125095000Y-112509000D02*
X123571000Y-110985000D01*
X128260000Y-65540000D02*
X128871492Y-65540000D01*
X107378000Y-104012500D02*
X107315000Y-103949500D01*
X120660000Y-98417000D02*
X121404000Y-98417000D01*
X122060000Y-75438000D02*
X122174000Y-75438000D01*
D36*
X103378000Y-97409000D02*
X103378000Y-96152000D01*
D37*
X122060000Y-75705000D02*
X122809000Y-76454000D01*
D36*
X107086000Y-98439000D02*
X105678000Y-98439000D01*
D37*
X104259000Y-134993000D02*
X103261000Y-134993000D01*
X128871492Y-65540000D02*
X129022389Y-65389103D01*
X122077000Y-93794500D02*
X122077000Y-94966000D01*
X118491000Y-125984000D02*
X118491000Y-129159000D01*
X100584000Y-77251000D02*
X100584000Y-75692000D01*
X91662000Y-75557000D02*
X91413000Y-75806000D01*
X104019000Y-116205000D02*
X104529000Y-116715000D01*
X122998000Y-109347000D02*
X122998000Y-109790000D01*
X129022389Y-75549103D02*
X128871492Y-75700000D01*
D36*
X110991000Y-133484000D02*
X110991000Y-134486000D01*
D37*
X128260000Y-90940000D02*
X128643000Y-90940000D01*
D36*
X109607000Y-133484000D02*
X108839000Y-134252000D01*
D37*
X92683000Y-75557000D02*
X93445000Y-75557000D01*
D36*
X107315000Y-134252000D02*
X106667000Y-134252000D01*
D37*
X121806000Y-95237000D02*
X122047000Y-94996000D01*
X125145000Y-112585000D02*
X125095000Y-112535000D01*
X114173000Y-110109000D02*
X114173000Y-110731000D01*
D36*
X105664000Y-98425000D02*
X104648000Y-98425000D01*
D37*
X93445000Y-75557000D02*
X93572000Y-75684000D01*
D36*
X107937000Y-134252000D02*
X108839000Y-134252000D01*
D37*
X94234000Y-75784000D02*
X94334000Y-75684000D01*
X128871492Y-75700000D02*
X128260000Y-75700000D01*
X94334000Y-75684000D02*
X95496000Y-75684000D01*
X120660000Y-100576000D02*
X121404000Y-100576000D01*
X121602000Y-65659000D02*
X122428000Y-65659000D01*
X92683000Y-75557000D02*
X91662000Y-75557000D01*
X121806000Y-96012000D02*
X121806000Y-95237000D01*
X122077000Y-94966000D02*
X122047000Y-94996000D01*
D36*
X106667000Y-134252000D02*
X106299000Y-134620000D01*
X127991000Y-133484000D02*
X126372000Y-133484000D01*
X113776000Y-115974000D02*
X113776000Y-117586000D01*
D37*
X115824000Y-125984000D02*
X115443000Y-126365000D01*
X128643000Y-93480000D02*
X129032000Y-93091000D01*
X101854000Y-72101000D02*
X101854000Y-73660000D01*
X128260000Y-83320000D02*
X128852151Y-83320000D01*
X113854000Y-109347000D02*
X113854000Y-109790000D01*
X120777000Y-103886000D02*
X121526000Y-103886000D01*
X94234000Y-77151000D02*
X94234000Y-75784000D01*
D36*
X103378000Y-94996000D02*
X103378000Y-93866000D01*
D37*
X128643000Y-90940000D02*
X129032000Y-90551000D01*
D36*
X110991000Y-134486000D02*
X110998000Y-134493000D01*
D37*
X115951000Y-109537000D02*
X115761000Y-109537000D01*
X128852151Y-83320000D02*
X128952847Y-83219304D01*
X128852151Y-73160000D02*
X128952847Y-73059304D01*
X128871492Y-68080000D02*
X129022389Y-67929103D01*
X125290500Y-88069500D02*
X125365464Y-87994536D01*
X124677000Y-88069500D02*
X125290500Y-88069500D01*
X121526000Y-103886000D02*
X122034000Y-103378000D01*
D36*
X103378000Y-94996000D02*
X103378000Y-96126000D01*
D37*
X128260000Y-88400000D02*
X128643000Y-88400000D01*
X115761000Y-109537000D02*
X115189000Y-110109000D01*
D36*
X103378000Y-96152000D02*
X103365000Y-96139000D01*
D37*
X95504000Y-77151000D02*
X95504000Y-75692000D01*
X118491000Y-125984000D02*
X121539000Y-125984000D01*
X121404000Y-98417000D02*
X121412000Y-98425000D01*
D36*
X103378000Y-93866000D02*
X103365000Y-93853000D01*
D37*
X121301900Y-109220000D02*
X121428900Y-109347000D01*
D36*
X126372000Y-133484000D02*
X126365000Y-133477000D01*
D37*
X99822000Y-120637000D02*
X99822000Y-119634000D01*
X122998000Y-109790000D02*
X123317000Y-110109000D01*
X98806000Y-124968000D02*
X100168000Y-124968000D01*
X128852151Y-85860000D02*
X128952847Y-85759304D01*
X108839000Y-129273000D02*
X108839000Y-128397000D01*
X123571000Y-110985000D02*
X123571000Y-110363000D01*
X114173000Y-110731000D02*
X114427000Y-110985000D01*
X118491000Y-125984000D02*
X118491000Y-122936000D01*
X122230000Y-75522000D02*
X122060000Y-75692000D01*
X121404000Y-100576000D02*
X121412000Y-100584000D01*
X121428900Y-109347000D02*
X122998000Y-109347000D01*
D36*
X110991000Y-133484000D02*
X109607000Y-133484000D01*
X103378000Y-97409000D02*
X103378000Y-98171000D01*
D37*
X115189000Y-110109000D02*
X114173000Y-110109000D01*
X128260000Y-80780000D02*
X128854938Y-80780000D01*
X123571000Y-110363000D02*
X123317000Y-110109000D01*
X125031000Y-65659000D02*
X125857000Y-65659000D01*
%TO.N,+3V3*%
X90869000Y-70104000D02*
X90869000Y-71529000D01*
X120269000Y-94996000D02*
X120269000Y-95999000D01*
D36*
X110991000Y-132214000D02*
X110229000Y-132214000D01*
D37*
X124027000Y-93794500D02*
X124027000Y-92912000D01*
X106820000Y-105537000D02*
X106807000Y-105524000D01*
X124180000Y-73601500D02*
X124180000Y-74523000D01*
X124841000Y-81788000D02*
X124079000Y-81026000D01*
X124824099Y-85233901D02*
X124824099Y-83455901D01*
X90361000Y-115570000D02*
X90361000Y-118110000D01*
X127571000Y-107887000D02*
X127635000Y-107823000D01*
X120269000Y-95999000D02*
X120256000Y-96012000D01*
X120280000Y-74560000D02*
X120510000Y-74790000D01*
X118097000Y-105488000D02*
X118048000Y-105537000D01*
X106807000Y-105524000D02*
X105804000Y-105524000D01*
D36*
X108077000Y-131826000D02*
X107315000Y-131826000D01*
D37*
X120510000Y-74790000D02*
X120510000Y-75692000D01*
X90361000Y-113030000D02*
X90361000Y-115570000D01*
X124460000Y-83439000D02*
X124841000Y-83439000D01*
X124824099Y-83455901D02*
X124841000Y-83439000D01*
X107315000Y-130873000D02*
X107315000Y-131826000D01*
D36*
X108852000Y-132715000D02*
X108839000Y-132702000D01*
D37*
X92964000Y-77151000D02*
X92359000Y-77151000D01*
X92359000Y-77151000D02*
X92154000Y-77356000D01*
X122110000Y-78613000D02*
X123063000Y-78613000D01*
X99047000Y-122187000D02*
X99822000Y-122187000D01*
D36*
X120256000Y-96012000D02*
X119380000Y-96012000D01*
D37*
X90361000Y-130810000D02*
X90361000Y-128270000D01*
D36*
X108839000Y-131826000D02*
X108077000Y-131826000D01*
X110229000Y-132214000D02*
X109728000Y-132715000D01*
D37*
X90361000Y-120650000D02*
X90361000Y-118110000D01*
D36*
X107315000Y-132702000D02*
X108839000Y-132702000D01*
X107315000Y-132702000D02*
X107315000Y-131826000D01*
X109728000Y-132715000D02*
X108852000Y-132715000D01*
D37*
X90361000Y-130810000D02*
X90361000Y-133350000D01*
D36*
X108839000Y-132702000D02*
X108839000Y-131826000D01*
D37*
X120127000Y-94854000D02*
X120269000Y-94996000D01*
X100168000Y-123698000D02*
X100168000Y-123155000D01*
X124180000Y-74523000D02*
X124587000Y-74930000D01*
X101346000Y-122237000D02*
X99872000Y-122237000D01*
X124079000Y-81026000D02*
X123063000Y-81026000D01*
X90869000Y-67056000D02*
X90869000Y-68580000D01*
X92154000Y-77356000D02*
X91413000Y-77356000D01*
X91567000Y-77510000D02*
X91413000Y-77356000D01*
X98679000Y-122555000D02*
X99047000Y-122187000D01*
X121379072Y-92710000D02*
X121141536Y-92472464D01*
X118097000Y-103886000D02*
X117094000Y-103886000D01*
X90869000Y-68580000D02*
X90869000Y-70104000D01*
X120127000Y-93794500D02*
X120127000Y-94854000D01*
X108904000Y-105537000D02*
X106820000Y-105537000D01*
X122110000Y-85852000D02*
X124206000Y-85852000D01*
X100168000Y-123155000D02*
X99822000Y-122809000D01*
X99822000Y-122809000D02*
X99822000Y-122187000D01*
X126619000Y-107887000D02*
X127571000Y-107887000D01*
X120280000Y-73601500D02*
X120280000Y-74560000D01*
D36*
X104915000Y-96139000D02*
X107086000Y-96139000D01*
D37*
X124587000Y-76073519D02*
X123811992Y-76848527D01*
X90869000Y-71529000D02*
X90524000Y-71874000D01*
X105804000Y-105524000D02*
X105791000Y-105537000D01*
X124841000Y-83439000D02*
X124841000Y-81788000D01*
X124206000Y-85852000D02*
X124824099Y-85233901D01*
X122110000Y-83439000D02*
X124460000Y-83439000D01*
X123825000Y-92710000D02*
X121379072Y-92710000D01*
X90361000Y-107950000D02*
X90361000Y-105410000D01*
X99872000Y-122237000D02*
X99822000Y-122187000D01*
X122110000Y-81026000D02*
X123063000Y-81026000D01*
X118097000Y-103886000D02*
X118097000Y-105488000D01*
X124587000Y-74930000D02*
X124587000Y-76073519D01*
X124027000Y-92912000D02*
X123825000Y-92710000D01*
X91567000Y-78359000D02*
X91567000Y-77510000D01*
D36*
X120510000Y-75692000D02*
X119634000Y-75692000D01*
D37*
%TO.N,PTT_OUT*%
X107315000Y-119126000D02*
X107442000Y-119126000D01*
X105529000Y-119136000D02*
X107305000Y-119136000D01*
X109481000Y-119514000D02*
X109474000Y-119507000D01*
X107305000Y-119136000D02*
X107315000Y-119126000D01*
X110991000Y-119514000D02*
X109481000Y-119514000D01*
%TO.N,MUTE*%
X126365000Y-132207000D02*
X126372000Y-132214000D01*
X104267000Y-133985000D02*
X104259000Y-133993000D01*
X126372000Y-132214000D02*
X127991000Y-132214000D01*
X104259000Y-133993000D02*
X103261000Y-133993000D01*
%TO.N,SQL_OUT*%
X110732000Y-116715000D02*
X110991000Y-116974000D01*
X105529000Y-116715000D02*
X110732000Y-116715000D01*
%TO.N,/SQUELCH*%
X99060000Y-102235000D02*
X100711000Y-103886000D01*
X102090500Y-115171500D02*
X101600000Y-114681000D01*
X101600000Y-114681000D02*
X101600000Y-113411000D01*
X102344000Y-115425000D02*
X102090500Y-115171500D01*
X105029000Y-115425000D02*
X102344000Y-115425000D01*
X99060000Y-97155000D02*
X99060000Y-102235000D01*
X97155000Y-95250000D02*
X99060000Y-97155000D01*
X100711000Y-103886000D02*
X100711000Y-104775000D01*
%TO.N,LED*%
X126605000Y-130937000D02*
X126612000Y-130944000D01*
X102743000Y-132588000D02*
X101338000Y-133993000D01*
X101338000Y-133993000D02*
X100848000Y-133993000D01*
X126365000Y-130937000D02*
X126605000Y-130937000D01*
X126612000Y-130944000D02*
X127991000Y-130944000D01*
%TO.N,/LED_GN*%
X92202000Y-134874000D02*
X91186000Y-133858000D01*
X91186000Y-127508000D02*
X92964000Y-125730000D01*
X92964000Y-125730000D02*
X94615000Y-125730000D01*
X99558000Y-134493000D02*
X98991500Y-134493000D01*
X98610500Y-134874000D02*
X92202000Y-134874000D01*
X98991500Y-134493000D02*
X98610500Y-134874000D01*
X91186000Y-133858000D02*
X91186000Y-127508000D01*
%TO.N,B01*%
X116840000Y-96520000D02*
X117348000Y-96520000D01*
X117348000Y-96520000D02*
X118745000Y-97917000D01*
X118745000Y-97917000D02*
X119370000Y-97917000D01*
%TO.N,B09*%
X129550000Y-83820000D02*
X132080000Y-83820000D01*
X126272000Y-84836000D02*
X128905000Y-84836000D01*
X128905000Y-84836000D02*
X129550000Y-84191000D01*
X129550000Y-84191000D02*
X129550000Y-83820000D01*
%TO.N,B02*%
X117221000Y-99060000D02*
X116840000Y-99060000D01*
X119370000Y-100076000D02*
X118237000Y-100076000D01*
X118237000Y-100076000D02*
X117221000Y-99060000D01*
%TO.N,B10*%
X129550000Y-81280000D02*
X132080000Y-81280000D01*
X128651000Y-82550000D02*
X126272000Y-82550000D01*
X129550000Y-81651000D02*
X128651000Y-82550000D01*
X129550000Y-81280000D02*
X129550000Y-81651000D01*
%TO.N,B03*%
X129550000Y-99060000D02*
X132080000Y-99060000D01*
%TO.N,B11*%
X128651000Y-80010000D02*
X129550000Y-79111000D01*
X129550000Y-79111000D02*
X129550000Y-78740000D01*
X129550000Y-78740000D02*
X132080000Y-78740000D01*
X126272000Y-80010000D02*
X128651000Y-80010000D01*
%TO.N,B04*%
X132080000Y-96520000D02*
X129550000Y-96520000D01*
%TO.N,B12*%
X128524000Y-77597000D02*
X129550000Y-76571000D01*
X129550000Y-76200000D02*
X132080000Y-76200000D01*
X129550000Y-76571000D02*
X129550000Y-76200000D01*
X126272000Y-77597000D02*
X128524000Y-77597000D01*
%TO.N,B05*%
X129550000Y-94732000D02*
X129175901Y-95106099D01*
X129550000Y-93980000D02*
X132080000Y-93980000D01*
X127635000Y-95631000D02*
X126936000Y-95631000D01*
X128159901Y-95106099D02*
X127635000Y-95631000D01*
X129550000Y-93980000D02*
X129550000Y-94732000D01*
X129175901Y-95106099D02*
X128159901Y-95106099D01*
%TO.N,B13*%
X129550000Y-73660000D02*
X132080000Y-73660000D01*
%TO.N,B06*%
X129550000Y-91440000D02*
X132080000Y-91440000D01*
%TO.N,B14*%
X129550000Y-71120000D02*
X132080000Y-71120000D01*
%TO.N,B07*%
X129550000Y-88900000D02*
X132080000Y-88900000D01*
%TO.N,B15*%
X129550000Y-68580000D02*
X132080000Y-68580000D01*
%TO.N,B08*%
X132080000Y-86360000D02*
X129550000Y-86360000D01*
%TO.N,B16*%
X129550000Y-66040000D02*
X132080000Y-66040000D01*
%TO.N,LATCH*%
X107569000Y-122809000D02*
X106680000Y-123698000D01*
X94488000Y-74930000D02*
X103251000Y-74930000D01*
X124587000Y-100203000D02*
X128756773Y-100203000D01*
X107569000Y-122809000D02*
X109594000Y-120784000D01*
X128756773Y-100203000D02*
X129137773Y-99822000D01*
X122880000Y-73601500D02*
X122880000Y-75509000D01*
X109594000Y-120784000D02*
X110991000Y-120784000D01*
X122727000Y-98343000D02*
X124587000Y-100203000D01*
X92964000Y-73406000D02*
X94488000Y-74930000D01*
X123190000Y-75819000D02*
X123825000Y-75819000D01*
X106680000Y-123698000D02*
X105318000Y-123698000D01*
X92964000Y-72101000D02*
X92964000Y-73406000D01*
X122727000Y-93794500D02*
X122727000Y-98343000D01*
X122880000Y-75509000D02*
X123190000Y-75819000D01*
%TO.N,CLK*%
X110991000Y-124594000D02*
X109594000Y-124594000D01*
X109220000Y-124968000D02*
X105318000Y-124968000D01*
X113157000Y-124968000D02*
X112776000Y-124968000D01*
X123530000Y-73601500D02*
X123530000Y-74889000D01*
X102743000Y-74422000D02*
X103251000Y-73914000D01*
X128823980Y-97496911D02*
X125309911Y-97496911D01*
X129038153Y-97282738D02*
X128823980Y-97496911D01*
X112776000Y-124968000D02*
X112402000Y-124594000D01*
X112402000Y-124594000D02*
X110991000Y-124594000D01*
X109594000Y-124594000D02*
X109220000Y-124968000D01*
X94234000Y-73406000D02*
X95250000Y-74422000D01*
X123377000Y-93794500D02*
X123377000Y-95564000D01*
X113157000Y-124968000D02*
X113157000Y-124951100D01*
X125309911Y-97496911D02*
X124460000Y-96647000D01*
X94234000Y-72101000D02*
X94234000Y-73406000D01*
X123530000Y-74889000D02*
X123571000Y-74930000D01*
X123377000Y-95564000D02*
X124460000Y-96647000D01*
X95250000Y-74422000D02*
X102743000Y-74422000D01*
%TO.N,/B*%
X103505000Y-126238000D02*
X105318000Y-126238000D01*
X101600000Y-124333000D02*
X103505000Y-126238000D01*
X92011000Y-118110000D02*
X94615000Y-118110000D01*
%TO.N,/C*%
X102362000Y-126365000D02*
X103505000Y-127508000D01*
X94615000Y-115570000D02*
X92011000Y-115570000D01*
X103505000Y-127508000D02*
X105318000Y-127508000D01*
%TO.N,/D*%
X103124000Y-128794900D02*
X103140900Y-128778000D01*
X92011000Y-113030000D02*
X94615000Y-113030000D01*
X103140900Y-128778000D02*
X105318000Y-128778000D01*
%TO.N,/HUP*%
X92011000Y-107950000D02*
X94615000Y-107950000D01*
X104140000Y-130048000D02*
X105318000Y-130048000D01*
X103886000Y-129794000D02*
X104140000Y-130048000D01*
X103886000Y-129540087D02*
X103886000Y-129794000D01*
%TO.N,/CALL1*%
X100168000Y-130048000D02*
X98933000Y-130048000D01*
X98552000Y-131318000D02*
X97790000Y-132080000D01*
X92011000Y-133350000D02*
X94615000Y-133350000D01*
X98552000Y-130429000D02*
X98552000Y-131318000D01*
X98933000Y-130048000D02*
X98552000Y-130429000D01*
X95885000Y-132080000D02*
X94615000Y-133350000D01*
X97790000Y-132080000D02*
X95885000Y-132080000D01*
%TO.N,/CALL2*%
X92011000Y-130810000D02*
X94615000Y-130810000D01*
X98806000Y-128778000D02*
X98044000Y-129540000D01*
X95885000Y-129540000D02*
X94615000Y-130810000D01*
X100168000Y-128778000D02*
X98806000Y-128778000D01*
X98044000Y-129540000D02*
X95885000Y-129540000D01*
%TO.N,/DEL*%
X98806000Y-127508000D02*
X98298000Y-127000000D01*
X92011000Y-128270000D02*
X94615000Y-128270000D01*
X95885000Y-127000000D02*
X94615000Y-128270000D01*
X100168000Y-127508000D02*
X98806000Y-127508000D01*
X98298000Y-127000000D02*
X95885000Y-127000000D01*
%TO.N,/A*%
X98806000Y-126238000D02*
X98679000Y-126365000D01*
X100168000Y-126238000D02*
X98806000Y-126238000D01*
X94615000Y-120650000D02*
X92011000Y-120650000D01*
%TO.N,DigX_MA1*%
X113792000Y-129908097D02*
X113779097Y-129921000D01*
X111238000Y-129921000D02*
X110991000Y-129674000D01*
X130366000Y-127190000D02*
X129667000Y-127889000D01*
X130366000Y-127127000D02*
X130366000Y-127190000D01*
X113779097Y-129921000D02*
X111238000Y-129921000D01*
%TO.N,DigX_MA0*%
X112522000Y-128397000D02*
X112515000Y-128404000D01*
X112515000Y-128404000D02*
X110991000Y-128404000D01*
X130366000Y-125659490D02*
X130366000Y-125603000D01*
X129535867Y-126489623D02*
X130366000Y-125659490D01*
%TO.N,SQL_SENSE*%
X99949000Y-103886000D02*
X99949000Y-105537000D01*
X98552000Y-102489000D02*
X99949000Y-103886000D01*
X115046000Y-114724000D02*
X115046000Y-115974000D01*
X95885000Y-99060000D02*
X95885000Y-103505000D01*
X102362000Y-114300000D02*
X114622000Y-114300000D01*
X98552000Y-99187000D02*
X98552000Y-102489000D01*
X97155000Y-97790000D02*
X95885000Y-99060000D01*
X114622000Y-114300000D02*
X115046000Y-114724000D01*
X97155000Y-97790000D02*
X98552000Y-99187000D01*
X95250000Y-104140000D02*
X92456000Y-104140000D01*
X95885000Y-103505000D02*
X95250000Y-104140000D01*
X92011000Y-104585000D02*
X92011000Y-105410000D01*
X92456000Y-104140000D02*
X92011000Y-104585000D01*
%TO.N,PTT_SENSE*%
X101346000Y-120587000D02*
X101346000Y-119761000D01*
X101346000Y-119761000D02*
X102142000Y-118965000D01*
X103759000Y-121031000D02*
X103315000Y-120587000D01*
X104140000Y-125603000D02*
X109220000Y-125603000D01*
X103759000Y-121031000D02*
X103759000Y-125222000D01*
X103315000Y-120587000D02*
X101346000Y-120587000D01*
X102142000Y-118965000D02*
X102142000Y-118491000D01*
X109220000Y-125603000D02*
X109481000Y-125864000D01*
X103759000Y-125222000D02*
X104140000Y-125603000D01*
X109481000Y-125864000D02*
X110991000Y-125864000D01*
%TO.N,ADC1*%
X119634000Y-109347000D02*
X119634000Y-108458000D01*
X119634000Y-108458000D02*
X119253000Y-108077000D01*
X112522000Y-123317000D02*
X110998000Y-123317000D01*
X119253000Y-108077000D02*
X118048000Y-108077000D01*
X110998000Y-123317000D02*
X110991000Y-123324000D01*
X118048000Y-106807000D02*
X118048000Y-108077000D01*
X118999000Y-109982000D02*
X118999000Y-110985000D01*
X119634000Y-109347000D02*
X118999000Y-109982000D01*
%TO.N,DAC1*%
X110991000Y-122054000D02*
X112515000Y-122054000D01*
X115062000Y-108077000D02*
X115252000Y-107887000D01*
X113157000Y-108077000D02*
X113854000Y-108077000D01*
X112395000Y-108839000D02*
X113157000Y-108077000D01*
X115252000Y-107887000D02*
X115951000Y-107887000D01*
X112515000Y-122054000D02*
X112522000Y-122047000D01*
X113854000Y-108077000D02*
X115062000Y-108077000D01*
%TO.N,MISO*%
X110991000Y-127134000D02*
X107435000Y-127134000D01*
X102489000Y-128143000D02*
X101981000Y-128651000D01*
X101473000Y-132588000D02*
X100168000Y-132588000D01*
X101981000Y-132080000D02*
X101473000Y-132588000D01*
X106426000Y-128143000D02*
X102489000Y-128143000D01*
X101981000Y-128651000D02*
X101981000Y-132080000D01*
X107435000Y-127134000D02*
X106426000Y-128143000D01*
%TO.N,BOOT*%
X90868500Y-101600000D02*
X90361000Y-102107500D01*
X92145000Y-85100000D02*
X100584000Y-93539000D01*
X114681000Y-124079000D02*
X116840000Y-121920000D01*
X126612000Y-116974000D02*
X127991000Y-116974000D01*
X114681000Y-125603000D02*
X114681000Y-124079000D01*
X91456900Y-101600000D02*
X90868500Y-101600000D01*
X121666000Y-121920000D02*
X126612000Y-116974000D01*
X90361000Y-102107500D02*
X90361000Y-102870000D01*
X116840000Y-121920000D02*
X121666000Y-121920000D01*
X100584000Y-93539000D02*
X100584000Y-100076000D01*
X100584000Y-100076000D02*
X102997000Y-102489000D01*
%TO.N,DigX_D0*%
X130366000Y-117983000D02*
X128252000Y-117983000D01*
X128252000Y-117983000D02*
X127991000Y-118244000D01*
%TO.N,DigX_D1*%
X130359000Y-119514000D02*
X130366000Y-119507000D01*
X127991000Y-119514000D02*
X130359000Y-119514000D01*
%TO.N,DigX_D2*%
X130366000Y-121031000D02*
X128238000Y-121031000D01*
X128238000Y-121031000D02*
X127991000Y-120784000D01*
%TO.N,DigX_D3*%
X127991000Y-122054000D02*
X129166000Y-122054000D01*
X129667000Y-122555000D02*
X130366000Y-122555000D01*
X129166000Y-122054000D02*
X129667000Y-122555000D01*
%TO.N,DigX_DIV*%
X127991000Y-123324000D02*
X128658000Y-123324000D01*
X128658000Y-123324000D02*
X129413000Y-124079000D01*
X129413000Y-124079000D02*
X130366000Y-124079000D01*
%TO.N,RXD*%
X90361000Y-97790000D02*
X90361000Y-89424000D01*
X92145000Y-87640000D02*
X100076000Y-95571000D01*
X100076000Y-95571000D02*
X100076000Y-100330000D01*
X112649000Y-126365000D02*
X117221000Y-130937000D01*
X102235000Y-102489000D02*
X102235000Y-103251000D01*
X100076000Y-100330000D02*
X102235000Y-102489000D01*
X90361000Y-89424000D02*
X92145000Y-87640000D01*
X120650000Y-130937000D02*
X123183000Y-128404000D01*
X117221000Y-130937000D02*
X120650000Y-130937000D01*
X123183000Y-128404000D02*
X127991000Y-128404000D01*
%TO.N,TXD*%
X129279000Y-129674000D02*
X130683000Y-128270000D01*
X91186000Y-91139000D02*
X92145000Y-90180000D01*
X99568000Y-100584000D02*
X101473000Y-102489000D01*
X91186000Y-98679000D02*
X91186000Y-91139000D01*
X90361000Y-99504000D02*
X91186000Y-98679000D01*
X101473000Y-102489000D02*
X101473000Y-104013000D01*
X93990000Y-90180000D02*
X99568000Y-95758000D01*
X90361000Y-100330000D02*
X90361000Y-99504000D01*
X99568000Y-95758000D02*
X99568000Y-100584000D01*
X92145000Y-90180000D02*
X93990000Y-90180000D01*
X127991000Y-129674000D02*
X129279000Y-129674000D01*
%TO.N,Net-(D203-Pad2)*%
X120460000Y-80073000D02*
X120523000Y-80010000D01*
X120460000Y-81026000D02*
X120460000Y-80073000D01*
X120523000Y-80010000D02*
X124172000Y-80010000D01*
X99280000Y-80484000D02*
X99314000Y-80518000D01*
X99280000Y-81534000D02*
X99280000Y-80484000D01*
X99280000Y-79629000D02*
X99280000Y-77185000D01*
X115189000Y-80010000D02*
X114681000Y-80518000D01*
X99280000Y-77185000D02*
X99314000Y-77151000D01*
X120523000Y-80010000D02*
X115189000Y-80010000D01*
X99280000Y-80484000D02*
X99280000Y-79629000D01*
X114681000Y-80518000D02*
X99314000Y-80518000D01*
%TO.N,Net-(D202-Pad2)*%
X99280000Y-83439000D02*
X99280000Y-85344000D01*
X98044000Y-77251000D02*
X98044000Y-81280000D01*
X120460000Y-83439000D02*
X120460000Y-82613000D01*
X99314000Y-83405000D02*
X99280000Y-83439000D01*
X98044000Y-81280000D02*
X99314000Y-82550000D01*
X99314000Y-82550000D02*
X99314000Y-83405000D01*
X120460000Y-82613000D02*
X120523000Y-82550000D01*
X99314000Y-82550000D02*
X120523000Y-82550000D01*
X124172000Y-82550000D02*
X120523000Y-82550000D01*
%TO.N,Net-(D201-Pad2)*%
X95504000Y-79214000D02*
X96808000Y-79214000D01*
X112141000Y-86614000D02*
X115697000Y-90170000D01*
X96774000Y-79180000D02*
X96774000Y-84836000D01*
X96774000Y-77151000D02*
X96774000Y-79180000D01*
X118364000Y-89535000D02*
X118364000Y-86868000D01*
X96774000Y-79180000D02*
X96808000Y-79214000D01*
X120460000Y-85153000D02*
X120777000Y-84836000D01*
X117729000Y-90170000D02*
X118364000Y-89535000D01*
X115697000Y-90170000D02*
X117729000Y-90170000D01*
X120777000Y-84836000D02*
X124172000Y-84836000D01*
X120460000Y-85852000D02*
X120460000Y-85153000D01*
X98552000Y-86614000D02*
X112141000Y-86614000D01*
X96774000Y-84836000D02*
X98552000Y-86614000D01*
X96808000Y-79214000D02*
X97409000Y-79214000D01*
X118364000Y-86868000D02*
X119380000Y-85852000D01*
X119380000Y-85852000D02*
X120460000Y-85852000D01*
%TO.N,Net-(D102-Pad1)*%
X105063000Y-121412000D02*
X106426000Y-121412000D01*
X109594000Y-118244000D02*
X110991000Y-118244000D01*
X106426000Y-121412000D02*
X109594000Y-118244000D01*
%TO.N,Net-(R301-Pad1)*%
X111506000Y-108966000D02*
X112903000Y-110363000D01*
X113854000Y-105537000D02*
X113854000Y-106807000D01*
X112903000Y-110363000D02*
X112903000Y-110935000D01*
X111506000Y-107569000D02*
X111506000Y-108966000D01*
X113854000Y-106807000D02*
X112268000Y-106807000D01*
X112268000Y-106807000D02*
X111506000Y-107569000D01*
%TO.N,Net-(C304-Pad1)*%
X106857000Y-110935000D02*
X106807000Y-110985000D01*
X108331000Y-110935000D02*
X106857000Y-110935000D01*
X108331000Y-110363000D02*
X108904000Y-109790000D01*
X108331000Y-110935000D02*
X108331000Y-110363000D01*
X108904000Y-109790000D02*
X108904000Y-109347000D01*
%TO.N,Net-(C303-Pad2)*%
X108904000Y-108077000D02*
X110236000Y-108077000D01*
X109855000Y-110236000D02*
X109855000Y-110985000D01*
X110236000Y-108077000D02*
X110236000Y-109855000D01*
X110236000Y-108077000D02*
X110236000Y-106807000D01*
X110236000Y-109855000D02*
X109855000Y-110236000D01*
X111379000Y-105664000D02*
X111379000Y-103962500D01*
X108904000Y-106807000D02*
X110236000Y-106807000D01*
X110236000Y-106807000D02*
X111379000Y-105664000D01*
%TO.N,Net-(R305-Pad1)*%
X122998000Y-105537000D02*
X124397000Y-105537000D01*
X121333010Y-110284010D02*
X121368081Y-110284010D01*
X121285000Y-110236000D02*
X121984000Y-110935000D01*
X121539000Y-105537000D02*
X120650000Y-106426000D01*
X124397000Y-105537000D02*
X125095000Y-104839000D01*
X120650000Y-106426000D02*
X120650000Y-109601000D01*
X122998000Y-105537000D02*
X121539000Y-105537000D01*
X121984000Y-110935000D02*
X122047000Y-110935000D01*
X121285000Y-110236000D02*
X121333010Y-110284010D01*
X120650000Y-109601000D02*
X121285000Y-110236000D01*
%TO.N,Net-(C309-Pad2)*%
X109855000Y-103949500D02*
X111379000Y-102425500D01*
X109855000Y-104012500D02*
X109855000Y-103949500D01*
X111379000Y-102425500D02*
X111379000Y-102412500D01*
%TO.N,Net-(C310-Pad1)*%
X102235000Y-107696000D02*
X101613000Y-107696000D01*
X101613000Y-109220000D02*
X101613000Y-107696000D01*
X106172000Y-103759000D02*
X107568500Y-102362500D01*
X107568500Y-102362500D02*
X108331000Y-102362500D01*
X106172000Y-103759000D02*
X102235000Y-107696000D01*
X109855000Y-102362500D02*
X108331000Y-102362500D01*
%TO.N,Net-(C308-Pad1)*%
X117475000Y-110363000D02*
X118048000Y-109790000D01*
X118048000Y-109790000D02*
X118048000Y-109347000D01*
X117475000Y-110935000D02*
X117475000Y-110363000D01*
X117475000Y-110935000D02*
X116001000Y-110935000D01*
X116001000Y-110935000D02*
X115951000Y-110985000D01*
%TO.N,Net-(C312-Pad2)*%
X105410000Y-110744000D02*
X101613000Y-110744000D01*
X124396000Y-107887000D02*
X125095000Y-107887000D01*
X122998000Y-108077000D02*
X121539000Y-108077000D01*
X107188000Y-108966000D02*
X105410000Y-110744000D01*
X124206000Y-108077000D02*
X124396000Y-107887000D01*
X122998000Y-108077000D02*
X124206000Y-108077000D01*
X101613000Y-110744000D02*
X101613000Y-112268000D01*
%TO.N,Net-(D201-Pad1)*%
X116840000Y-91440000D02*
X115316000Y-91440000D01*
X98298000Y-87122000D02*
X95504000Y-84328000D01*
X115316000Y-91440000D02*
X110998000Y-87122000D01*
X110998000Y-87122000D02*
X98298000Y-87122000D01*
X95504000Y-84328000D02*
X95504000Y-81314000D01*
%TO.N,Net-(D202-Pad1)*%
X132016000Y-124079000D02*
X132969000Y-124079000D01*
X114173000Y-85344000D02*
X101380000Y-85344000D01*
X116840000Y-86360000D02*
X115189000Y-86360000D01*
X115189000Y-86360000D02*
X114173000Y-85344000D01*
%TO.N,Net-(D203-Pad1)*%
X114935000Y-81534000D02*
X101380000Y-81534000D01*
X132016000Y-121031000D02*
X132969000Y-121031000D01*
X116840000Y-81280000D02*
X115189000Y-81280000D01*
X115189000Y-81280000D02*
X114935000Y-81534000D01*
%TO.N,Net-(D205-Pad1)*%
X109728000Y-65532000D02*
X115316000Y-71120000D01*
X118745000Y-70866000D02*
X118491000Y-71120000D01*
X96520000Y-67183000D02*
X98171000Y-65532000D01*
X115316000Y-71120000D02*
X116840000Y-71120000D01*
X118491000Y-71120000D02*
X116840000Y-71120000D01*
X96520000Y-68038000D02*
X96520000Y-67183000D01*
X118745000Y-68326000D02*
X118745000Y-70866000D01*
X132969000Y-127127000D02*
X132016000Y-127127000D01*
X118745000Y-68326000D02*
X118745000Y-66866000D01*
X98171000Y-65532000D02*
X109728000Y-65532000D01*
X118745000Y-66866000D02*
X119952000Y-65659000D01*
%TO.N,Net-(D206-Pad1)*%
X94234000Y-68038000D02*
X94234000Y-67564000D01*
X96774000Y-65024000D02*
X94234000Y-67564000D01*
X111633000Y-65024000D02*
X96774000Y-65024000D01*
X115189000Y-68580000D02*
X111633000Y-65024000D01*
X116840000Y-68580000D02*
X115189000Y-68580000D01*
%TO.N,Net-(D209-Pad1)*%
X116332000Y-88900000D02*
X113538000Y-86106000D01*
X116840000Y-88900000D02*
X116332000Y-88900000D01*
X98806000Y-86106000D02*
X97409000Y-84709000D01*
X113538000Y-86106000D02*
X98806000Y-86106000D01*
X97409000Y-84709000D02*
X97409000Y-81314000D01*
%TO.N,RX_NF*%
X93599000Y-109220000D02*
X97917000Y-109220000D01*
X97917000Y-109220000D02*
X99441000Y-110744000D01*
X99441000Y-110744000D02*
X100063000Y-110744000D01*
%TO.N,+8V*%
X90361000Y-122364000D02*
X90361000Y-123190000D01*
X95758000Y-114300000D02*
X91186000Y-114300000D01*
X97155000Y-115570000D02*
X97028000Y-115570000D01*
D36*
X103505000Y-92837000D02*
X103505000Y-92826100D01*
D37*
X91186000Y-121539000D02*
X90361000Y-122364000D01*
X91186000Y-116713000D02*
X91186000Y-121539000D01*
X90361000Y-110490000D02*
X90361000Y-109664000D01*
X91186000Y-112141000D02*
X90361000Y-111316000D01*
D36*
X104915000Y-93853000D02*
X104915000Y-93231000D01*
D37*
X91186000Y-107569000D02*
X93345000Y-105410000D01*
X91186000Y-114300000D02*
X91186000Y-112141000D01*
D36*
X104915000Y-93853000D02*
X107072000Y-93853000D01*
X104521000Y-92837000D02*
X103505000Y-92837000D01*
X107072000Y-93853000D02*
X107086000Y-93839000D01*
D37*
X97028000Y-115570000D02*
X95758000Y-114300000D01*
X93345000Y-105410000D02*
X94615000Y-105410000D01*
X90361000Y-109664000D02*
X91186000Y-108839000D01*
X90361000Y-111316000D02*
X90361000Y-110490000D01*
X91186000Y-108839000D02*
X91186000Y-107569000D01*
X91186000Y-114300000D02*
X91186000Y-116713000D01*
D36*
X104915000Y-93231000D02*
X104521000Y-92837000D01*
D37*
%TO.N,Net-(D103-Pad1)*%
X127991000Y-124594000D02*
X125434000Y-124594000D01*
X102616000Y-116205000D02*
X103505000Y-117094000D01*
X125434000Y-124594000D02*
X122528000Y-127500000D01*
X102142000Y-116205000D02*
X102616000Y-116205000D01*
%TO.N,St2*%
X94615000Y-110490000D02*
X92011000Y-110490000D01*
X98679000Y-114300000D02*
X96520000Y-114300000D01*
X95885000Y-113665000D02*
X95885000Y-111760000D01*
X96520000Y-114300000D02*
X95885000Y-113665000D01*
X95885000Y-111760000D02*
X94615000Y-110490000D01*
X100042000Y-116205000D02*
X100042000Y-115663000D01*
X100042000Y-115663000D02*
X98679000Y-114300000D01*
%TO.N,St1*%
X98679000Y-121412000D02*
X102963000Y-121412000D01*
X92011000Y-123190000D02*
X94615000Y-123190000D01*
%TO.N,Net-(D205-Pad2)*%
X95919000Y-70138000D02*
X95342089Y-69561089D01*
X95342089Y-69561089D02*
X93500089Y-69561089D01*
X96520000Y-70138000D02*
X95919000Y-70138000D01*
X96774000Y-72201000D02*
X96774000Y-70993000D01*
X93500089Y-69561089D02*
X92519000Y-68580000D01*
X96520000Y-70739000D02*
X96520000Y-70138000D01*
X96774000Y-70993000D02*
X96520000Y-70739000D01*
%TO.N,Net-(D206-Pad2)*%
X92553000Y-70138000D02*
X92519000Y-70104000D01*
X94234000Y-70138000D02*
X92553000Y-70138000D01*
X94776000Y-70138000D02*
X95504000Y-70866000D01*
X95504000Y-70866000D02*
X95504000Y-72201000D01*
X94234000Y-70138000D02*
X94776000Y-70138000D01*
%TO.N,Net-(D204-Pad2)*%
X120460000Y-77914000D02*
X120777000Y-77597000D01*
X120460000Y-78613000D02*
X118872000Y-78613000D01*
X118872000Y-78613000D02*
X117729000Y-77470000D01*
X115570000Y-77470000D02*
X108238000Y-70138000D01*
X120777000Y-77597000D02*
X124172000Y-77597000D01*
X108238000Y-70138000D02*
X100330000Y-70138000D01*
X120460000Y-78613000D02*
X120460000Y-77914000D01*
X99788000Y-70138000D02*
X99314000Y-70612000D01*
X100330000Y-70138000D02*
X99788000Y-70138000D01*
X99314000Y-70612000D02*
X99314000Y-72201000D01*
X117729000Y-77470000D02*
X115570000Y-77470000D01*
%TO.N,Net-(C106-Pad1)*%
X110870000Y-130823000D02*
X110991000Y-130944000D01*
X108839000Y-130823000D02*
X110870000Y-130823000D01*
X107315000Y-129223000D02*
X107315000Y-129299000D01*
X107315000Y-129299000D02*
X108839000Y-130823000D01*
%TO.N,Net-(D204-Pad1)*%
X100330000Y-68038000D02*
X107154000Y-68038000D01*
X132016000Y-117252500D02*
X130429000Y-115665500D01*
X115316000Y-76200000D02*
X116840000Y-76200000D01*
X130429000Y-115665500D02*
X130429000Y-101727000D01*
X132016000Y-117983000D02*
X132016000Y-117252500D01*
X107154000Y-68038000D02*
X115316000Y-76200000D01*
%TO.N,TX_FLAT*%
X100063000Y-109220000D02*
X98793000Y-107950000D01*
X98793000Y-107950000D02*
X97155000Y-107950000D01*
X97155000Y-105410000D02*
X97155000Y-107950000D01*
%TO.N,MISO_PLL*%
X101854000Y-77251000D02*
X101854000Y-77851000D01*
X101854000Y-77851000D02*
X101854000Y-77151000D01*
X99568000Y-131318000D02*
X100168000Y-131318000D01*
X101854000Y-77851000D02*
X101854000Y-78359000D01*
X101854000Y-78359000D02*
X101473002Y-78740000D01*
X98806000Y-132080000D02*
X99568000Y-131318000D01*
%TO.N,Net-(U201-Pad9)*%
X123444000Y-86360000D02*
X124460000Y-86360000D01*
X120099978Y-86741000D02*
X123063000Y-86741000D01*
X119634000Y-91186000D02*
X119253000Y-90805000D01*
X125476000Y-85344000D02*
X125476000Y-84201000D01*
X119253000Y-87587978D02*
X120099978Y-86741000D01*
X121793000Y-92202000D02*
X120777000Y-91186000D01*
X120777000Y-91186000D02*
X119634000Y-91186000D01*
X124079000Y-92202000D02*
X121793000Y-92202000D01*
X124677000Y-93794500D02*
X124677000Y-92800000D01*
X124460000Y-86360000D02*
X125476000Y-85344000D01*
X120043822Y-77343000D02*
X120015000Y-77343000D01*
X121302675Y-76084147D02*
X120043822Y-77343000D01*
X121580000Y-73601500D02*
X121580000Y-74553171D01*
X119253000Y-90805000D02*
X119253000Y-87587978D01*
X121580000Y-74553171D02*
X121302675Y-74830496D01*
X121302675Y-74830496D02*
X121302675Y-76084147D01*
X124677000Y-92800000D02*
X124079000Y-92202000D01*
X123063000Y-86741000D02*
X123444000Y-86360000D01*
%TO.N,RX_FLAT*%
X98552000Y-113030000D02*
X97155000Y-113030000D01*
X97155000Y-110490000D02*
X97155000Y-113030000D01*
X100063000Y-112268000D02*
X99314000Y-112268000D01*
X99314000Y-112268000D02*
X98552000Y-113030000D01*
%TO.N,MOSI*%
X126469000Y-115974000D02*
X129794000Y-112649000D01*
X124206000Y-100838000D02*
X122174000Y-98806000D01*
X129794000Y-102997000D02*
X127635000Y-100838000D01*
X122174000Y-98806000D02*
X122174000Y-97663000D01*
X125206000Y-115974000D02*
X126469000Y-115974000D01*
X129794000Y-112649000D02*
X129794000Y-102997000D01*
X121031000Y-95123000D02*
X121427000Y-94727000D01*
X121031000Y-96520000D02*
X121031000Y-95123000D01*
X121427000Y-94727000D02*
X121427000Y-93794500D01*
X122174000Y-97663000D02*
X121031000Y-96520000D01*
X127635000Y-100838000D02*
X124206000Y-100838000D01*
%TO.N,A16*%
X124549795Y-66540000D02*
X124180000Y-66909795D01*
X124180000Y-66909795D02*
X124180000Y-67876500D01*
X128260000Y-66540000D02*
X124549795Y-66540000D01*
%TO.N,A15*%
X123530000Y-68920000D02*
X123530000Y-67876500D01*
X128260000Y-69080000D02*
X123690000Y-69080000D01*
X123690000Y-69080000D02*
X123530000Y-68920000D01*
%TO.N,A14*%
X122880000Y-69032000D02*
X122880000Y-67876500D01*
X126236000Y-69596000D02*
X123444000Y-69596000D01*
X128260000Y-71620000D02*
X126236000Y-69596000D01*
X123444000Y-69596000D02*
X122880000Y-69032000D01*
%TO.N,A13*%
X125603000Y-70104000D02*
X123190000Y-70104000D01*
X123190000Y-70104000D02*
X122230000Y-69144000D01*
X127508000Y-72009000D02*
X125603000Y-70104000D01*
X122230000Y-69144000D02*
X122230000Y-67876500D01*
X128260000Y-74160000D02*
X127508000Y-73408000D01*
X127508000Y-73408000D02*
X127508000Y-72009000D01*
%TO.N,A12*%
X121580000Y-69256000D02*
X122936000Y-70612000D01*
X127000000Y-72263000D02*
X127000000Y-75440000D01*
X121580000Y-67876500D02*
X121580000Y-69256000D01*
X122936000Y-70612000D02*
X125349000Y-70612000D01*
X127000000Y-75440000D02*
X128260000Y-76700000D01*
X125349000Y-70612000D02*
X127000000Y-72263000D01*
%TO.N,A11*%
X120930000Y-69368000D02*
X122682000Y-71120000D01*
X128260000Y-79240000D02*
X127246000Y-79240000D01*
X122682000Y-71120000D02*
X125095000Y-71120000D01*
X126492000Y-72517000D02*
X126491999Y-76072999D01*
X125095000Y-71120000D02*
X126492000Y-72517000D01*
X120930000Y-67876500D02*
X120930000Y-69368000D01*
X127246000Y-79240000D02*
X126492000Y-78486000D01*
%TO.N,A10*%
X127633000Y-81153000D02*
X128260000Y-81780000D01*
X120280000Y-69480000D02*
X122428000Y-71628000D01*
X120280000Y-67876500D02*
X120280000Y-69480000D01*
X125603000Y-75438000D02*
X125603000Y-80518000D01*
X124901400Y-71628000D02*
X125984000Y-72710600D01*
X125603000Y-80518000D02*
X126238000Y-81153000D01*
X122428000Y-71628000D02*
X124901400Y-71628000D01*
X126238000Y-81153000D02*
X127633000Y-81153000D01*
X125984000Y-72710600D02*
X125984000Y-75057000D01*
X125984000Y-75057000D02*
X125603000Y-75438000D01*
%TO.N,A09*%
X120930000Y-73601500D02*
X120930000Y-72618000D01*
X125828178Y-83185000D02*
X127000000Y-83185000D01*
X128135000Y-84320000D02*
X128260000Y-84320000D01*
X125492901Y-74659099D02*
X125150822Y-75001178D01*
X121412000Y-72136000D02*
X124714000Y-72136000D01*
X125603000Y-81534000D02*
X125603000Y-82959822D01*
X120930000Y-72618000D02*
X121412000Y-72136000D01*
X124714000Y-72136000D02*
X125492901Y-72914901D01*
X127000000Y-83185000D02*
X128135000Y-84320000D01*
X125150822Y-75001178D02*
X125150822Y-81081822D01*
X125150822Y-81081822D02*
X125603000Y-81534000D01*
X125492901Y-72914901D02*
X125492901Y-74659099D01*
X125603000Y-82959822D02*
X125828178Y-83185000D01*
%TO.N,A08*%
X124027000Y-87174000D02*
X124341000Y-86860000D01*
X124027000Y-88069500D02*
X124027000Y-87174000D01*
X124341000Y-86860000D02*
X128260000Y-86860000D01*
%TO.N,A07*%
X127516000Y-89400000D02*
X128260000Y-89400000D01*
X123672000Y-89154000D02*
X127254000Y-89154000D01*
X123377000Y-88069500D02*
X123377000Y-88859000D01*
X123377000Y-88859000D02*
X123672000Y-89154000D01*
X127508000Y-89408000D02*
X127516000Y-89400000D01*
X127254000Y-89154000D02*
X127508000Y-89408000D01*
%TO.N,A06*%
X128260000Y-91940000D02*
X127754000Y-91940000D01*
X127754000Y-91940000D02*
X125476000Y-89662000D01*
X122727000Y-89225000D02*
X122727000Y-88069500D01*
X125476000Y-89662000D02*
X123164000Y-89662000D01*
X123164000Y-89662000D02*
X122727000Y-89225000D01*
%TO.N,A05*%
X122936000Y-90170000D02*
X122077000Y-89311000D01*
X127381000Y-94107000D02*
X127381000Y-92329000D01*
X128260000Y-94480000D02*
X127754000Y-94480000D01*
X125222000Y-90170000D02*
X122936000Y-90170000D01*
X127754000Y-94480000D02*
X127381000Y-94107000D01*
X127381000Y-92329000D02*
X125222000Y-90170000D01*
X122077000Y-89311000D02*
X122077000Y-88069500D01*
%TO.N,A04*%
X126111000Y-91821000D02*
X124968000Y-90678000D01*
X121427000Y-89423000D02*
X121427000Y-88069500D01*
X126865000Y-97020000D02*
X126111000Y-96266000D01*
X124968000Y-90678000D02*
X122682000Y-90678000D01*
X122682000Y-90678000D02*
X121427000Y-89423000D01*
X126111000Y-96266000D02*
X126111000Y-91821000D01*
X128260000Y-97020000D02*
X126865000Y-97020000D01*
%TO.N,A03*%
X120777000Y-89535000D02*
X122682000Y-91440000D01*
X128260000Y-99560000D02*
X126103000Y-99560000D01*
X122682000Y-91440000D02*
X123190000Y-91440000D01*
X120777000Y-88069500D02*
X120777000Y-89535000D01*
X126103000Y-99560000D02*
X123952000Y-97409000D01*
%TO.N,A02*%
X120660000Y-99576000D02*
X121404000Y-99576000D01*
X120127000Y-89296000D02*
X120015000Y-89408000D01*
X120127000Y-88069500D02*
X120127000Y-89296000D01*
X121404000Y-99576000D02*
X121412000Y-99568000D01*
%TO.N,A01*%
X118491000Y-93678964D02*
X118491000Y-96266000D01*
X119642000Y-97417000D02*
X120660000Y-97417000D01*
X120489635Y-92742491D02*
X120489635Y-92726027D01*
X120489635Y-92726027D02*
X119443937Y-92726027D01*
X119443937Y-92726027D02*
X118491000Y-93678964D01*
X118491000Y-96266000D02*
X119642000Y-97417000D01*
X120777000Y-93794500D02*
X120777000Y-93029856D01*
X120777000Y-93029856D02*
X120489635Y-92742491D01*
%TO.N,Net-(D212-Pad1)*%
X99568000Y-66040000D02*
X98425000Y-67183000D01*
X123381000Y-66230000D02*
X123381000Y-65659000D01*
X116840000Y-73660000D02*
X115316000Y-73660000D01*
X120015000Y-66675000D02*
X122936000Y-66675000D01*
X115316000Y-73660000D02*
X107696000Y-66040000D01*
X119507000Y-67183000D02*
X120015000Y-66675000D01*
X122936000Y-66675000D02*
X123381000Y-66230000D01*
X119507000Y-69723000D02*
X119507000Y-67183000D01*
X107696000Y-66040000D02*
X99568000Y-66040000D01*
X116840000Y-73660000D02*
X118364000Y-73660000D01*
X132016000Y-125603000D02*
X132969000Y-125603000D01*
X118364000Y-73660000D02*
X119507000Y-72517000D01*
X98425000Y-68038000D02*
X98425000Y-67183000D01*
X119507000Y-72517000D02*
X119507000Y-69723000D01*
%TO.N,Net-(D211-Pad1)*%
X132016000Y-119507000D02*
X132969000Y-119507000D01*
X101380000Y-79629000D02*
X114300000Y-79629000D01*
X115189000Y-78740000D02*
X116840000Y-78740000D01*
X114300000Y-79629000D02*
X115189000Y-78740000D01*
%TO.N,Net-(D210-Pad1)*%
X102362000Y-83820000D02*
X101981000Y-83439000D01*
X116840000Y-83820000D02*
X102362000Y-83820000D01*
X132016000Y-122555000D02*
X132969000Y-122555000D01*
X101981000Y-83439000D02*
X101380000Y-83439000D01*
%TO.N,Net-(D212-Pad2)*%
X93472000Y-68040500D02*
X92519000Y-67087500D01*
X98425000Y-70612000D02*
X98425000Y-70138000D01*
X92519000Y-67087500D02*
X92519000Y-67056000D01*
X93853000Y-69088000D02*
X93472000Y-68707000D01*
X96901000Y-69088000D02*
X93853000Y-69088000D01*
X98044000Y-72201000D02*
X98044000Y-70993000D01*
X97951000Y-70138000D02*
X96901000Y-69088000D01*
X93472000Y-68707000D02*
X93472000Y-68040500D01*
X98044000Y-70993000D02*
X98425000Y-70612000D01*
X98425000Y-70138000D02*
X97951000Y-70138000D01*
%TO.N,TX_NF*%
X97155000Y-123190000D02*
X97155000Y-125730000D01*
X95885000Y-121920000D02*
X95885000Y-117348000D01*
X96393000Y-116840000D02*
X100584000Y-116840000D01*
X95885000Y-117348000D02*
X96393000Y-116840000D01*
X100838000Y-108471000D02*
X100063000Y-107696000D01*
X97155000Y-123190000D02*
X95885000Y-121920000D01*
X100584000Y-116840000D02*
X100838000Y-116586000D01*
X100838000Y-116586000D02*
X100838000Y-108471000D01*
%TO.N,Net-(J101-Pad3)*%
X92011000Y-97790000D02*
X94615000Y-97790000D01*
%TO.N,Net-(J101-Pad5)*%
X92011000Y-100330000D02*
X94615000Y-100330000D01*
%TO.N,Net-(J101-Pad7)*%
X92011000Y-102870000D02*
X94615000Y-102870000D01*
%TO.N,Net-(C302-Pad1)*%
X111379000Y-110998000D02*
X111379000Y-110935000D01*
X114377000Y-112585000D02*
X114427000Y-112535000D01*
X112903000Y-112522000D02*
X111379000Y-110998000D01*
X112903000Y-112585000D02*
X114377000Y-112585000D01*
X112903000Y-112585000D02*
X112903000Y-112522000D01*
%TO.N,Net-(C303-Pad1)*%
X111379000Y-112585000D02*
X109905000Y-112585000D01*
X109805000Y-112585000D02*
X109855000Y-112535000D01*
X108331000Y-112585000D02*
X109805000Y-112585000D01*
X109905000Y-112585000D02*
X109855000Y-112535000D01*
%TO.N,Net-(C306-Pad1)*%
X122047000Y-112585000D02*
X123521000Y-112585000D01*
X120523000Y-110998000D02*
X120523000Y-110935000D01*
X123521000Y-112585000D02*
X123571000Y-112535000D01*
X122047000Y-112585000D02*
X122047000Y-112522000D01*
X122047000Y-112522000D02*
X120523000Y-110998000D01*
%TO.N,Net-(C307-Pad1)*%
X117475000Y-112585000D02*
X118949000Y-112585000D01*
X118949000Y-112585000D02*
X118999000Y-112535000D01*
X119049000Y-112585000D02*
X118999000Y-112535000D01*
X120523000Y-112585000D02*
X119049000Y-112585000D01*
%TO.N,Net-(D101-Pad1)*%
X100965000Y-118491000D02*
X100042000Y-118491000D01*
X98425000Y-118110000D02*
X97155000Y-118110000D01*
X98806000Y-118491000D02*
X98425000Y-118110000D01*
X101610000Y-117846000D02*
X100965000Y-118491000D01*
X105029000Y-117846000D02*
X101610000Y-117846000D01*
X100042000Y-118491000D02*
X98806000Y-118491000D01*
%TO.N,Net-(J101-Pad32)*%
X97282000Y-133350000D02*
X97917000Y-133985000D01*
X100457000Y-134493000D02*
X99949000Y-133985000D01*
X97917000Y-133985000D02*
X99949000Y-133985000D01*
X97155000Y-133350000D02*
X97282000Y-133350000D01*
X101971000Y-134493000D02*
X100457000Y-134493000D01*
%TO.N,Net-(C314-Pad1)*%
X126619000Y-109537000D02*
X126619000Y-110935000D01*
X125095000Y-110985000D02*
X125095000Y-109537000D01*
X126619000Y-110935000D02*
X125145000Y-110935000D01*
X125145000Y-110935000D02*
X125095000Y-110985000D01*
%TO.N,Net-(C315-Pad1)*%
X125032000Y-103378000D02*
X123584000Y-103378000D01*
%TO.N,Net-(R312-Pad2)*%
X127191000Y-104839000D02*
X127635000Y-105283000D01*
X126682000Y-104776000D02*
X126619000Y-104839000D01*
X126682000Y-103378000D02*
X126682000Y-104776000D01*
X126619000Y-104839000D02*
X127191000Y-104839000D01*
%TO.N,Net-(R314-Pad1)*%
X122998000Y-106807000D02*
X121539000Y-106807000D01*
X125095000Y-106489000D02*
X126619000Y-106489000D01*
X124079000Y-106807000D02*
X124397000Y-106489000D01*
X124397000Y-106489000D02*
X125095000Y-106489000D01*
X122998000Y-106807000D02*
X124079000Y-106807000D01*
%TD*%
%TA.AperFunction,Conductor*%
%TO.N,+3V3*%
G36*
X110985237Y-87650002D02*
G01*
X111006211Y-87666905D01*
X115009522Y-91670216D01*
X115024664Y-91688964D01*
X115025779Y-91690189D01*
X115031429Y-91698940D01*
X115039607Y-91705387D01*
X115039609Y-91705389D01*
X115057800Y-91719729D01*
X115062244Y-91723678D01*
X115062306Y-91723604D01*
X115066263Y-91726957D01*
X115069944Y-91730638D01*
X115085654Y-91741865D01*
X115090380Y-91745413D01*
X115125044Y-91772739D01*
X115125046Y-91772741D01*
X115130648Y-91777157D01*
X115130113Y-91777836D01*
X115173758Y-91821729D01*
X115189000Y-91881801D01*
X115189000Y-99950000D01*
X115168998Y-100018121D01*
X115115342Y-100064614D01*
X115063000Y-100076000D01*
X101172884Y-100076000D01*
X101104763Y-100055998D01*
X101083789Y-100039095D01*
X101000405Y-99955711D01*
X100966379Y-99893399D01*
X100963500Y-99866616D01*
X100963500Y-93846096D01*
X101575729Y-93846096D01*
X101576563Y-93853646D01*
X101588085Y-93958008D01*
X101593113Y-94003553D01*
X101595723Y-94010684D01*
X101595723Y-94010686D01*
X101640121Y-94132009D01*
X101647553Y-94152319D01*
X101651789Y-94158622D01*
X101651789Y-94158623D01*
X101703266Y-94235228D01*
X101735908Y-94283805D01*
X101741527Y-94288918D01*
X101741528Y-94288919D01*
X101792869Y-94335635D01*
X101853076Y-94390419D01*
X101992293Y-94466008D01*
X102145522Y-94506207D01*
X102229477Y-94507526D01*
X102296319Y-94508576D01*
X102296322Y-94508576D01*
X102303916Y-94508695D01*
X102458332Y-94473329D01*
X102599855Y-94402151D01*
X102605630Y-94397219D01*
X102610356Y-94394079D01*
X102678165Y-94373044D01*
X102746582Y-94392007D01*
X102780907Y-94423463D01*
X102797456Y-94445544D01*
X102809309Y-94454427D01*
X102851823Y-94511286D01*
X102856847Y-94582105D01*
X102836828Y-94627703D01*
X102796950Y-94684444D01*
X102769184Y-94755661D01*
X102745451Y-94816533D01*
X102739406Y-94832037D01*
X102738414Y-94839570D01*
X102738414Y-94839571D01*
X102720818Y-94973230D01*
X102718729Y-94989096D01*
X102736113Y-95146553D01*
X102738723Y-95153684D01*
X102738723Y-95153686D01*
X102781799Y-95271396D01*
X102790553Y-95295319D01*
X102794788Y-95301622D01*
X102794792Y-95301629D01*
X102838351Y-95366451D01*
X102859744Y-95434148D01*
X102841140Y-95502664D01*
X102809336Y-95537552D01*
X102804641Y-95541071D01*
X102797456Y-95546456D01*
X102756269Y-95601411D01*
X102720465Y-95649183D01*
X102720463Y-95649186D01*
X102715083Y-95656365D01*
X102711933Y-95664769D01*
X102711932Y-95664770D01*
X102698289Y-95701165D01*
X102666870Y-95784976D01*
X102660500Y-95843611D01*
X102660501Y-96434388D01*
X102660870Y-96437782D01*
X102660870Y-96437788D01*
X102665510Y-96480500D01*
X102666870Y-96493024D01*
X102715083Y-96621635D01*
X102720463Y-96628814D01*
X102720465Y-96628817D01*
X102724634Y-96634379D01*
X102797456Y-96731544D01*
X102804640Y-96736928D01*
X102823065Y-96750737D01*
X102865580Y-96807597D01*
X102873500Y-96851563D01*
X102873500Y-96948676D01*
X102850587Y-97021126D01*
X102796950Y-97097444D01*
X102739406Y-97245037D01*
X102738414Y-97252570D01*
X102738414Y-97252571D01*
X102723694Y-97364384D01*
X102718729Y-97402096D01*
X102736113Y-97559553D01*
X102738723Y-97566684D01*
X102738723Y-97566686D01*
X102774311Y-97663934D01*
X102790553Y-97708319D01*
X102794789Y-97714622D01*
X102794789Y-97714623D01*
X102852082Y-97799884D01*
X102873500Y-97870160D01*
X102873500Y-98100376D01*
X102872159Y-98112381D01*
X102872655Y-98112421D01*
X102871935Y-98121368D01*
X102869954Y-98130124D01*
X102871022Y-98147345D01*
X102873258Y-98183382D01*
X102873500Y-98191184D01*
X102873500Y-98207226D01*
X102874135Y-98211657D01*
X102874135Y-98211662D01*
X102874965Y-98217453D01*
X102875996Y-98227514D01*
X102878902Y-98274359D01*
X102881949Y-98282799D01*
X102882630Y-98286089D01*
X102886582Y-98301938D01*
X102887527Y-98305168D01*
X102888799Y-98314052D01*
X102892514Y-98322223D01*
X102908218Y-98356763D01*
X102912030Y-98366128D01*
X102924922Y-98401837D01*
X102924924Y-98401840D01*
X102927972Y-98410284D01*
X102933268Y-98417533D01*
X102934840Y-98420490D01*
X102943083Y-98434597D01*
X102944896Y-98437432D01*
X102948612Y-98445605D01*
X102954473Y-98452407D01*
X102959308Y-98459967D01*
X102958016Y-98460793D01*
X102984044Y-98520579D01*
X102988806Y-98563711D01*
X102990113Y-98575553D01*
X102992723Y-98582684D01*
X102992723Y-98582686D01*
X103009140Y-98627546D01*
X103044553Y-98724319D01*
X103048789Y-98730622D01*
X103048789Y-98730623D01*
X103115331Y-98829647D01*
X103132908Y-98855805D01*
X103138527Y-98860918D01*
X103138528Y-98860919D01*
X103234645Y-98948378D01*
X103250076Y-98962419D01*
X103389293Y-99038008D01*
X103542522Y-99078207D01*
X103626477Y-99079526D01*
X103693319Y-99080576D01*
X103693322Y-99080576D01*
X103700916Y-99080695D01*
X103855332Y-99045329D01*
X103925742Y-99009917D01*
X103990072Y-98977563D01*
X103990075Y-98977561D01*
X103996855Y-98974151D01*
X104013789Y-98959688D01*
X104078579Y-98930658D01*
X104095619Y-98929500D01*
X104181153Y-98929500D01*
X104249274Y-98949502D01*
X104254068Y-98953185D01*
X104254266Y-98952907D01*
X104260459Y-98957308D01*
X104266076Y-98962419D01*
X104405293Y-99038008D01*
X104558522Y-99078207D01*
X104642477Y-99079526D01*
X104709319Y-99080576D01*
X104709322Y-99080576D01*
X104716916Y-99080695D01*
X104871332Y-99045329D01*
X104941742Y-99009917D01*
X105006072Y-98977563D01*
X105006075Y-98977561D01*
X105012855Y-98974151D01*
X105029789Y-98959688D01*
X105094579Y-98930658D01*
X105111619Y-98929500D01*
X105197153Y-98929500D01*
X105265274Y-98949502D01*
X105270068Y-98953185D01*
X105270266Y-98952907D01*
X105276459Y-98957308D01*
X105282076Y-98962419D01*
X105421293Y-99038008D01*
X105574522Y-99078207D01*
X105707481Y-99080295D01*
X105775278Y-99101364D01*
X105820922Y-99155743D01*
X105830553Y-99201749D01*
X105830894Y-99201715D01*
X105831204Y-99204858D01*
X105831501Y-99206279D01*
X105831501Y-99214066D01*
X105838612Y-99249818D01*
X105842345Y-99268586D01*
X105846266Y-99288301D01*
X105853161Y-99298620D01*
X105853162Y-99298622D01*
X105881924Y-99341667D01*
X105902516Y-99372484D01*
X105986699Y-99428734D01*
X106060933Y-99443500D01*
X107085834Y-99443500D01*
X108111066Y-99443499D01*
X108146818Y-99436388D01*
X108173126Y-99431156D01*
X108173128Y-99431155D01*
X108185301Y-99428734D01*
X108195621Y-99421839D01*
X108195622Y-99421838D01*
X108259168Y-99379377D01*
X108269484Y-99372484D01*
X108325734Y-99288301D01*
X108340500Y-99214067D01*
X108340500Y-98926096D01*
X111227729Y-98926096D01*
X111235824Y-98999416D01*
X111243135Y-99065635D01*
X111245113Y-99083553D01*
X111247723Y-99090684D01*
X111247723Y-99090686D01*
X111292874Y-99214067D01*
X111299553Y-99232319D01*
X111303789Y-99238622D01*
X111303789Y-99238623D01*
X111318534Y-99260565D01*
X111387908Y-99363805D01*
X111393527Y-99368918D01*
X111393528Y-99368919D01*
X111491892Y-99458423D01*
X111505076Y-99470419D01*
X111644293Y-99546008D01*
X111797522Y-99586207D01*
X111881477Y-99587526D01*
X111948319Y-99588576D01*
X111948322Y-99588576D01*
X111955916Y-99588695D01*
X112110332Y-99553329D01*
X112180742Y-99517917D01*
X112245072Y-99485563D01*
X112245075Y-99485561D01*
X112251855Y-99482151D01*
X112257626Y-99477222D01*
X112257629Y-99477220D01*
X112366536Y-99384204D01*
X112366536Y-99384203D01*
X112372314Y-99379269D01*
X112464755Y-99250624D01*
X112523842Y-99103641D01*
X112537969Y-99004378D01*
X112545581Y-98950891D01*
X112545581Y-98950888D01*
X112546162Y-98946807D01*
X112546307Y-98933000D01*
X112527276Y-98775733D01*
X112505286Y-98717538D01*
X112499918Y-98646744D01*
X112533676Y-98584287D01*
X112595842Y-98549995D01*
X112614745Y-98547922D01*
X112633124Y-98542525D01*
X112634329Y-98541135D01*
X112636000Y-98533452D01*
X112636000Y-98528884D01*
X114136000Y-98528884D01*
X114140475Y-98544123D01*
X114141865Y-98545328D01*
X114149548Y-98546999D01*
X114430669Y-98546999D01*
X114437490Y-98546629D01*
X114488352Y-98541105D01*
X114503604Y-98537479D01*
X114624054Y-98492324D01*
X114639649Y-98483786D01*
X114741724Y-98407285D01*
X114754285Y-98394724D01*
X114830786Y-98292649D01*
X114839324Y-98277054D01*
X114884478Y-98156606D01*
X114888105Y-98141351D01*
X114893631Y-98090486D01*
X114894000Y-98083672D01*
X114894000Y-96907115D01*
X114889525Y-96891876D01*
X114888135Y-96890671D01*
X114880452Y-96889000D01*
X114154115Y-96889000D01*
X114138876Y-96893475D01*
X114137671Y-96894865D01*
X114136000Y-96902548D01*
X114136000Y-98528884D01*
X112636000Y-98528884D01*
X112636000Y-96907115D01*
X112631525Y-96891876D01*
X112630135Y-96890671D01*
X112622452Y-96889000D01*
X111896116Y-96889000D01*
X111880877Y-96893475D01*
X111879672Y-96894865D01*
X111878001Y-96902548D01*
X111878001Y-98083669D01*
X111878370Y-98090488D01*
X111884546Y-98147345D01*
X111872017Y-98217228D01*
X111823695Y-98269242D01*
X111788700Y-98283469D01*
X111726071Y-98298505D01*
X111664563Y-98313271D01*
X111664560Y-98313272D01*
X111657184Y-98315043D01*
X111516414Y-98387700D01*
X111397039Y-98491838D01*
X111305950Y-98621444D01*
X111303190Y-98628524D01*
X111268485Y-98717538D01*
X111248406Y-98769037D01*
X111247414Y-98776570D01*
X111247414Y-98776571D01*
X111231466Y-98897712D01*
X111227729Y-98926096D01*
X108340500Y-98926096D01*
X108340499Y-97663934D01*
X108325734Y-97589699D01*
X108309308Y-97565115D01*
X108280725Y-97522339D01*
X108259510Y-97454587D01*
X108278293Y-97386120D01*
X108324981Y-97341817D01*
X108339646Y-97333788D01*
X108441724Y-97257285D01*
X108454285Y-97244724D01*
X108530786Y-97142649D01*
X108539324Y-97127054D01*
X108584478Y-97006606D01*
X108588105Y-96991351D01*
X108593631Y-96940486D01*
X108594000Y-96933672D01*
X108594000Y-96411115D01*
X108589525Y-96395876D01*
X108588135Y-96394671D01*
X108580452Y-96393000D01*
X105187115Y-96393000D01*
X105171876Y-96397475D01*
X105170671Y-96398865D01*
X105169000Y-96406548D01*
X105169000Y-97103885D01*
X105173475Y-97119124D01*
X105174865Y-97120329D01*
X105182548Y-97122000D01*
X105185438Y-97122000D01*
X105191953Y-97121663D01*
X105284057Y-97112106D01*
X105297456Y-97109212D01*
X105446115Y-97059616D01*
X105459758Y-97053225D01*
X105529931Y-97042439D01*
X105594795Y-97071304D01*
X105631193Y-97123097D01*
X105632677Y-97127056D01*
X105641214Y-97142649D01*
X105717715Y-97244724D01*
X105730276Y-97257285D01*
X105832354Y-97333788D01*
X105847019Y-97341817D01*
X105897165Y-97392076D01*
X105912179Y-97461467D01*
X105891275Y-97522339D01*
X105846266Y-97589699D01*
X105831500Y-97663933D01*
X105830114Y-97663657D01*
X105806210Y-97722863D01*
X105748258Y-97763875D01*
X105706736Y-97770683D01*
X105588221Y-97770062D01*
X105580841Y-97771834D01*
X105580839Y-97771834D01*
X105441563Y-97805271D01*
X105441560Y-97805272D01*
X105434184Y-97807043D01*
X105293414Y-97879700D01*
X105287692Y-97884692D01*
X105287690Y-97884693D01*
X105282236Y-97889451D01*
X105217753Y-97919157D01*
X105199409Y-97920500D01*
X105113667Y-97920500D01*
X105045546Y-97900498D01*
X105030143Y-97888802D01*
X105029954Y-97888670D01*
X105024275Y-97883611D01*
X104884274Y-97809484D01*
X104730633Y-97770892D01*
X104723034Y-97770852D01*
X104723033Y-97770852D01*
X104657181Y-97770507D01*
X104572221Y-97770062D01*
X104564841Y-97771834D01*
X104564839Y-97771834D01*
X104425563Y-97805271D01*
X104425560Y-97805272D01*
X104418184Y-97807043D01*
X104277414Y-97879700D01*
X104271692Y-97884692D01*
X104271690Y-97884693D01*
X104266236Y-97889451D01*
X104201753Y-97919157D01*
X104183409Y-97920500D01*
X104097667Y-97920500D01*
X104029546Y-97900498D01*
X104014139Y-97888798D01*
X104013947Y-97888665D01*
X104008275Y-97883611D01*
X104001555Y-97880053D01*
X103999797Y-97878831D01*
X103955273Y-97823529D01*
X103947716Y-97752936D01*
X103956885Y-97727078D01*
X103955755Y-97726624D01*
X104009225Y-97593613D01*
X104014842Y-97579641D01*
X104032639Y-97454587D01*
X104036581Y-97426891D01*
X104036581Y-97426888D01*
X104037162Y-97422807D01*
X104037307Y-97409000D01*
X104035982Y-97398046D01*
X104028667Y-97337601D01*
X104018276Y-97251733D01*
X103962280Y-97103546D01*
X103921256Y-97043855D01*
X103904660Y-97019708D01*
X103882500Y-96948341D01*
X103882500Y-96918753D01*
X103902502Y-96850632D01*
X103956158Y-96804139D01*
X104026432Y-96794035D01*
X104091012Y-96823529D01*
X104107247Y-96840491D01*
X104116821Y-96852571D01*
X104227429Y-96962986D01*
X104238840Y-96971998D01*
X104371880Y-97054004D01*
X104385061Y-97060151D01*
X104533814Y-97109491D01*
X104547190Y-97112358D01*
X104638097Y-97121672D01*
X104643126Y-97121929D01*
X104658124Y-97117525D01*
X104659329Y-97116135D01*
X104661000Y-97108452D01*
X104661000Y-95174115D01*
X104656525Y-95158876D01*
X104655135Y-95157671D01*
X104647452Y-95156000D01*
X104644562Y-95156000D01*
X104638047Y-95156337D01*
X104545943Y-95165894D01*
X104532544Y-95168788D01*
X104383893Y-95218381D01*
X104370714Y-95224555D01*
X104237827Y-95306788D01*
X104226426Y-95315824D01*
X104208350Y-95333932D01*
X104146068Y-95368012D01*
X104075248Y-95363009D01*
X104018374Y-95320513D01*
X103993505Y-95254014D01*
X104002268Y-95197919D01*
X104012008Y-95173691D01*
X104012008Y-95173690D01*
X104014842Y-95166641D01*
X104033822Y-95033276D01*
X104036581Y-95013891D01*
X104036581Y-95013888D01*
X104037162Y-95009807D01*
X104037307Y-94996000D01*
X104018276Y-94838733D01*
X103962280Y-94690546D01*
X103908993Y-94613012D01*
X103886893Y-94545544D01*
X103904778Y-94476837D01*
X103923740Y-94452548D01*
X103925360Y-94450928D01*
X103932544Y-94445544D01*
X103965066Y-94402151D01*
X104009535Y-94342817D01*
X104009537Y-94342814D01*
X104014917Y-94335635D01*
X104022018Y-94316693D01*
X104064659Y-94259928D01*
X104131221Y-94235228D01*
X104200570Y-94250435D01*
X104250688Y-94300721D01*
X104257982Y-94316693D01*
X104265083Y-94335635D01*
X104270463Y-94342814D01*
X104270465Y-94342817D01*
X104314934Y-94402151D01*
X104347456Y-94445544D01*
X104354633Y-94450923D01*
X104450183Y-94522535D01*
X104450186Y-94522537D01*
X104457365Y-94527917D01*
X104465769Y-94531067D01*
X104465770Y-94531068D01*
X104578581Y-94573358D01*
X104578582Y-94573358D01*
X104585976Y-94576130D01*
X104593826Y-94576983D01*
X104593827Y-94576983D01*
X104640975Y-94582105D01*
X104644611Y-94582500D01*
X104914920Y-94582500D01*
X105185388Y-94582499D01*
X105188782Y-94582130D01*
X105188788Y-94582130D01*
X105236166Y-94576984D01*
X105236170Y-94576983D01*
X105244024Y-94576130D01*
X105372635Y-94527917D01*
X105379814Y-94522537D01*
X105379817Y-94522535D01*
X105475367Y-94450923D01*
X105482544Y-94445544D01*
X105487923Y-94438367D01*
X105487925Y-94438365D01*
X105510731Y-94407935D01*
X105567590Y-94365420D01*
X105611557Y-94357500D01*
X105705501Y-94357500D01*
X105773622Y-94377502D01*
X105820115Y-94431158D01*
X105831501Y-94483500D01*
X105831501Y-94614066D01*
X105846266Y-94688301D01*
X105853161Y-94698620D01*
X105853162Y-94698622D01*
X105891275Y-94755661D01*
X105912490Y-94823413D01*
X105893707Y-94891880D01*
X105847019Y-94936183D01*
X105832354Y-94944212D01*
X105730276Y-95020715D01*
X105717715Y-95033276D01*
X105641214Y-95135351D01*
X105632676Y-95150946D01*
X105631197Y-95154891D01*
X105628686Y-95158234D01*
X105628366Y-95158818D01*
X105628282Y-95158772D01*
X105588555Y-95211655D01*
X105521993Y-95236355D01*
X105459964Y-95224855D01*
X105444943Y-95217850D01*
X105296186Y-95168509D01*
X105282810Y-95165642D01*
X105191903Y-95156328D01*
X105186874Y-95156071D01*
X105171876Y-95160475D01*
X105170671Y-95161865D01*
X105169000Y-95169548D01*
X105169000Y-95866885D01*
X105173475Y-95882124D01*
X105174865Y-95883329D01*
X105182548Y-95885000D01*
X108575884Y-95885000D01*
X108591123Y-95880525D01*
X108592328Y-95879135D01*
X108593999Y-95871452D01*
X108593999Y-95344331D01*
X108593629Y-95337510D01*
X108588105Y-95286648D01*
X108584479Y-95271396D01*
X108539324Y-95150946D01*
X108530786Y-95135351D01*
X108454285Y-95033276D01*
X108441724Y-95020715D01*
X108339646Y-94944212D01*
X108324981Y-94936183D01*
X108274835Y-94885924D01*
X108259821Y-94816533D01*
X108280725Y-94755661D01*
X108318839Y-94698620D01*
X108325734Y-94688301D01*
X108340500Y-94614067D01*
X108340499Y-93338096D01*
X111227729Y-93338096D01*
X111231292Y-93370365D01*
X111244003Y-93485495D01*
X111245113Y-93495553D01*
X111247723Y-93502684D01*
X111247723Y-93502686D01*
X111278603Y-93587069D01*
X111299553Y-93644319D01*
X111303789Y-93650622D01*
X111303789Y-93650623D01*
X111361762Y-93736895D01*
X111387908Y-93775805D01*
X111505076Y-93882419D01*
X111644293Y-93958008D01*
X111748518Y-93985351D01*
X111791110Y-93996525D01*
X111851925Y-94033159D01*
X111883280Y-94096856D01*
X111884399Y-94132009D01*
X111878369Y-94187514D01*
X111878000Y-94194328D01*
X111878000Y-95370885D01*
X111882475Y-95386124D01*
X111883865Y-95387329D01*
X111891548Y-95389000D01*
X112617885Y-95389000D01*
X112633124Y-95384525D01*
X112634329Y-95383135D01*
X112636000Y-95375452D01*
X112636000Y-95370885D01*
X114136000Y-95370885D01*
X114140475Y-95386124D01*
X114141865Y-95387329D01*
X114149548Y-95389000D01*
X114875884Y-95389000D01*
X114891123Y-95384525D01*
X114892328Y-95383135D01*
X114893999Y-95375452D01*
X114893999Y-94194331D01*
X114893629Y-94187510D01*
X114888105Y-94136648D01*
X114884479Y-94121396D01*
X114839324Y-94000946D01*
X114830786Y-93985351D01*
X114754285Y-93883276D01*
X114741724Y-93870715D01*
X114639649Y-93794214D01*
X114624054Y-93785676D01*
X114503606Y-93740522D01*
X114488351Y-93736895D01*
X114437486Y-93731369D01*
X114430672Y-93731000D01*
X114154115Y-93731000D01*
X114138876Y-93735475D01*
X114137671Y-93736865D01*
X114136000Y-93744548D01*
X114136000Y-95370885D01*
X112636000Y-95370885D01*
X112636000Y-93749116D01*
X112631525Y-93733877D01*
X112630135Y-93732672D01*
X112609217Y-93728122D01*
X112609499Y-93726826D01*
X112555598Y-93710999D01*
X112509105Y-93657343D01*
X112499001Y-93587069D01*
X112506812Y-93558004D01*
X112521007Y-93522694D01*
X112521008Y-93522692D01*
X112523842Y-93515641D01*
X112536968Y-93423410D01*
X112545581Y-93362891D01*
X112545581Y-93362888D01*
X112546162Y-93358807D01*
X112546307Y-93345000D01*
X112543877Y-93324915D01*
X112540392Y-93296119D01*
X112527276Y-93187733D01*
X112471280Y-93039546D01*
X112445389Y-93001874D01*
X112385855Y-92915251D01*
X112385854Y-92915249D01*
X112381553Y-92908992D01*
X112357860Y-92887882D01*
X112297944Y-92834500D01*
X112263275Y-92803611D01*
X112255889Y-92799700D01*
X112209954Y-92775379D01*
X112123274Y-92729484D01*
X111969633Y-92690892D01*
X111962034Y-92690852D01*
X111962033Y-92690852D01*
X111896181Y-92690507D01*
X111811221Y-92690062D01*
X111803841Y-92691834D01*
X111803839Y-92691834D01*
X111664563Y-92725271D01*
X111664560Y-92725272D01*
X111657184Y-92727043D01*
X111516414Y-92799700D01*
X111397039Y-92903838D01*
X111305950Y-93033444D01*
X111284700Y-93087948D01*
X111262985Y-93143645D01*
X111248406Y-93181037D01*
X111247414Y-93188570D01*
X111247414Y-93188571D01*
X111228774Y-93330161D01*
X111227729Y-93338096D01*
X108340499Y-93338096D01*
X108340499Y-93063934D01*
X108325734Y-92989699D01*
X108310840Y-92967408D01*
X108276377Y-92915832D01*
X108269484Y-92905516D01*
X108185301Y-92849266D01*
X108111067Y-92834500D01*
X107086166Y-92834500D01*
X106060934Y-92834501D01*
X106025182Y-92841612D01*
X105998874Y-92846844D01*
X105998872Y-92846845D01*
X105986699Y-92849266D01*
X105976379Y-92856161D01*
X105976378Y-92856162D01*
X105934197Y-92884347D01*
X105902516Y-92905516D01*
X105846266Y-92989699D01*
X105831500Y-93063933D01*
X105831500Y-93222500D01*
X105811498Y-93290621D01*
X105757842Y-93337114D01*
X105705500Y-93348500D01*
X105611557Y-93348500D01*
X105543436Y-93328498D01*
X105510731Y-93298065D01*
X105487929Y-93267640D01*
X105487926Y-93267637D01*
X105482544Y-93260456D01*
X105465988Y-93248048D01*
X105423474Y-93191188D01*
X105415797Y-93155026D01*
X105414654Y-93136600D01*
X105414654Y-93136598D01*
X105414098Y-93127641D01*
X105411051Y-93119201D01*
X105410370Y-93115911D01*
X105406418Y-93100062D01*
X105405473Y-93096832D01*
X105404201Y-93087948D01*
X105384774Y-93045218D01*
X105380964Y-93035860D01*
X105368075Y-93000158D01*
X105368074Y-93000157D01*
X105365027Y-92991716D01*
X105359731Y-92984467D01*
X105358146Y-92981486D01*
X105349920Y-92967408D01*
X105348104Y-92964569D01*
X105344388Y-92956395D01*
X105313757Y-92920846D01*
X105307465Y-92912923D01*
X105305368Y-92910052D01*
X105299527Y-92902056D01*
X105288665Y-92891194D01*
X105282307Y-92884347D01*
X105255915Y-92853718D01*
X105250056Y-92846918D01*
X105242521Y-92842034D01*
X105235949Y-92836301D01*
X105224545Y-92827074D01*
X105203615Y-92806144D01*
X105169589Y-92743832D01*
X105167626Y-92732209D01*
X105161276Y-92679733D01*
X105105280Y-92531546D01*
X105015553Y-92400992D01*
X104897275Y-92295611D01*
X104889889Y-92291700D01*
X104763988Y-92225039D01*
X104763989Y-92225039D01*
X104757274Y-92221484D01*
X104603633Y-92182892D01*
X104596034Y-92182852D01*
X104596033Y-92182852D01*
X104530181Y-92182507D01*
X104445221Y-92182062D01*
X104437841Y-92183834D01*
X104437839Y-92183834D01*
X104298563Y-92217271D01*
X104298560Y-92217272D01*
X104291184Y-92219043D01*
X104284441Y-92222523D01*
X104277314Y-92225174D01*
X104276421Y-92222774D01*
X104218757Y-92233917D01*
X104152833Y-92207563D01*
X104111622Y-92149752D01*
X104108209Y-92078837D01*
X104113765Y-92061486D01*
X104139006Y-91998698D01*
X104139008Y-91998691D01*
X104141842Y-91991641D01*
X104164162Y-91834807D01*
X104164307Y-91821000D01*
X104145276Y-91663733D01*
X104089280Y-91515546D01*
X103999553Y-91384992D01*
X103881275Y-91279611D01*
X103873889Y-91275700D01*
X103747988Y-91209039D01*
X103747989Y-91209039D01*
X103741274Y-91205484D01*
X103587633Y-91166892D01*
X103580034Y-91166852D01*
X103580033Y-91166852D01*
X103514181Y-91166507D01*
X103429221Y-91166062D01*
X103421841Y-91167834D01*
X103421839Y-91167834D01*
X103282563Y-91201271D01*
X103282560Y-91201272D01*
X103275184Y-91203043D01*
X103134414Y-91275700D01*
X103015039Y-91379838D01*
X102923950Y-91509444D01*
X102866406Y-91657037D01*
X102865414Y-91664570D01*
X102865414Y-91664571D01*
X102847058Y-91804004D01*
X102845729Y-91814096D01*
X102863113Y-91971553D01*
X102865723Y-91978684D01*
X102865723Y-91978686D01*
X102873047Y-91998698D01*
X102917553Y-92120319D01*
X102921789Y-92126622D01*
X102921789Y-92126623D01*
X103005908Y-92251805D01*
X103003835Y-92253198D01*
X103028220Y-92306886D01*
X103017972Y-92377139D01*
X103006553Y-92397012D01*
X102923950Y-92514544D01*
X102866406Y-92662137D01*
X102865414Y-92669670D01*
X102865414Y-92669671D01*
X102847116Y-92808664D01*
X102845729Y-92819196D01*
X102863113Y-92976653D01*
X102865723Y-92983784D01*
X102865723Y-92983786D01*
X102898297Y-93072799D01*
X102902923Y-93143645D01*
X102868513Y-93205745D01*
X102855537Y-93216926D01*
X102823364Y-93241039D01*
X102797456Y-93260456D01*
X102792077Y-93267633D01*
X102792076Y-93267634D01*
X102780842Y-93282623D01*
X102723982Y-93325137D01*
X102653164Y-93330161D01*
X102611916Y-93312182D01*
X102611275Y-93311611D01*
X102603889Y-93307700D01*
X102556526Y-93282623D01*
X102471274Y-93237484D01*
X102317633Y-93198892D01*
X102310034Y-93198852D01*
X102310033Y-93198852D01*
X102244181Y-93198507D01*
X102159221Y-93198062D01*
X102151841Y-93199834D01*
X102151839Y-93199834D01*
X102012563Y-93233271D01*
X102012560Y-93233272D01*
X102005184Y-93235043D01*
X101864414Y-93307700D01*
X101745039Y-93411838D01*
X101653950Y-93541444D01*
X101596406Y-93689037D01*
X101595414Y-93696570D01*
X101595414Y-93696571D01*
X101584310Y-93780919D01*
X101575729Y-93846096D01*
X100963500Y-93846096D01*
X100963500Y-93592920D01*
X100966049Y-93568973D01*
X100966128Y-93567307D01*
X100968320Y-93557124D01*
X100967096Y-93546782D01*
X100967096Y-93546779D01*
X100964374Y-93523787D01*
X100964023Y-93517846D01*
X100963928Y-93517854D01*
X100963500Y-93512674D01*
X100963500Y-93507476D01*
X100960329Y-93488424D01*
X100959492Y-93482547D01*
X100954693Y-93441997D01*
X100954692Y-93441995D01*
X100953469Y-93431659D01*
X100949508Y-93423410D01*
X100948004Y-93414374D01*
X100926446Y-93374419D01*
X100923652Y-93369240D01*
X100920957Y-93363951D01*
X100902212Y-93324915D01*
X100898780Y-93317768D01*
X100895186Y-93313492D01*
X100893246Y-93311552D01*
X100891493Y-93309641D01*
X100891444Y-93309551D01*
X100891567Y-93309439D01*
X100891095Y-93308904D01*
X100888010Y-93303186D01*
X100848413Y-93266583D01*
X100844848Y-93263154D01*
X95426789Y-87845095D01*
X95392763Y-87782783D01*
X95397828Y-87711968D01*
X95440375Y-87655132D01*
X95506895Y-87630321D01*
X95515884Y-87630000D01*
X110917116Y-87630000D01*
X110985237Y-87650002D01*
G37*
%TD.AperFunction*%
%TD*%
M02*
