%FSLAX45Y45*%
G04 Gerber Fmt 4.5, Leading zero omitted, Abs format (unit mm)*
G04 Created by KiCad (PCBNEW (6.0.1)) date 2022-01-21 22:17:19*
%MOMM*%
%LPD*%
G01*
G04 APERTURE LIST*
%TA.AperFunction,Profile*%
%ADD10C,0.150000*%
%TD*%
%ADD11C,0.200000*%
G04 APERTURE END LIST*
D10*
X13500000Y-13500000D02*
X13500000Y-13600000D01*
X9200000Y-6400000D02*
X13400000Y-6400000D01*
X13500000Y-10400000D02*
X13500000Y-12500000D01*
X13500000Y-13600000D02*
X9200000Y-13600000D01*
X13500000Y-12500000D02*
X13500000Y-13500000D01*
X13500000Y-6400000D02*
X13500000Y-10400000D01*
X9200000Y-6400000D02*
X8900000Y-6400000D01*
X13400000Y-6400000D02*
X13500000Y-6400000D01*
X8900000Y-6400000D02*
X8900000Y-13600000D01*
X8900000Y-13600000D02*
X9200000Y-13600000D01*
D11*
X9150119Y-13917976D02*
X9150119Y-13717976D01*
X9197738Y-13717976D01*
X9226310Y-13727500D01*
X9245357Y-13746548D01*
X9254881Y-13765595D01*
X9264405Y-13803690D01*
X9264405Y-13832262D01*
X9254881Y-13870357D01*
X9245357Y-13889405D01*
X9226310Y-13908452D01*
X9197738Y-13917976D01*
X9150119Y-13917976D01*
X9350119Y-13917976D02*
X9350119Y-13784643D01*
X9350119Y-13822738D02*
X9359643Y-13803690D01*
X9369167Y-13794167D01*
X9388214Y-13784643D01*
X9407262Y-13784643D01*
X9473929Y-13917976D02*
X9473929Y-13784643D01*
X9473929Y-13717976D02*
X9464405Y-13727500D01*
X9473929Y-13737024D01*
X9483452Y-13727500D01*
X9473929Y-13717976D01*
X9473929Y-13737024D01*
X9597738Y-13917976D02*
X9578690Y-13908452D01*
X9569167Y-13889405D01*
X9569167Y-13717976D01*
X9702500Y-13917976D02*
X9683452Y-13908452D01*
X9673929Y-13889405D01*
X9673929Y-13717976D01*
X9931071Y-13917976D02*
X9931071Y-13717976D01*
X9997738Y-13860833D01*
X10064405Y-13717976D01*
X10064405Y-13917976D01*
X10245357Y-13917976D02*
X10245357Y-13813214D01*
X10235833Y-13794167D01*
X10216786Y-13784643D01*
X10178690Y-13784643D01*
X10159643Y-13794167D01*
X10245357Y-13908452D02*
X10226310Y-13917976D01*
X10178690Y-13917976D01*
X10159643Y-13908452D01*
X10150119Y-13889405D01*
X10150119Y-13870357D01*
X10159643Y-13851309D01*
X10178690Y-13841786D01*
X10226310Y-13841786D01*
X10245357Y-13832262D01*
X10340595Y-13784643D02*
X10340595Y-13984643D01*
X10340595Y-13794167D02*
X10359643Y-13784643D01*
X10397738Y-13784643D01*
X10416786Y-13794167D01*
X10426310Y-13803690D01*
X10435833Y-13822738D01*
X10435833Y-13879881D01*
X10426310Y-13898928D01*
X10416786Y-13908452D01*
X10397738Y-13917976D01*
X10359643Y-13917976D01*
X10340595Y-13908452D01*
X10521548Y-13898928D02*
X10531071Y-13908452D01*
X10521548Y-13917976D01*
X10512024Y-13908452D01*
X10521548Y-13898928D01*
X10521548Y-13917976D01*
X10521548Y-13794167D02*
X10531071Y-13803690D01*
X10521548Y-13813214D01*
X10512024Y-13803690D01*
X10521548Y-13794167D01*
X10521548Y-13813214D01*
M02*
