%TF.GenerationSoftware,KiCad,Pcbnew,(6.0.1)*%
%TF.CreationDate,2022-01-21T22:17:13+01:00*%
%TF.ProjectId,bosch-kf163-control,626f7363-682d-46b6-9631-36332d636f6e,1*%
%TF.SameCoordinates,Original*%
%TF.FileFunction,Legend,Bot*%
%TF.FilePolarity,Positive*%
%FSLAX46Y46*%
G04 Gerber Fmt 4.6, Leading zero omitted, Abs format (unit mm)*
G04 Created by KiCad (PCBNEW (6.0.1)) date 2022-01-21 22:17:13*
%MOMM*%
%LPD*%
G01*
G04 APERTURE LIST*
%ADD10C,0.150000*%
%ADD11C,0.127000*%
%ADD12C,0.200000*%
%ADD13C,0.120000*%
G04 APERTURE END LIST*
D10*
X95377000Y-70739000D02*
X93091000Y-70739000D01*
X93091000Y-70739000D02*
X93091000Y-65659000D01*
X93091000Y-65659000D02*
X95377000Y-65659000D01*
X95377000Y-65659000D02*
X95377000Y-70739000D01*
D11*
X102108000Y-86487000D02*
X94361000Y-86487000D01*
X94361000Y-86487000D02*
X94361000Y-80899000D01*
X94361000Y-80899000D02*
X94361000Y-78486000D01*
X94361000Y-78486000D02*
X102108000Y-78486000D01*
X102108000Y-78486000D02*
X102108000Y-86487000D01*
X92837000Y-103759000D02*
X89535000Y-103759000D01*
X89535000Y-103759000D02*
X89535000Y-95504000D01*
X89535000Y-95504000D02*
X92837000Y-95504000D01*
X92837000Y-95504000D02*
X92837000Y-103759000D01*
D10*
X101473000Y-65659000D02*
X101473000Y-70739000D01*
X101473000Y-70739000D02*
X95377000Y-70739000D01*
X95377000Y-70739000D02*
X95377000Y-65659000D01*
X95377000Y-65659000D02*
X101473000Y-65659000D01*
D11*
X132715000Y-127889000D02*
X129667000Y-127889000D01*
X129667000Y-127889000D02*
X129667000Y-115697000D01*
X129667000Y-115697000D02*
X132715000Y-115697000D01*
X132715000Y-115697000D02*
X132715000Y-127889000D01*
X129921000Y-100203000D02*
X127635000Y-100203000D01*
X127635000Y-100203000D02*
X127635000Y-94869000D01*
X127635000Y-94869000D02*
X124206000Y-94869000D01*
X124206000Y-94869000D02*
X124206000Y-101219000D01*
X124206000Y-101219000D02*
X118872000Y-101219000D01*
X118872000Y-101219000D02*
X118872000Y-86741000D01*
X118872000Y-86741000D02*
X127000000Y-86741000D01*
X127000000Y-86741000D02*
X127000000Y-74676000D01*
X127000000Y-74676000D02*
X122809000Y-74676000D01*
X122809000Y-74676000D02*
X122809000Y-76454000D01*
X122809000Y-76454000D02*
X119253000Y-76454000D01*
X119253000Y-76454000D02*
X119253000Y-66802000D01*
X119253000Y-66802000D02*
X127635000Y-66802000D01*
X127635000Y-66802000D02*
X127635000Y-64770000D01*
X127635000Y-64770000D02*
X129921000Y-64770000D01*
X129921000Y-64770000D02*
X129921000Y-100203000D01*
X127635000Y-66802000D02*
X119253000Y-66802000D01*
X119253000Y-66802000D02*
X119253000Y-64770000D01*
X119253000Y-64770000D02*
X127635000Y-64770000D01*
X127635000Y-64770000D02*
X127635000Y-66802000D01*
X127000000Y-86741000D02*
X123444000Y-86741000D01*
X123444000Y-86741000D02*
X123444000Y-84582000D01*
X123444000Y-84582000D02*
X123444000Y-74676000D01*
X123444000Y-74676000D02*
X127000000Y-74676000D01*
X127000000Y-74676000D02*
X127000000Y-86741000D01*
X127635000Y-98679000D02*
X124206000Y-98679000D01*
X124206000Y-98679000D02*
X124206000Y-94869000D01*
X124206000Y-94869000D02*
X127635000Y-94869000D01*
X127635000Y-94869000D02*
X127635000Y-98679000D01*
D12*
X122943904Y-99512380D02*
X122943904Y-98512380D01*
X122705809Y-98512380D01*
X122562952Y-98560000D01*
X122467714Y-98655238D01*
X122420095Y-98750476D01*
X122372476Y-98940952D01*
X122372476Y-99083809D01*
X122420095Y-99274285D01*
X122467714Y-99369523D01*
X122562952Y-99464761D01*
X122705809Y-99512380D01*
X122943904Y-99512380D01*
X96908904Y-84653380D02*
X96908904Y-83653380D01*
X96670809Y-83653380D01*
X96527952Y-83701000D01*
X96432714Y-83796238D01*
X96385095Y-83891476D01*
X96337476Y-84081952D01*
X96337476Y-84224809D01*
X96385095Y-84415285D01*
X96432714Y-84510523D01*
X96527952Y-84605761D01*
X96670809Y-84653380D01*
X96908904Y-84653380D01*
X126626904Y-91257380D02*
X126626904Y-90257380D01*
X126388809Y-90257380D01*
X126245952Y-90305000D01*
X126150714Y-90400238D01*
X126103095Y-90495476D01*
X126055476Y-90685952D01*
X126055476Y-90828809D01*
X126103095Y-91019285D01*
X126150714Y-91114523D01*
X126245952Y-91209761D01*
X126388809Y-91257380D01*
X126626904Y-91257380D01*
X94567333Y-66127380D02*
X93900666Y-67127380D01*
X93900666Y-66127380D02*
X94567333Y-67127380D01*
X126444333Y-96988380D02*
X125777666Y-97988380D01*
X125777666Y-96988380D02*
X126444333Y-97988380D01*
X126880904Y-71318380D02*
X126880904Y-70318380D01*
X126642809Y-70318380D01*
X126499952Y-70366000D01*
X126404714Y-70461238D01*
X126357095Y-70556476D01*
X126309476Y-70746952D01*
X126309476Y-70889809D01*
X126357095Y-71080285D01*
X126404714Y-71175523D01*
X126499952Y-71270761D01*
X126642809Y-71318380D01*
X126880904Y-71318380D01*
X127206333Y-65238380D02*
X126539666Y-66238380D01*
X126539666Y-65238380D02*
X127206333Y-66238380D01*
X125555333Y-75271380D02*
X124888666Y-76271380D01*
X124888666Y-75271380D02*
X125555333Y-76271380D01*
X91471714Y-95845380D02*
X91471714Y-96654904D01*
X91424095Y-96750142D01*
X91376476Y-96797761D01*
X91281238Y-96845380D01*
X91090761Y-96845380D01*
X90995523Y-96797761D01*
X90947904Y-96750142D01*
X90900285Y-96654904D01*
X90900285Y-95845380D01*
X98686904Y-67127380D02*
X98686904Y-66127380D01*
X98448809Y-66127380D01*
X98305952Y-66175000D01*
X98210714Y-66270238D01*
X98163095Y-66365476D01*
X98115476Y-66555952D01*
X98115476Y-66698809D01*
X98163095Y-66889285D01*
X98210714Y-66984523D01*
X98305952Y-67079761D01*
X98448809Y-67127380D01*
X98686904Y-67127380D01*
X131524333Y-116038380D02*
X130857666Y-117038380D01*
X130857666Y-116038380D02*
X131524333Y-117038380D01*
X110157619Y-86727142D02*
X109157619Y-86060476D01*
X110157619Y-86060476D02*
X109157619Y-86727142D01*
X109252857Y-85679523D02*
X109205238Y-85631904D01*
X109157619Y-85679523D01*
X109205238Y-85727142D01*
X109252857Y-85679523D01*
X109157619Y-85679523D01*
X109776666Y-85679523D02*
X109729047Y-85631904D01*
X109681428Y-85679523D01*
X109729047Y-85727142D01*
X109776666Y-85679523D01*
X109681428Y-85679523D01*
X109824285Y-84441428D02*
X108824285Y-84441428D01*
X109776666Y-84441428D02*
X109824285Y-84346190D01*
X109824285Y-84155714D01*
X109776666Y-84060476D01*
X109729047Y-84012857D01*
X109633809Y-83965238D01*
X109348095Y-83965238D01*
X109252857Y-84012857D01*
X109205238Y-84060476D01*
X109157619Y-84155714D01*
X109157619Y-84346190D01*
X109205238Y-84441428D01*
X109157619Y-83393809D02*
X109205238Y-83489047D01*
X109300476Y-83536666D01*
X110157619Y-83536666D01*
X109157619Y-82584285D02*
X109681428Y-82584285D01*
X109776666Y-82631904D01*
X109824285Y-82727142D01*
X109824285Y-82917619D01*
X109776666Y-83012857D01*
X109205238Y-82584285D02*
X109157619Y-82679523D01*
X109157619Y-82917619D01*
X109205238Y-83012857D01*
X109300476Y-83060476D01*
X109395714Y-83060476D01*
X109490952Y-83012857D01*
X109538571Y-82917619D01*
X109538571Y-82679523D01*
X109586190Y-82584285D01*
X109205238Y-81679523D02*
X109157619Y-81774761D01*
X109157619Y-81965238D01*
X109205238Y-82060476D01*
X109252857Y-82108095D01*
X109348095Y-82155714D01*
X109633809Y-82155714D01*
X109729047Y-82108095D01*
X109776666Y-82060476D01*
X109824285Y-81965238D01*
X109824285Y-81774761D01*
X109776666Y-81679523D01*
X109205238Y-80870000D02*
X109157619Y-80965238D01*
X109157619Y-81155714D01*
X109205238Y-81250952D01*
X109300476Y-81298571D01*
X109681428Y-81298571D01*
X109776666Y-81250952D01*
X109824285Y-81155714D01*
X109824285Y-80965238D01*
X109776666Y-80870000D01*
X109681428Y-80822380D01*
X109586190Y-80822380D01*
X109490952Y-81298571D01*
X109157619Y-79489047D02*
X109205238Y-79584285D01*
X109252857Y-79631904D01*
X109348095Y-79679523D01*
X109633809Y-79679523D01*
X109729047Y-79631904D01*
X109776666Y-79584285D01*
X109824285Y-79489047D01*
X109824285Y-79346190D01*
X109776666Y-79250952D01*
X109729047Y-79203333D01*
X109633809Y-79155714D01*
X109348095Y-79155714D01*
X109252857Y-79203333D01*
X109205238Y-79250952D01*
X109157619Y-79346190D01*
X109157619Y-79489047D01*
X109824285Y-78727142D02*
X109157619Y-78727142D01*
X109729047Y-78727142D02*
X109776666Y-78679523D01*
X109824285Y-78584285D01*
X109824285Y-78441428D01*
X109776666Y-78346190D01*
X109681428Y-78298571D01*
X109157619Y-78298571D01*
X109157619Y-77679523D02*
X109205238Y-77774761D01*
X109300476Y-77822380D01*
X110157619Y-77822380D01*
X109824285Y-77393809D02*
X109157619Y-77155714D01*
X109824285Y-76917619D02*
X109157619Y-77155714D01*
X108919523Y-77250952D01*
X108871904Y-77298571D01*
X108824285Y-77393809D01*
X109824285Y-75917619D02*
X109824285Y-75536666D01*
X109157619Y-75774761D02*
X110014761Y-75774761D01*
X110110000Y-75727142D01*
X110157619Y-75631904D01*
X110157619Y-75536666D01*
X109157619Y-75060476D02*
X109205238Y-75155714D01*
X109252857Y-75203333D01*
X109348095Y-75250952D01*
X109633809Y-75250952D01*
X109729047Y-75203333D01*
X109776666Y-75155714D01*
X109824285Y-75060476D01*
X109824285Y-74917619D01*
X109776666Y-74822380D01*
X109729047Y-74774761D01*
X109633809Y-74727142D01*
X109348095Y-74727142D01*
X109252857Y-74774761D01*
X109205238Y-74822380D01*
X109157619Y-74917619D01*
X109157619Y-75060476D01*
X109157619Y-74298571D02*
X109824285Y-74298571D01*
X109633809Y-74298571D02*
X109729047Y-74250952D01*
X109776666Y-74203333D01*
X109824285Y-74108095D01*
X109824285Y-74012857D01*
X109157619Y-72917619D02*
X110157619Y-72917619D01*
X110157619Y-72679523D01*
X110110000Y-72536666D01*
X110014761Y-72441428D01*
X109919523Y-72393809D01*
X109729047Y-72346190D01*
X109586190Y-72346190D01*
X109395714Y-72393809D01*
X109300476Y-72441428D01*
X109205238Y-72536666D01*
X109157619Y-72679523D01*
X109157619Y-72917619D01*
X109157619Y-71917619D02*
X109824285Y-71917619D01*
X110157619Y-71917619D02*
X110110000Y-71965238D01*
X110062380Y-71917619D01*
X110110000Y-71870000D01*
X110157619Y-71917619D01*
X110062380Y-71917619D01*
X109824285Y-71012857D02*
X109014761Y-71012857D01*
X108919523Y-71060476D01*
X108871904Y-71108095D01*
X108824285Y-71203333D01*
X108824285Y-71346190D01*
X108871904Y-71441428D01*
X109205238Y-71012857D02*
X109157619Y-71108095D01*
X109157619Y-71298571D01*
X109205238Y-71393809D01*
X109252857Y-71441428D01*
X109348095Y-71489047D01*
X109633809Y-71489047D01*
X109729047Y-71441428D01*
X109776666Y-71393809D01*
X109824285Y-71298571D01*
X109824285Y-71108095D01*
X109776666Y-71012857D01*
X110157619Y-70631904D02*
X109157619Y-69965238D01*
X110157619Y-69965238D02*
X109157619Y-70631904D01*
X109157619Y-68822380D02*
X110157619Y-68822380D01*
X110157619Y-68441428D01*
X110110000Y-68346190D01*
X110062380Y-68298571D01*
X109967142Y-68250952D01*
X109824285Y-68250952D01*
X109729047Y-68298571D01*
X109681428Y-68346190D01*
X109633809Y-68441428D01*
X109633809Y-68822380D01*
X109157619Y-67346190D02*
X109157619Y-67822380D01*
X110157619Y-67822380D01*
X109157619Y-66536666D02*
X109157619Y-67012857D01*
X110157619Y-67012857D01*
X107547619Y-86631904D02*
X108547619Y-86631904D01*
X108547619Y-86393809D01*
X108500000Y-86250952D01*
X108404761Y-86155714D01*
X108309523Y-86108095D01*
X108119047Y-86060476D01*
X107976190Y-86060476D01*
X107785714Y-86108095D01*
X107690476Y-86155714D01*
X107595238Y-86250952D01*
X107547619Y-86393809D01*
X107547619Y-86631904D01*
X107642857Y-85631904D02*
X107595238Y-85584285D01*
X107547619Y-85631904D01*
X107595238Y-85679523D01*
X107642857Y-85631904D01*
X107547619Y-85631904D01*
X108166666Y-85631904D02*
X108119047Y-85584285D01*
X108071428Y-85631904D01*
X108119047Y-85679523D01*
X108166666Y-85631904D01*
X108071428Y-85631904D01*
X108214285Y-84393809D02*
X107214285Y-84393809D01*
X108166666Y-84393809D02*
X108214285Y-84298571D01*
X108214285Y-84108095D01*
X108166666Y-84012857D01*
X108119047Y-83965238D01*
X108023809Y-83917619D01*
X107738095Y-83917619D01*
X107642857Y-83965238D01*
X107595238Y-84012857D01*
X107547619Y-84108095D01*
X107547619Y-84298571D01*
X107595238Y-84393809D01*
X107547619Y-83346190D02*
X107595238Y-83441428D01*
X107690476Y-83489047D01*
X108547619Y-83489047D01*
X107547619Y-82536666D02*
X108071428Y-82536666D01*
X108166666Y-82584285D01*
X108214285Y-82679523D01*
X108214285Y-82870000D01*
X108166666Y-82965238D01*
X107595238Y-82536666D02*
X107547619Y-82631904D01*
X107547619Y-82870000D01*
X107595238Y-82965238D01*
X107690476Y-83012857D01*
X107785714Y-83012857D01*
X107880952Y-82965238D01*
X107928571Y-82870000D01*
X107928571Y-82631904D01*
X107976190Y-82536666D01*
X107595238Y-81631904D02*
X107547619Y-81727142D01*
X107547619Y-81917619D01*
X107595238Y-82012857D01*
X107642857Y-82060476D01*
X107738095Y-82108095D01*
X108023809Y-82108095D01*
X108119047Y-82060476D01*
X108166666Y-82012857D01*
X108214285Y-81917619D01*
X108214285Y-81727142D01*
X108166666Y-81631904D01*
X107595238Y-80822380D02*
X107547619Y-80917619D01*
X107547619Y-81108095D01*
X107595238Y-81203333D01*
X107690476Y-81250952D01*
X108071428Y-81250952D01*
X108166666Y-81203333D01*
X108214285Y-81108095D01*
X108214285Y-80917619D01*
X108166666Y-80822380D01*
X108071428Y-80774761D01*
X107976190Y-80774761D01*
X107880952Y-81250952D01*
X107547619Y-79441428D02*
X107595238Y-79536666D01*
X107642857Y-79584285D01*
X107738095Y-79631904D01*
X108023809Y-79631904D01*
X108119047Y-79584285D01*
X108166666Y-79536666D01*
X108214285Y-79441428D01*
X108214285Y-79298571D01*
X108166666Y-79203333D01*
X108119047Y-79155714D01*
X108023809Y-79108095D01*
X107738095Y-79108095D01*
X107642857Y-79155714D01*
X107595238Y-79203333D01*
X107547619Y-79298571D01*
X107547619Y-79441428D01*
X108214285Y-78679523D02*
X107547619Y-78679523D01*
X108119047Y-78679523D02*
X108166666Y-78631904D01*
X108214285Y-78536666D01*
X108214285Y-78393809D01*
X108166666Y-78298571D01*
X108071428Y-78250952D01*
X107547619Y-78250952D01*
X107547619Y-77631904D02*
X107595238Y-77727142D01*
X107690476Y-77774761D01*
X108547619Y-77774761D01*
X108214285Y-77346190D02*
X107547619Y-77108095D01*
X108214285Y-76870000D02*
X107547619Y-77108095D01*
X107309523Y-77203333D01*
X107261904Y-77250952D01*
X107214285Y-77346190D01*
X108214285Y-75870000D02*
X108214285Y-75489047D01*
X107547619Y-75727142D02*
X108404761Y-75727142D01*
X108500000Y-75679523D01*
X108547619Y-75584285D01*
X108547619Y-75489047D01*
X107547619Y-75012857D02*
X107595238Y-75108095D01*
X107642857Y-75155714D01*
X107738095Y-75203333D01*
X108023809Y-75203333D01*
X108119047Y-75155714D01*
X108166666Y-75108095D01*
X108214285Y-75012857D01*
X108214285Y-74870000D01*
X108166666Y-74774761D01*
X108119047Y-74727142D01*
X108023809Y-74679523D01*
X107738095Y-74679523D01*
X107642857Y-74727142D01*
X107595238Y-74774761D01*
X107547619Y-74870000D01*
X107547619Y-75012857D01*
X107547619Y-74250952D02*
X108214285Y-74250952D01*
X108023809Y-74250952D02*
X108119047Y-74203333D01*
X108166666Y-74155714D01*
X108214285Y-74060476D01*
X108214285Y-73965238D01*
X107547619Y-72441428D02*
X108547619Y-72441428D01*
X107595238Y-72441428D02*
X107547619Y-72536666D01*
X107547619Y-72727142D01*
X107595238Y-72822380D01*
X107642857Y-72870000D01*
X107738095Y-72917619D01*
X108023809Y-72917619D01*
X108119047Y-72870000D01*
X108166666Y-72822380D01*
X108214285Y-72727142D01*
X108214285Y-72536666D01*
X108166666Y-72441428D01*
X107547619Y-71965238D02*
X108214285Y-71965238D01*
X108547619Y-71965238D02*
X108500000Y-72012857D01*
X108452380Y-71965238D01*
X108500000Y-71917619D01*
X108547619Y-71965238D01*
X108452380Y-71965238D01*
X107547619Y-71346190D02*
X107595238Y-71441428D01*
X107642857Y-71489047D01*
X107738095Y-71536666D01*
X108023809Y-71536666D01*
X108119047Y-71489047D01*
X108166666Y-71441428D01*
X108214285Y-71346190D01*
X108214285Y-71203333D01*
X108166666Y-71108095D01*
X108119047Y-71060476D01*
X108023809Y-71012857D01*
X107738095Y-71012857D01*
X107642857Y-71060476D01*
X107595238Y-71108095D01*
X107547619Y-71203333D01*
X107547619Y-71346190D01*
X107547619Y-70155714D02*
X108547619Y-70155714D01*
X107595238Y-70155714D02*
X107547619Y-70250952D01*
X107547619Y-70441428D01*
X107595238Y-70536666D01*
X107642857Y-70584285D01*
X107738095Y-70631904D01*
X108023809Y-70631904D01*
X108119047Y-70584285D01*
X108166666Y-70536666D01*
X108214285Y-70441428D01*
X108214285Y-70250952D01*
X108166666Y-70155714D01*
X107595238Y-69298571D02*
X107547619Y-69393809D01*
X107547619Y-69584285D01*
X107595238Y-69679523D01*
X107690476Y-69727142D01*
X108071428Y-69727142D01*
X108166666Y-69679523D01*
X108214285Y-69584285D01*
X108214285Y-69393809D01*
X108166666Y-69298571D01*
X108071428Y-69250952D01*
X107976190Y-69250952D01*
X107880952Y-69727142D01*
X107547619Y-68060476D02*
X108547619Y-68060476D01*
X108547619Y-67679523D01*
X108500000Y-67584285D01*
X108452380Y-67536666D01*
X108357142Y-67489047D01*
X108214285Y-67489047D01*
X108119047Y-67536666D01*
X108071428Y-67584285D01*
X108023809Y-67679523D01*
X108023809Y-68060476D01*
X107547619Y-66584285D02*
X107547619Y-67060476D01*
X108547619Y-67060476D01*
X107547619Y-65774761D02*
X107547619Y-66250952D01*
X108547619Y-66250952D01*
X106937619Y-86631904D02*
X106128095Y-86631904D01*
X106032857Y-86584285D01*
X105985238Y-86536666D01*
X105937619Y-86441428D01*
X105937619Y-86250952D01*
X105985238Y-86155714D01*
X106032857Y-86108095D01*
X106128095Y-86060476D01*
X106937619Y-86060476D01*
X106032857Y-85584285D02*
X105985238Y-85536666D01*
X105937619Y-85584285D01*
X105985238Y-85631904D01*
X106032857Y-85584285D01*
X105937619Y-85584285D01*
X106556666Y-85584285D02*
X106509047Y-85536666D01*
X106461428Y-85584285D01*
X106509047Y-85631904D01*
X106556666Y-85584285D01*
X106461428Y-85584285D01*
X106604285Y-84346190D02*
X105604285Y-84346190D01*
X106556666Y-84346190D02*
X106604285Y-84250952D01*
X106604285Y-84060476D01*
X106556666Y-83965238D01*
X106509047Y-83917619D01*
X106413809Y-83870000D01*
X106128095Y-83870000D01*
X106032857Y-83917619D01*
X105985238Y-83965238D01*
X105937619Y-84060476D01*
X105937619Y-84250952D01*
X105985238Y-84346190D01*
X105937619Y-83298571D02*
X105985238Y-83393809D01*
X106080476Y-83441428D01*
X106937619Y-83441428D01*
X105937619Y-82489047D02*
X106461428Y-82489047D01*
X106556666Y-82536666D01*
X106604285Y-82631904D01*
X106604285Y-82822380D01*
X106556666Y-82917619D01*
X105985238Y-82489047D02*
X105937619Y-82584285D01*
X105937619Y-82822380D01*
X105985238Y-82917619D01*
X106080476Y-82965238D01*
X106175714Y-82965238D01*
X106270952Y-82917619D01*
X106318571Y-82822380D01*
X106318571Y-82584285D01*
X106366190Y-82489047D01*
X105985238Y-81584285D02*
X105937619Y-81679523D01*
X105937619Y-81870000D01*
X105985238Y-81965238D01*
X106032857Y-82012857D01*
X106128095Y-82060476D01*
X106413809Y-82060476D01*
X106509047Y-82012857D01*
X106556666Y-81965238D01*
X106604285Y-81870000D01*
X106604285Y-81679523D01*
X106556666Y-81584285D01*
X105985238Y-80774761D02*
X105937619Y-80870000D01*
X105937619Y-81060476D01*
X105985238Y-81155714D01*
X106080476Y-81203333D01*
X106461428Y-81203333D01*
X106556666Y-81155714D01*
X106604285Y-81060476D01*
X106604285Y-80870000D01*
X106556666Y-80774761D01*
X106461428Y-80727142D01*
X106366190Y-80727142D01*
X106270952Y-81203333D01*
X106604285Y-79679523D02*
X106604285Y-79298571D01*
X105937619Y-79536666D02*
X106794761Y-79536666D01*
X106890000Y-79489047D01*
X106937619Y-79393809D01*
X106937619Y-79298571D01*
X105937619Y-78822380D02*
X105985238Y-78917619D01*
X106032857Y-78965238D01*
X106128095Y-79012857D01*
X106413809Y-79012857D01*
X106509047Y-78965238D01*
X106556666Y-78917619D01*
X106604285Y-78822380D01*
X106604285Y-78679523D01*
X106556666Y-78584285D01*
X106509047Y-78536666D01*
X106413809Y-78489047D01*
X106128095Y-78489047D01*
X106032857Y-78536666D01*
X105985238Y-78584285D01*
X105937619Y-78679523D01*
X105937619Y-78822380D01*
X105937619Y-78060476D02*
X106604285Y-78060476D01*
X106413809Y-78060476D02*
X106509047Y-78012857D01*
X106556666Y-77965238D01*
X106604285Y-77870000D01*
X106604285Y-77774761D01*
X105985238Y-76298571D02*
X105937619Y-76393809D01*
X105937619Y-76584285D01*
X105985238Y-76679523D01*
X106080476Y-76727142D01*
X106461428Y-76727142D01*
X106556666Y-76679523D01*
X106604285Y-76584285D01*
X106604285Y-76393809D01*
X106556666Y-76298571D01*
X106461428Y-76250952D01*
X106366190Y-76250952D01*
X106270952Y-76727142D01*
X105937619Y-75917619D02*
X106604285Y-75393809D01*
X106604285Y-75917619D02*
X105937619Y-75393809D01*
X106604285Y-75155714D02*
X106604285Y-74774761D01*
X106937619Y-75012857D02*
X106080476Y-75012857D01*
X105985238Y-74965238D01*
X105937619Y-74870000D01*
X105937619Y-74774761D01*
X105985238Y-74060476D02*
X105937619Y-74155714D01*
X105937619Y-74346190D01*
X105985238Y-74441428D01*
X106080476Y-74489047D01*
X106461428Y-74489047D01*
X106556666Y-74441428D01*
X106604285Y-74346190D01*
X106604285Y-74155714D01*
X106556666Y-74060476D01*
X106461428Y-74012857D01*
X106366190Y-74012857D01*
X106270952Y-74489047D01*
X105937619Y-73584285D02*
X106604285Y-73584285D01*
X106413809Y-73584285D02*
X106509047Y-73536666D01*
X106556666Y-73489047D01*
X106604285Y-73393809D01*
X106604285Y-73298571D01*
X106604285Y-72965238D02*
X105937619Y-72965238D01*
X106509047Y-72965238D02*
X106556666Y-72917619D01*
X106604285Y-72822380D01*
X106604285Y-72679523D01*
X106556666Y-72584285D01*
X106461428Y-72536666D01*
X105937619Y-72536666D01*
X105937619Y-71631904D02*
X106461428Y-71631904D01*
X106556666Y-71679523D01*
X106604285Y-71774761D01*
X106604285Y-71965238D01*
X106556666Y-72060476D01*
X105985238Y-71631904D02*
X105937619Y-71727142D01*
X105937619Y-71965238D01*
X105985238Y-72060476D01*
X106080476Y-72108095D01*
X106175714Y-72108095D01*
X106270952Y-72060476D01*
X106318571Y-71965238D01*
X106318571Y-71727142D01*
X106366190Y-71631904D01*
X105937619Y-71012857D02*
X105985238Y-71108095D01*
X106080476Y-71155714D01*
X106937619Y-71155714D01*
X106937619Y-69870000D02*
X106128095Y-69870000D01*
X106032857Y-69822380D01*
X105985238Y-69774761D01*
X105937619Y-69679523D01*
X105937619Y-69489047D01*
X105985238Y-69393809D01*
X106032857Y-69346190D01*
X106128095Y-69298571D01*
X106937619Y-69298571D01*
X106223333Y-68870000D02*
X106223333Y-68393809D01*
X105937619Y-68965238D02*
X106937619Y-68631904D01*
X105937619Y-68298571D01*
X105937619Y-67393809D02*
X106413809Y-67727142D01*
X105937619Y-67965238D02*
X106937619Y-67965238D01*
X106937619Y-67584285D01*
X106890000Y-67489047D01*
X106842380Y-67441428D01*
X106747142Y-67393809D01*
X106604285Y-67393809D01*
X106509047Y-67441428D01*
X106461428Y-67489047D01*
X106413809Y-67584285D01*
X106413809Y-67965238D01*
X106937619Y-67108095D02*
X106937619Y-66536666D01*
X105937619Y-66822380D02*
X106937619Y-66822380D01*
D13*
%TO.C,C304*%
X107317000Y-111619420D02*
X107317000Y-111900580D01*
X106297000Y-111619420D02*
X106297000Y-111900580D01*
%TO.C,R307*%
X117997500Y-111997258D02*
X117997500Y-111522742D01*
X116952500Y-111997258D02*
X116952500Y-111522742D01*
%TO.C,R212*%
X131428258Y-120508500D02*
X130953742Y-120508500D01*
X131428258Y-121553500D02*
X130953742Y-121553500D01*
%TO.C,Q206*%
X127905000Y-79640000D02*
X129555000Y-79640000D01*
X129555000Y-77840000D02*
X128255000Y-77840000D01*
%TO.C,J101*%
X98485000Y-93920000D02*
X95885000Y-93920000D01*
X98485000Y-93920000D02*
X98485000Y-134680000D01*
X93285000Y-96520000D02*
X93285000Y-134680000D01*
X95885000Y-93920000D02*
X95885000Y-96520000D01*
X95885000Y-96520000D02*
X93285000Y-96520000D01*
X98485000Y-134680000D02*
X93285000Y-134680000D01*
X93285000Y-93920000D02*
X93285000Y-95250000D01*
X94615000Y-93920000D02*
X93285000Y-93920000D01*
%TO.C,Q203*%
X119365000Y-100976000D02*
X120665000Y-100976000D01*
X121015000Y-99176000D02*
X119365000Y-99176000D01*
%TO.C,Q210*%
X127905000Y-74560000D02*
X129555000Y-74560000D01*
X129555000Y-72760000D02*
X128255000Y-72760000D01*
%TO.C,Q215*%
X129555000Y-85460000D02*
X128255000Y-85460000D01*
X127905000Y-87260000D02*
X129555000Y-87260000D01*
%TO.C,D209*%
X96559000Y-81764000D02*
X96559000Y-79214000D01*
X98259000Y-81764000D02*
X98259000Y-79214000D01*
X98259000Y-81764000D02*
X96559000Y-81764000D01*
%TO.C,R209*%
X131428258Y-125080500D02*
X130953742Y-125080500D01*
X131428258Y-126125500D02*
X130953742Y-126125500D01*
%TO.C,D206*%
X93384000Y-67588000D02*
X95084000Y-67588000D01*
X95084000Y-67588000D02*
X95084000Y-70138000D01*
X93384000Y-67588000D02*
X93384000Y-70138000D01*
%TO.C,R107*%
X90948742Y-121172500D02*
X91423258Y-121172500D01*
X90948742Y-120127500D02*
X91423258Y-120127500D01*
%TO.C,R104*%
X90948742Y-113552500D02*
X91423258Y-113552500D01*
X90948742Y-112507500D02*
X91423258Y-112507500D01*
%TO.C,R105*%
X90948742Y-115047500D02*
X91423258Y-115047500D01*
X90948742Y-116092500D02*
X91423258Y-116092500D01*
%TO.C,R202*%
X121522258Y-82916500D02*
X121047742Y-82916500D01*
X121522258Y-83961500D02*
X121047742Y-83961500D01*
%TO.C,R305*%
X122569500Y-111522742D02*
X122569500Y-111997258D01*
X121524500Y-111522742D02*
X121524500Y-111997258D01*
%TO.C,R217*%
X126348258Y-95108500D02*
X125873742Y-95108500D01*
X126348258Y-96153500D02*
X125873742Y-96153500D01*
%TO.C,Q204*%
X127905000Y-82180000D02*
X129555000Y-82180000D01*
X129555000Y-80380000D02*
X128255000Y-80380000D01*
%TO.C,C306*%
X123061000Y-111900580D02*
X123061000Y-111619420D01*
X124081000Y-111900580D02*
X124081000Y-111619420D01*
%TO.C,D205*%
X97370000Y-67588000D02*
X97370000Y-70138000D01*
X95670000Y-67588000D02*
X97370000Y-67588000D01*
X95670000Y-67588000D02*
X95670000Y-70138000D01*
%TO.C,D204*%
X99480000Y-67588000D02*
X99480000Y-70138000D01*
X99480000Y-67588000D02*
X101180000Y-67588000D01*
X101180000Y-67588000D02*
X101180000Y-70138000D01*
%TO.C,R214*%
X131428258Y-124601500D02*
X130953742Y-124601500D01*
X131428258Y-123556500D02*
X130953742Y-123556500D01*
%TO.C,C302*%
X113917000Y-111900580D02*
X113917000Y-111619420D01*
X114937000Y-111900580D02*
X114937000Y-111619420D01*
%TO.C,U102*%
X108386000Y-92729000D02*
X112146000Y-92729000D01*
X112146000Y-99549000D02*
X112146000Y-98289000D01*
X106136000Y-99549000D02*
X112146000Y-99549000D01*
X112146000Y-92729000D02*
X112146000Y-93989000D01*
%TO.C,R109*%
X90948742Y-130287500D02*
X91423258Y-130287500D01*
X90948742Y-131332500D02*
X91423258Y-131332500D01*
%TO.C,Q208*%
X127905000Y-77100000D02*
X129555000Y-77100000D01*
X129555000Y-75300000D02*
X128255000Y-75300000D01*
%TO.C,R313*%
X126096500Y-111997258D02*
X126096500Y-111522742D01*
X127141500Y-111997258D02*
X127141500Y-111522742D01*
%TO.C,Q102*%
X103616000Y-133593000D02*
X101966000Y-133593000D01*
X101966000Y-135393000D02*
X103266000Y-135393000D01*
%TO.C,C101*%
X99312000Y-121271420D02*
X99312000Y-121552580D01*
X100332000Y-121271420D02*
X100332000Y-121552580D01*
%TO.C,C301*%
X106297000Y-106158420D02*
X106297000Y-106439580D01*
X107317000Y-106158420D02*
X107317000Y-106439580D01*
%TO.C,Q103*%
X105929000Y-117070000D02*
X105929000Y-115420000D01*
X104129000Y-115420000D02*
X104129000Y-116720000D01*
%TO.C,R310*%
X126096500Y-108949258D02*
X126096500Y-108474742D01*
X127141500Y-108949258D02*
X127141500Y-108474742D01*
%TO.C,C203*%
X121425580Y-75182000D02*
X121144420Y-75182000D01*
X121425580Y-76202000D02*
X121144420Y-76202000D01*
%TO.C,C311*%
X100978580Y-107186000D02*
X100697420Y-107186000D01*
X100978580Y-108206000D02*
X100697420Y-108206000D01*
%TO.C,R114*%
X106792500Y-130285258D02*
X106792500Y-129810742D01*
X107837500Y-130285258D02*
X107837500Y-129810742D01*
%TO.C,J201*%
X118364000Y-65024000D02*
X115316000Y-65024000D01*
X115316000Y-65024000D02*
X115316000Y-100076000D01*
X115316000Y-100076000D02*
X118364000Y-100076000D01*
X118364000Y-100076000D02*
X118364000Y-65024000D01*
X133604000Y-100076000D02*
X130556000Y-100076000D01*
X130556000Y-100076000D02*
X130556000Y-65024000D01*
X130556000Y-65024000D02*
X133604000Y-65024000D01*
X133604000Y-65024000D02*
X133604000Y-100076000D01*
%TO.C,R108*%
X90948742Y-127747500D02*
X91423258Y-127747500D01*
X90948742Y-128792500D02*
X91423258Y-128792500D01*
%TO.C,D214*%
X126722000Y-83986000D02*
X124172000Y-83986000D01*
X126722000Y-83986000D02*
X126722000Y-85686000D01*
X126722000Y-85686000D02*
X124172000Y-85686000D01*
%TO.C,C303*%
X109345000Y-111900580D02*
X109345000Y-111619420D01*
X110365000Y-111900580D02*
X110365000Y-111619420D01*
%TO.C,R117*%
X91423258Y-97267500D02*
X90948742Y-97267500D01*
X91423258Y-98312500D02*
X90948742Y-98312500D01*
%TO.C,D202*%
X101830000Y-84494000D02*
X99280000Y-84494000D01*
X101830000Y-86194000D02*
X99280000Y-86194000D01*
X101830000Y-84494000D02*
X101830000Y-86194000D01*
%TO.C,R213*%
X131428258Y-122032500D02*
X130953742Y-122032500D01*
X131428258Y-123077500D02*
X130953742Y-123077500D01*
%TO.C,U202*%
X92349000Y-74676000D02*
X92349000Y-71226000D01*
X102469000Y-74676000D02*
X102469000Y-72726000D01*
X102469000Y-74676000D02*
X102469000Y-76626000D01*
X92349000Y-74676000D02*
X92349000Y-76626000D01*
%TO.C,C305*%
X118731420Y-103376000D02*
X119012580Y-103376000D01*
X118731420Y-104396000D02*
X119012580Y-104396000D01*
%TO.C,C309*%
X110869000Y-103328080D02*
X110869000Y-103046920D01*
X111889000Y-103328080D02*
X111889000Y-103046920D01*
%TO.C,C307*%
X119509000Y-111900580D02*
X119509000Y-111619420D01*
X118489000Y-111900580D02*
X118489000Y-111619420D01*
%TO.C,D207*%
X126722000Y-76747000D02*
X124172000Y-76747000D01*
X126722000Y-76747000D02*
X126722000Y-78447000D01*
X126722000Y-78447000D02*
X124172000Y-78447000D01*
%TO.C,Q201*%
X119365000Y-98817000D02*
X120665000Y-98817000D01*
X121015000Y-97017000D02*
X119365000Y-97017000D01*
%TO.C,R309*%
X108853500Y-103424758D02*
X108853500Y-102950242D01*
X107808500Y-103424758D02*
X107808500Y-102950242D01*
%TO.C,C201*%
X90903000Y-76440420D02*
X90903000Y-76721580D01*
X91923000Y-76440420D02*
X91923000Y-76721580D01*
%TO.C,R203*%
X121522258Y-81548500D02*
X121047742Y-81548500D01*
X121522258Y-80503500D02*
X121047742Y-80503500D01*
%TO.C,Q209*%
X129555000Y-93080000D02*
X128255000Y-93080000D01*
X127905000Y-94880000D02*
X129555000Y-94880000D01*
%TO.C,R215*%
X120539742Y-66181500D02*
X121014258Y-66181500D01*
X120539742Y-65136500D02*
X121014258Y-65136500D01*
%TO.C,D203*%
X101830000Y-80684000D02*
X101830000Y-82384000D01*
X101830000Y-82384000D02*
X99280000Y-82384000D01*
X101830000Y-80684000D02*
X99280000Y-80684000D01*
%TO.C,R208*%
X131428258Y-126604500D02*
X130953742Y-126604500D01*
X131428258Y-127649500D02*
X130953742Y-127649500D01*
%TO.C,C106*%
X108329000Y-130188580D02*
X108329000Y-129907420D01*
X109349000Y-130188580D02*
X109349000Y-129907420D01*
%TO.C,C310*%
X100978580Y-108710000D02*
X100697420Y-108710000D01*
X100978580Y-109730000D02*
X100697420Y-109730000D01*
%TO.C,C202*%
X121171580Y-95502000D02*
X120890420Y-95502000D01*
X121171580Y-96522000D02*
X120890420Y-96522000D01*
%TO.C,C102*%
X106805000Y-133336420D02*
X106805000Y-133617580D01*
X107825000Y-133336420D02*
X107825000Y-133617580D01*
%TO.C,C315*%
X122949580Y-102868000D02*
X122668420Y-102868000D01*
X122949580Y-103888000D02*
X122668420Y-103888000D01*
%TO.C,R115*%
X91423258Y-103392500D02*
X90948742Y-103392500D01*
X91423258Y-102347500D02*
X90948742Y-102347500D01*
%TO.C,R304*%
X116473500Y-108949258D02*
X116473500Y-108474742D01*
X115428500Y-108949258D02*
X115428500Y-108474742D01*
%TO.C,R206*%
X91456742Y-69581500D02*
X91931258Y-69581500D01*
X91456742Y-70626500D02*
X91931258Y-70626500D01*
%TO.C,Q212*%
X129555000Y-70220000D02*
X128255000Y-70220000D01*
X127905000Y-72020000D02*
X129555000Y-72020000D01*
%TO.C,R314*%
X124572500Y-105901258D02*
X124572500Y-105426742D01*
X125617500Y-105901258D02*
X125617500Y-105426742D01*
%TO.C,R216*%
X123968742Y-65136500D02*
X124443258Y-65136500D01*
X123968742Y-66181500D02*
X124443258Y-66181500D01*
%TO.C,C105*%
X104280580Y-96649000D02*
X103999420Y-96649000D01*
X104280580Y-95629000D02*
X103999420Y-95629000D01*
%TO.C,C312*%
X100697420Y-112778000D02*
X100978580Y-112778000D01*
X100697420Y-111758000D02*
X100978580Y-111758000D01*
%TO.C,R116*%
X91423258Y-99807500D02*
X90948742Y-99807500D01*
X91423258Y-100852500D02*
X90948742Y-100852500D01*
%TO.C,U302*%
X120523000Y-104882000D02*
X123973000Y-104882000D01*
X120523000Y-110002000D02*
X122473000Y-110002000D01*
X120523000Y-110002000D02*
X118573000Y-110002000D01*
X120523000Y-104882000D02*
X118573000Y-104882000D01*
%TO.C,U103*%
X128611000Y-116129000D02*
X128611000Y-115509000D01*
X110371000Y-134949000D02*
X110371000Y-134529000D01*
X128611000Y-115509000D02*
X127611000Y-115509000D01*
X110371000Y-115509000D02*
X111371000Y-115509000D01*
X128611000Y-134949000D02*
X128611000Y-134529000D01*
X110371000Y-134529000D02*
X109991000Y-134529000D01*
X110371000Y-116129000D02*
X110371000Y-115509000D01*
X110371000Y-134949000D02*
X128611000Y-134949000D01*
%TO.C,R204*%
X91456742Y-66533500D02*
X91931258Y-66533500D01*
X91456742Y-67578500D02*
X91931258Y-67578500D01*
%TO.C,C314*%
X124585000Y-111619420D02*
X124585000Y-111900580D01*
X125605000Y-111619420D02*
X125605000Y-111900580D01*
%TO.C,Q202*%
X129555000Y-82920000D02*
X128255000Y-82920000D01*
X127905000Y-84720000D02*
X129555000Y-84720000D01*
%TO.C,D211*%
X101830000Y-78779000D02*
X99280000Y-78779000D01*
X101830000Y-80479000D02*
X99280000Y-80479000D01*
X101830000Y-78779000D02*
X101830000Y-80479000D01*
%TO.C,Q104*%
X99553000Y-135393000D02*
X100853000Y-135393000D01*
X101203000Y-133593000D02*
X99553000Y-133593000D01*
%TO.C,D101*%
X99592000Y-119341000D02*
X99592000Y-117641000D01*
X99592000Y-117641000D02*
X102142000Y-117641000D01*
X99592000Y-119341000D02*
X102142000Y-119341000D01*
%TO.C,R106*%
X90948742Y-117587500D02*
X91423258Y-117587500D01*
X90948742Y-118632500D02*
X91423258Y-118632500D01*
%TO.C,D201*%
X96354000Y-81764000D02*
X94654000Y-81764000D01*
X96354000Y-81764000D02*
X96354000Y-79214000D01*
X94654000Y-81764000D02*
X94654000Y-79214000D01*
%TO.C,R303*%
X107808500Y-111997258D02*
X107808500Y-111522742D01*
X108853500Y-111997258D02*
X108853500Y-111522742D01*
%TO.C,R110*%
X90948742Y-132827500D02*
X91423258Y-132827500D01*
X90948742Y-133872500D02*
X91423258Y-133872500D01*
%TO.C,R211*%
X131428258Y-118984500D02*
X130953742Y-118984500D01*
X131428258Y-120029500D02*
X130953742Y-120029500D01*
%TO.C,D208*%
X126722000Y-81700000D02*
X124172000Y-81700000D01*
X126722000Y-81700000D02*
X126722000Y-83400000D01*
X126722000Y-83400000D02*
X124172000Y-83400000D01*
%TO.C,R205*%
X91456742Y-69102500D02*
X91931258Y-69102500D01*
X91456742Y-68057500D02*
X91931258Y-68057500D01*
%TO.C,Q213*%
X127905000Y-89800000D02*
X129555000Y-89800000D01*
X129555000Y-88000000D02*
X128255000Y-88000000D01*
%TO.C,R111*%
X100823500Y-121649258D02*
X100823500Y-121174742D01*
X101868500Y-121649258D02*
X101868500Y-121174742D01*
%TO.C,Q216*%
X129555000Y-65140000D02*
X128255000Y-65140000D01*
X127905000Y-66940000D02*
X129555000Y-66940000D01*
%TO.C,Q101*%
X105929000Y-119491000D02*
X105929000Y-117841000D01*
X104129000Y-117841000D02*
X104129000Y-119141000D01*
%TO.C,C104*%
X104280580Y-93343000D02*
X103999420Y-93343000D01*
X104280580Y-94363000D02*
X103999420Y-94363000D01*
%TO.C,R306*%
X121045500Y-111522742D02*
X121045500Y-111997258D01*
X120000500Y-111522742D02*
X120000500Y-111997258D01*
%TO.C,R102*%
X90948742Y-109967500D02*
X91423258Y-109967500D01*
X90948742Y-111012500D02*
X91423258Y-111012500D01*
%TO.C,C103*%
X108329000Y-133336420D02*
X108329000Y-133617580D01*
X109349000Y-133336420D02*
X109349000Y-133617580D01*
%TO.C,D210*%
X101830000Y-82589000D02*
X101830000Y-84289000D01*
X101830000Y-84289000D02*
X99280000Y-84289000D01*
X101830000Y-82589000D02*
X99280000Y-82589000D01*
%TO.C,U301*%
X111379000Y-104882000D02*
X114829000Y-104882000D01*
X111379000Y-110002000D02*
X113329000Y-110002000D01*
X111379000Y-104882000D02*
X109429000Y-104882000D01*
X111379000Y-110002000D02*
X109429000Y-110002000D01*
%TO.C,R312*%
X125619742Y-103900500D02*
X126094258Y-103900500D01*
X125619742Y-102855500D02*
X126094258Y-102855500D01*
%TO.C,C308*%
X116461000Y-111619420D02*
X116461000Y-111900580D01*
X115441000Y-111619420D02*
X115441000Y-111900580D01*
%TO.C,C313*%
X100697420Y-111254000D02*
X100978580Y-111254000D01*
X100697420Y-110234000D02*
X100978580Y-110234000D01*
%TO.C,U203*%
X125290000Y-70739000D02*
X125290000Y-72939000D01*
X125290000Y-70739000D02*
X125290000Y-68539000D01*
X119820000Y-70739000D02*
X119820000Y-67139000D01*
X119820000Y-70739000D02*
X119820000Y-72939000D01*
%TO.C,R101*%
X90948742Y-122667500D02*
X91423258Y-122667500D01*
X90948742Y-123712500D02*
X91423258Y-123712500D01*
%TO.C,R210*%
X131428258Y-118505500D02*
X130953742Y-118505500D01*
X131428258Y-117460500D02*
X130953742Y-117460500D01*
%TO.C,R308*%
X109332500Y-102950242D02*
X109332500Y-103424758D01*
X110377500Y-102950242D02*
X110377500Y-103424758D01*
%TO.C,D212*%
X97575000Y-67588000D02*
X99275000Y-67588000D01*
X97575000Y-67588000D02*
X97575000Y-70138000D01*
X99275000Y-67588000D02*
X99275000Y-70138000D01*
%TO.C,U101*%
X102743000Y-123083000D02*
X106193000Y-123083000D01*
X102743000Y-133203000D02*
X104693000Y-133203000D01*
X102743000Y-123083000D02*
X100793000Y-123083000D01*
X102743000Y-133203000D02*
X100793000Y-133203000D01*
%TO.C,D102*%
X105513000Y-122262000D02*
X102963000Y-122262000D01*
X105513000Y-120562000D02*
X105513000Y-122262000D01*
X105513000Y-120562000D02*
X102963000Y-120562000D01*
%TO.C,Q211*%
X127905000Y-92340000D02*
X129555000Y-92340000D01*
X129555000Y-90540000D02*
X128255000Y-90540000D01*
%TO.C,R301*%
X112380500Y-111522742D02*
X112380500Y-111997258D01*
X113425500Y-111522742D02*
X113425500Y-111997258D01*
%TO.C,D103*%
X102592000Y-115355000D02*
X100042000Y-115355000D01*
X102592000Y-115355000D02*
X102592000Y-117055000D01*
X102592000Y-117055000D02*
X100042000Y-117055000D01*
%TO.C,U201*%
X125137000Y-90932000D02*
X125137000Y-93132000D01*
X119667000Y-90932000D02*
X119667000Y-87332000D01*
X125137000Y-90932000D02*
X125137000Y-88732000D01*
X119667000Y-90932000D02*
X119667000Y-93132000D01*
%TO.C,R302*%
X110856500Y-111522742D02*
X110856500Y-111997258D01*
X111901500Y-111522742D02*
X111901500Y-111997258D01*
%TO.C,Q205*%
X127905000Y-99960000D02*
X129555000Y-99960000D01*
X129555000Y-98160000D02*
X128255000Y-98160000D01*
%TO.C,R207*%
X121522258Y-79135500D02*
X121047742Y-79135500D01*
X121522258Y-78090500D02*
X121047742Y-78090500D01*
%TO.C,R103*%
X90948742Y-107427500D02*
X91423258Y-107427500D01*
X90948742Y-108472500D02*
X91423258Y-108472500D01*
%TO.C,Q214*%
X129555000Y-67680000D02*
X128255000Y-67680000D01*
X127905000Y-69480000D02*
X129555000Y-69480000D01*
%TO.C,R315*%
X127141500Y-105426742D02*
X127141500Y-105901258D01*
X126096500Y-105426742D02*
X126096500Y-105901258D01*
%TO.C,D213*%
X126722000Y-80860000D02*
X124172000Y-80860000D01*
X126722000Y-79160000D02*
X124172000Y-79160000D01*
X126722000Y-79160000D02*
X126722000Y-80860000D01*
%TO.C,R112*%
X90948742Y-105932500D02*
X91423258Y-105932500D01*
X90948742Y-104887500D02*
X91423258Y-104887500D01*
%TO.C,R201*%
X121522258Y-86374500D02*
X121047742Y-86374500D01*
X121522258Y-85329500D02*
X121047742Y-85329500D01*
%TO.C,Q207*%
X129555000Y-95620000D02*
X128255000Y-95620000D01*
X127905000Y-97420000D02*
X129555000Y-97420000D01*
%TO.C,R311*%
X124572500Y-108949258D02*
X124572500Y-108474742D01*
X125617500Y-108949258D02*
X125617500Y-108474742D01*
%TD*%
M02*
